<svg width="26" height="22" viewBox="0 0 26 22" fill="none" xmlns="http://www.w3.org/2000/svg">
  <g filter="url(#filter0_d_889_15305)">
    <rect x="4" y="4" width="18" height="14" rx="7" fill="white" shape-rendering="crispEdges"/>
    <path fill-rule="evenodd" clip-rule="evenodd" d="M11.8658 9.86566C12.1667 9.56482 12.5747 9.39581 13.0002 9.39581C13.4256 9.39581 13.8336 9.56482 14.1345 9.86566C14.4353 10.1665 14.6043 10.5745 14.6043 11C14.6043 11.4254 14.4353 11.8335 14.1345 12.1343C13.8336 12.4351 13.4256 12.6041 13.0002 12.6041C12.5747 12.6041 12.1667 12.4351 11.8658 12.1343C11.565 11.8335 11.396 11.4254 11.396 11C11.396 10.5745 11.565 10.1665 11.8658 9.86566ZM13.0002 10.2708C12.8068 10.2708 12.6213 10.3476 12.4846 10.4844C12.3478 10.6211 12.271 10.8066 12.271 11C12.271 11.1934 12.3478 11.3788 12.4846 11.5156C12.6213 11.6523 12.8068 11.7291 13.0002 11.7291C13.1935 11.7291 13.379 11.6523 13.5158 11.5156C13.6525 11.3788 13.7293 11.1934 13.7293 11C13.7293 10.8066 13.6525 10.6211 13.5158 10.4844C13.379 10.3476 13.1935 10.2708 13.0002 10.2708Z" fill="black"/>
    <path fill-rule="evenodd" clip-rule="evenodd" d="M8.26368 11C9.58379 13.0906 11.164 14.0625 13 14.0625C14.836 14.0625 16.4162 13.0906 17.7363 11C16.4162 8.90936 14.836 7.9375 13 7.9375C11.164 7.9375 9.58379 8.90936 8.26368 11ZM7.37485 10.7749C8.82721 8.35431 10.7007 7.0625 13 7.0625C15.2993 7.0625 17.1728 8.35431 18.6252 10.7749C18.7083 10.9135 18.7083 11.0865 18.6252 11.2251C17.1728 13.6457 15.2993 14.9375 13 14.9375C10.7007 14.9375 8.82721 13.6457 7.37485 11.2251C7.29172 11.0865 7.29172 10.9135 7.37485 10.7749Z" fill="black"/>
  </g>
  <defs>
    <filter id="filter0_d_889_15305" x="0" y="0" width="26" height="22" filterUnits="userSpaceOnUse" color-interpolation-filters="sRGB">
      <feFlood flood-opacity="0" result="BackgroundImageFix"/>
      <feColorMatrix in="SourceAlpha" type="matrix" values="0 0 0 0 0 0 0 0 0 0 0 0 0 0 0 0 0 0 127 0" result="hardAlpha"/>
      <feOffset/>
      <feGaussianBlur stdDeviation="2"/>
      <feComposite in2="hardAlpha" operator="out"/>
      <feColorMatrix type="matrix" values="0 0 0 0 0 0 0 0 0 0 0 0 0 0 0 0 0 0 0.25 0"/>
      <feBlend mode="normal" in2="BackgroundImageFix" result="effect1_dropShadow_889_15305"/>
      <feBlend mode="normal" in="SourceGraphic" in2="effect1_dropShadow_889_15305" result="shape"/>
    </filter>
  </defs>
</svg>
