<svg width="46" height="56" viewBox="0 0 46 56" fill="none" xmlns="http://www.w3.org/2000/svg">
<path d="M32.2779 11C31.0145 10.9988 29.5 10.5 28.9097 9.99921C28.0163 9.1045 27.0012 7.76535 27 6.50004V-3.86238e-05L6.22126 4.30137e-07C5.40438 -0.000303572 4.59543 0.160536 3.84065 0.473387C3.08587 0.786238 2.40005 1.24496 1.82232 1.82331C1.24459 2.40167 0.786303 3.08834 0.473628 3.84411C0.160953 4.59988 -5.64026e-08 5.40992 0 6.22799V43.7719C-5.64026e-08 44.59 0.160953 45.4001 0.473628 46.1559C0.786303 46.9117 1.24459 47.5983 1.82232 48.1767C2.40005 48.755 3.08587 49.2137 3.84065 49.5266C4.59543 49.8394 5.40438 50.0003 6.22126 50H31.7811C32.5977 50 33.4064 49.8389 34.1609 49.5259C34.9154 49.2129 35.601 48.7542 36.1785 48.1758C36.756 47.5975 37.2141 46.9109 37.5266 46.1553C37.8391 45.3997 38 44.5898 38 43.7719V11H32.2779Z" fill="#E3EEFB"/>
<path d="M6.38386 19.7476H30.4722C30.7039 19.7476 30.9261 19.6557 31.0901 19.4922C31.2541 19.3286 31.3466 19.1066 31.3472 18.875C31.3472 18.6429 31.255 18.4204 31.0909 18.2563C30.9268 18.0922 30.7043 18 30.4722 18H6.38386C6.26907 18 6.15542 18.0226 6.0494 18.0666C5.94337 18.1106 5.84707 18.1751 5.766 18.2564C5.68494 18.3377 5.62071 18.4342 5.577 18.5403C5.53328 18.6464 5.51093 18.7602 5.51123 18.875C5.51123 19.1064 5.60318 19.3283 5.76683 19.492C5.93048 19.6556 6.15243 19.7476 6.38386 19.7476Z" fill="#0072FF"/>
<path d="M6.38386 24.7556H30.4722C30.7039 24.7556 30.9261 24.6637 31.0901 24.5002C31.2541 24.3366 31.3466 24.1147 31.3472 23.883C31.3472 23.651 31.255 23.4284 31.0909 23.2643C30.9268 23.1002 30.7043 23.0081 30.4722 23.0081H6.38386C6.26907 23.0081 6.15542 23.0307 6.0494 23.0747C5.94337 23.1187 5.84707 23.1832 5.766 23.2645C5.68494 23.3457 5.62071 23.4422 5.577 23.5484C5.53328 23.6545 5.51093 23.7682 5.51123 23.883C5.51123 24.1145 5.60318 24.3364 5.76683 24.5001C5.93048 24.6637 6.15243 24.7556 6.38386 24.7556Z" fill="#0072FF"/>
<path d="M30.4722 29.7476H6.38386C6.26907 29.7476 6.15542 29.7249 6.0494 29.6809C5.94337 29.6369 5.84707 29.5725 5.766 29.4912C5.68494 29.4099 5.62071 29.3134 5.577 29.2073C5.53328 29.1011 5.51093 28.9874 5.51123 28.8726C5.51123 28.6412 5.60318 28.4192 5.76683 28.2556C5.93048 28.0919 6.15243 28 6.38386 28H30.4722C30.7039 28 30.9261 28.0918 31.0901 28.2554C31.2541 28.419 31.3466 28.641 31.3472 28.8726C31.3472 29.1047 31.255 29.3272 31.0909 29.4913C30.9268 29.6554 30.7043 29.7476 30.4722 29.7476Z" fill="#0072FF"/>
<path d="M6.38386 34.7476H20.9713C21.0861 34.7476 21.1997 34.7249 21.3057 34.6809C21.4118 34.6369 21.5081 34.5724 21.5891 34.4911C21.6702 34.4099 21.7344 34.3134 21.7782 34.2073C21.8219 34.1011 21.8442 33.9874 21.8439 33.8726C21.8439 33.6412 21.752 33.4192 21.5883 33.2555C21.4247 33.0919 21.2027 33 20.9713 33H6.38386C6.15243 33 5.93048 33.0919 5.76683 33.2555C5.60318 33.4192 5.51123 33.6412 5.51123 33.8726C5.51093 33.9874 5.53328 34.1011 5.577 34.2073C5.62071 34.3134 5.68494 34.4099 5.766 34.4911C5.84707 34.5724 5.94337 34.6369 6.0494 34.6809C6.15542 34.7249 6.26907 34.7476 6.38386 34.7476Z" fill="#0072FF"/>
<path d="M38 11H31.9982C30.673 10.9988 29.4024 10.5132 28.4654 9.64976C27.5283 8.78632 27.0013 7.61558 27 6.39449V0L38 11Z" fill="#0072FF"/>
<path d="M42.3212 39H13.6788C11.6471 39 10 40.7613 10 42.934V52.066C10 54.2387 11.6471 56 13.6788 56H42.3212C44.3529 56 46 54.2387 46 52.066V42.934C46 40.7613 44.3529 39 42.3212 39Z" fill="#0072FF"/>
<path fill-rule="evenodd" clip-rule="evenodd" d="M27.297 45.6979C27.0043 45.1782 26.5757 44.748 26.0571 44.4535C25.5262 44.1512 24.9248 43.9948 24.3139 44.0002C23.7037 43.9944 23.103 44.1509 22.5731 44.4535C22.0538 44.748 21.6244 45.1782 21.3309 45.6979C21.0223 46.246 20.8658 46.8666 20.8775 47.4955C20.8661 48.1257 21.0225 48.7477 21.3309 49.2975C21.6229 49.8196 22.0526 50.2516 22.5731 50.5465C23.103 50.8491 23.7037 51.0056 24.3139 50.9998C24.9241 51.0056 25.5249 50.8491 26.0548 50.5465C26.5753 50.2516 27.0049 49.8196 27.297 49.2975C27.6053 48.7477 27.7618 48.1257 27.7503 47.4955C27.7601 46.8668 27.6037 46.2468 27.297 45.6979ZM22.5436 47.4955C22.5151 46.9749 22.6852 46.4629 23.0196 46.0629C23.1836 45.8877 23.3836 45.7502 23.6059 45.6598C23.8282 45.5694 24.0674 45.5282 24.3071 45.5392C24.5475 45.5282 24.7873 45.5699 25.0098 45.6616C25.2322 45.7532 25.4319 45.8925 25.5946 46.0697C25.9278 46.4677 26.0979 46.9771 26.0707 47.4955C26.098 48.0146 25.9261 48.5246 25.5901 48.9213C25.4275 49.0974 25.2286 49.2361 25.007 49.3277C24.7855 49.4193 24.5466 49.4616 24.3071 49.4516C24.0668 49.4626 23.827 49.4208 23.6046 49.3291C23.3822 49.2375 23.1825 49.0983 23.0196 48.9213C22.6853 48.5239 22.515 48.014 22.5436 47.4955Z" fill="white"/>
<path fill-rule="evenodd" clip-rule="evenodd" d="M19.7032 49.2839C19.4187 49.7988 18.9901 50.2195 18.47 50.4944C17.8842 50.794 17.2329 50.9428 16.575 50.9273H14V44.1112H16.575C17.2333 44.0952 17.8855 44.2407 18.4746 44.5351C18.9931 44.8043 19.4205 45.2207 19.7032 45.7319C19.9962 46.2761 20.1438 46.8867 20.1316 47.5046C20.1432 48.1246 19.9957 48.7372 19.7032 49.2839ZM17.9305 48.9416C18.1148 48.7525 18.2576 48.527 18.3497 48.2796C18.4418 48.0321 18.4813 47.7681 18.4655 47.5046C18.4814 47.2413 18.442 46.9776 18.3498 46.7305C18.2577 46.4834 18.1149 46.2583 17.9305 46.0697C17.5176 45.7076 16.9782 45.5234 16.4299 45.5574H15.6502V49.4517H16.4299C16.9777 49.4853 17.5167 49.3021 17.9305 48.9416Z" fill="white"/>
<path d="M33.9428 44.7278C34.5177 45.1956 34.9087 45.8515 35.0467 46.5797H33.3013C33.1835 46.2779 32.9773 46.0188 32.7097 45.8362C32.4276 45.6525 32.0964 45.5585 31.7599 45.5665C31.5377 45.5594 31.3168 45.6035 31.1143 45.6955C30.9119 45.7875 30.7334 45.9248 30.5925 46.0969C30.2771 46.5007 30.1163 47.004 30.1392 47.5159C30.1161 48.0258 30.277 48.5269 30.5925 48.9281C30.7345 49.0984 30.9134 49.2341 31.1157 49.3248C31.318 49.4156 31.5383 49.4589 31.7599 49.4517C32.0966 49.4606 32.428 49.3665 32.7097 49.1819C32.9758 49.0027 33.1819 48.7476 33.3013 48.4498H35.0467C34.9064 49.1759 34.5157 49.8297 33.9428 50.2972C33.3262 50.768 32.5645 51.0085 31.7894 50.9772C31.1786 50.9901 30.5757 50.8382 30.044 50.5375C29.5463 50.2482 29.1426 49.8217 28.8811 49.3089C28.5995 48.7466 28.4586 48.1243 28.4708 47.4955C28.4587 46.8667 28.5995 46.2444 28.8811 45.6821C29.1426 45.1693 29.5463 44.7428 30.044 44.4535C30.5757 44.1528 31.1786 44.0009 31.7894 44.0137C32.5685 43.9931 33.3303 44.2457 33.9428 44.7278Z" fill="white"/>
<path d="M38.671 48.8057L40.1082 50.9273H42.0644L39.7704 47.5431L41.9216 44.1112H40.0402L38.8365 46.1649L37.4379 44.1112H35.4817L37.7281 47.4184L35.5475 50.9273H37.4379L38.671 48.8057Z" fill="white"/>
</svg>
