<svg width="46" height="56" viewBox="0 0 46 56" fill="none" xmlns="http://www.w3.org/2000/svg">
<path d="M32.2779 11C31.0145 10.9988 29.5 10.5 28.9097 9.99921C28.0163 9.1045 27.0012 7.76535 27 6.50004V-3.86238e-05L6.22126 4.30137e-07C5.40438 -0.000303572 4.59543 0.160536 3.84065 0.473387C3.08587 0.786238 2.40005 1.24496 1.82232 1.82331C1.24459 2.40167 0.786303 3.08834 0.473628 3.84411C0.160953 4.59988 -5.64026e-08 5.40992 0 6.22799V43.7719C-5.64026e-08 44.59 0.160953 45.4001 0.473628 46.1559C0.786303 46.9117 1.24459 47.5983 1.82232 48.1767C2.40005 48.755 3.08587 49.2137 3.84065 49.5266C4.59543 49.8394 5.40438 50.0003 6.22126 50H31.7811C32.5977 50 33.4064 49.8389 34.1609 49.5259C34.9154 49.2129 35.601 48.7542 36.1785 48.1758C36.756 47.5975 37.2141 46.9109 37.5266 46.1553C37.8391 45.3997 38 44.5898 38 43.7719V11H32.2779Z" fill="#F9ECDB"/>
<path d="M15.4561 29.1979C16.4241 29.7144 17.5047 29.9839 18.6019 29.9824C19.6978 29.9823 20.7767 29.7119 21.743 29.1949C22.7092 28.678 23.533 27.9306 24.1412 27.019L22.7412 26.0857C22.2865 26.7679 21.6703 27.3272 20.9473 27.714C20.2244 28.1007 19.4171 28.3028 18.5972 28.3024C17.7776 28.3026 16.9706 28.1007 16.2478 27.7144C15.5249 27.3282 14.9085 26.7695 14.4532 26.088L13.0532 27.0214C13.6627 27.9337 14.4882 28.6813 15.4561 29.1979Z" fill="#FF9908"/>
<path d="M15.9394 23.1294C16.5567 23.1294 17.0571 22.629 17.0571 22.0117C17.0571 21.3944 16.5567 20.894 15.9394 20.894C15.3222 20.894 14.8218 21.3944 14.8218 22.0117C14.8218 22.629 15.3222 23.1294 15.9394 23.1294Z" fill="#FF9908"/>
<path d="M22.3818 22.0117C22.3818 22.629 21.8814 23.1294 21.2641 23.1294C20.6469 23.1294 20.1465 22.629 20.1465 22.0117C20.1465 21.3944 20.6469 20.894 21.2641 20.894C21.8814 20.894 22.3818 21.3944 22.3818 22.0117Z" fill="#FF9908"/>
<path fill-rule="evenodd" clip-rule="evenodd" d="M11.8157 31.3877C13.6157 33.1877 16.0561 34.2002 18.6017 34.2033C21.1472 34.2002 23.5877 33.1877 25.3877 31.3877C27.1876 29.5877 28.2003 27.1472 28.2033 24.6017C28.2003 22.0561 27.1876 19.6157 25.3877 17.8157C23.5877 16.0157 21.1472 15.0031 18.6017 15C16.0561 15.0031 13.6157 16.0157 11.8157 17.8157C10.0157 19.6157 9.00309 22.0561 9 24.6017C9.00309 27.1472 10.0157 29.5877 11.8157 31.3877ZM13.0059 19.0059C14.4903 17.5216 16.5025 16.686 18.6017 16.6823C20.7009 16.686 22.713 17.5216 24.1974 19.0059C25.6818 20.4903 26.5173 22.5025 26.521 24.6017C26.5173 26.7009 25.6818 28.713 24.1974 30.1974C22.713 31.6817 20.7009 32.5173 18.6017 32.521C16.5025 32.5173 14.4903 31.6817 13.0059 30.1974C11.5216 28.713 10.686 26.7009 10.6823 24.6017C10.686 22.5025 11.5216 20.4903 13.0059 19.0059Z" fill="#FF9908"/>
<path d="M38 11H31.9982C30.673 10.9988 29.4024 10.5132 28.4654 9.64976C27.5283 8.78632 27.0013 7.61558 27 6.39449V0L38 11Z" fill="#FF9908"/>
<path d="M42.3212 39H13.6788C11.647 39 10 40.7613 10 42.934V52.066C10 54.2387 11.647 56 13.6788 56H42.3212C44.353 56 46 54.2387 46 52.066V42.934C46 40.7613 44.353 39 42.3212 39Z" fill="#FF9908"/>
<path d="M26.7418 46.3311C26.6267 45.6489 26.2463 45.0366 25.6801 44.6224C25.0428 44.1844 24.2742 43.9668 23.4961 44.0041C22.8535 43.9892 22.2182 44.1412 21.6551 44.4444C21.1345 44.7331 20.71 45.1624 20.4325 45.6809C20.1362 46.2449 19.9879 46.8721 20.0008 47.506C19.9894 48.1361 20.1377 48.7592 20.4325 49.3197C20.7104 49.8394 21.1368 50.269 21.6598 50.5562C22.2311 50.8625 22.8752 51.0152 23.5265 50.9988C24.0625 51.0081 24.5936 50.8989 25.0804 50.6794C25.5093 50.4826 25.8897 50.1979 26.1958 49.8444C26.4788 49.516 26.6943 49.1372 26.8305 48.7288V47.0566H23.2674V48.2498H25.4118C25.3077 48.6196 25.0812 48.9453 24.7678 49.176C24.4593 49.3942 24.0868 49.5087 23.7061 49.5022C23.4394 49.5188 23.1722 49.4806 22.9214 49.3903C22.6707 49.2999 22.442 49.1593 22.2501 48.9775C21.9094 48.6277 21.7391 48.1266 21.7391 47.4741C21.7108 46.9534 21.885 46.4416 22.2268 46.0414C22.3894 45.8666 22.5892 45.7289 22.8121 45.6378C23.0351 45.5467 23.2757 45.5046 23.5171 45.5144C23.8271 45.5085 24.1327 45.5875 24.3991 45.7425C24.6372 45.881 24.8274 46.086 24.9451 46.3311H26.7418Z" fill="white"/>
<path d="M29.4815 44.068V50.9281H27.7852V44.068H29.4815Z" fill="white"/>
<path d="M35.228 45.3889V44.068L30.6523 44.0794V50.9395H32.3487V48.1654H34.5724V46.9038H32.3487V45.3889H35.228Z" fill="white"/>
</svg>
