<svg width="46" height="56" viewBox="0 0 46 56" fill="none" xmlns="http://www.w3.org/2000/svg">
<path d="M32.2779 11C31.0145 10.9988 29.5 10.5 28.9097 9.99921C28.0163 9.1045 27.0012 7.76535 27 6.50004V-3.86238e-05L6.22126 4.30137e-07C5.40438 -0.000303572 4.59543 0.160536 3.84065 0.473387C3.08587 0.786238 2.40005 1.24496 1.82232 1.82331C1.24459 2.40167 0.786303 3.08834 0.473628 3.84411C0.160953 4.59988 -5.64026e-08 5.40992 0 6.22799V43.7719C-5.64026e-08 44.59 0.160953 45.4001 0.473628 46.1559C0.786303 46.9117 1.24459 47.5983 1.82232 48.1767C2.40005 48.755 3.08587 49.2137 3.84065 49.5266C4.59543 49.8394 5.40438 50.0003 6.22126 50H31.7811C32.5977 50 33.4064 49.8389 34.1609 49.5259C34.9154 49.2129 35.601 48.7542 36.1785 48.1758C36.756 47.5975 37.2141 46.9109 37.5266 46.1553C37.8391 45.3997 38 44.5898 38 43.7719V11H32.2779Z" fill="#ECE4F4"/>
<path d="M24.6117 19.7646C24.6117 20.3974 24.0987 20.9103 23.466 20.9103C22.8332 20.9103 22.3203 20.3974 22.3203 19.7646C22.3203 19.1319 22.8332 18.619 23.466 18.619C24.0987 18.619 24.6117 19.1319 24.6117 19.7646Z" fill="#A140FF"/>
<path fill-rule="evenodd" clip-rule="evenodd" d="M24.112 32.9177H13.8057C12.7967 32.9164 11.8295 32.5151 11.116 31.8017C10.4026 31.0882 10.0012 30.1209 10 29.112V18.8057C10.0012 17.7967 10.4026 16.8295 11.116 16.116C11.8295 15.4026 12.7967 15.0012 13.8057 15H24.112C25.1207 15.0012 26.0877 15.4027 26.8008 16.1162C27.5139 16.8297 27.9147 17.7969 27.9153 18.8057V29.112C27.9147 30.1207 27.5139 31.088 26.8008 31.8015C26.0877 32.515 25.1207 32.9164 24.112 32.9177ZM13.8057 16.6823C13.2427 16.6829 12.703 16.9069 12.3049 17.3049C11.9068 17.703 11.6829 18.2427 11.6823 18.8057V25.677C13.2947 25.4649 15.484 25.5466 18.0546 26.5733L19.9446 24.772L21.2326 28.0386C21.2326 28.0386 21.5779 26.837 22.6932 27.0073C22.9625 27.0484 23.2719 27.1148 23.5974 27.1846C24.5373 27.3863 25.6105 27.6166 26.233 27.3491V18.8057C26.233 18.2429 26.0096 17.7032 25.6119 17.3051C25.2142 16.9069 24.6747 16.6829 24.112 16.6823H13.8057Z" fill="#A140FF"/>
<path d="M38 11H31.9982C30.673 10.9988 29.4024 10.5132 28.4654 9.64976C27.5283 8.78632 27.0013 7.61558 27 6.39449V0L38 11Z" fill="#A140FF"/>
<path d="M42.3212 39H13.6788C11.647 39 10 40.7613 10 42.934V52.066C10 54.2387 11.647 56 13.6788 56H42.3212C44.353 56 46 54.2387 46 52.066V42.934C46 40.7613 44.353 39 42.3212 39Z" fill="#A140FF"/>
<path d="M38.4246 46.1725C38.3189 45.5407 37.9745 44.9737 37.4625 44.5887C36.885 44.1783 36.187 43.9722 35.4791 44.003C34.8968 43.9898 34.3213 44.1305 33.8108 44.4111C33.339 44.679 32.9549 45.0778 32.705 45.5593C32.4376 46.0787 32.3032 46.6562 32.3138 47.2403C32.3014 47.8279 32.4359 48.4093 32.705 48.9319C32.9554 49.4145 33.3412 49.8135 33.8151 50.08C34.3331 50.3628 34.9167 50.5036 35.5067 50.4881C35.9917 50.4968 36.4724 50.3956 36.9128 50.1921C37.3023 50.0103 37.6478 49.7462 37.9256 49.4182C38.1821 49.1138 38.3774 48.7627 38.5007 48.3842V46.8639H35.2719V47.9698H37.2152C37.1208 48.3131 36.9147 48.6152 36.6295 48.8283C36.3501 49.0308 36.0124 49.1369 35.6674 49.1306C35.426 49.1458 35.1842 49.1103 34.9573 49.0266C34.7305 48.9429 34.5236 48.8126 34.35 48.6443C34.0413 48.3201 33.887 47.8556 33.887 47.2509C33.8608 46.7689 34.0188 46.295 34.3289 45.9251C34.4755 45.7627 34.6561 45.6345 34.8578 45.5497C35.0595 45.4649 35.2774 45.4256 35.4961 45.4345C35.7777 45.4289 36.0553 45.5021 36.2975 45.646C36.5125 45.7679 36.6863 45.9512 36.7965 46.1725H38.4246Z" fill="white"/>
<path d="M21.3177 44.077V48.4202C21.3177 49.0869 21.1366 49.5993 20.7743 49.9574C20.5721 50.1439 20.3344 50.2877 20.0754 50.3803C19.8164 50.473 19.5413 50.5125 19.2667 50.4966C18.9659 50.5127 18.6649 50.4691 18.3811 50.3682C18.0973 50.2673 17.8363 50.1111 17.6132 49.9088C17.2058 49.5155 17.0014 48.9516 17 48.2172H18.5203C18.5203 48.8113 18.7465 49.1074 19.1948 49.1074C19.586 49.1074 19.7805 48.879 19.7805 48.4244V44.0813L21.3177 44.077Z" fill="white"/>
<path fill-rule="evenodd" clip-rule="evenodd" d="M23.8678 50.4353V48.2045H24.8214C25.2595 48.2173 25.6943 48.126 26.0901 47.9381C26.4187 47.7791 26.6926 47.5259 26.8767 47.2107C27.0557 46.8874 27.1468 46.5229 27.141 46.1534C27.1546 45.8731 27.1087 45.5931 27.0063 45.3318C26.9039 45.0705 26.7473 44.8338 26.5468 44.6374C26.1507 44.2638 25.5756 44.077 24.8214 44.077H22.3306V50.4353H23.8678ZM24.6502 45.3077C25.2676 45.3077 25.5763 45.5896 25.5763 46.1534C25.5763 46.699 25.2676 46.9689 24.6502 46.9633H23.8678V45.3077H24.6502Z" fill="white"/>
<path d="M29.2005 45.2992V46.6292H31.3488V47.79H29.2005V49.2025H31.6194V50.4353H27.6612V44.077H31.6194V45.2992H29.2005Z" fill="white"/>
</svg>
