<svg width="46" height="56" viewBox="0 0 46 56" fill="none" xmlns="http://www.w3.org/2000/svg">
<path d="M32.2779 11C31.0145 10.9988 29.5 10.5 28.9097 9.99921C28.0163 9.1045 27.0012 7.76535 27 6.50004V-3.86238e-05L6.22126 4.30137e-07C5.40438 -0.000303572 4.59543 0.160536 3.84065 0.473387C3.08587 0.786238 2.40005 1.24496 1.82232 1.82331C1.24459 2.40167 0.786303 3.08834 0.473628 3.84411C0.160953 4.59988 -5.64026e-08 5.40992 0 6.22799V43.7719C-5.64026e-08 44.59 0.160953 45.4001 0.473628 46.1559C0.786303 46.9117 1.24459 47.5983 1.82232 48.1767C2.40005 48.755 3.08587 49.2137 3.84065 49.5266C4.59543 49.8394 5.40438 50.0003 6.22126 50H31.7811C32.5977 50 33.4064 49.8389 34.1609 49.5259C34.9154 49.2129 35.601 48.7542 36.1785 48.1758C36.756 47.5975 37.2141 46.9109 37.5266 46.1553C37.8391 45.3997 38 44.5898 38 43.7719V11H32.2779Z" fill="#E8F1F8"/>
<path d="M24.6955 17.5903V24.406C24.5563 24.3835 24.4137 24.3718 24.2685 24.3718C22.7599 24.3718 21.5369 25.6317 21.5369 27.1859C21.5369 28.7401 22.7599 30 24.2685 30C25.777 30 27 28.7401 27 27.1859L26.9998 27.1481L26.9851 16.7794C26.9851 16.0423 26.7008 15.3353 26.1949 14.8141C25.6889 14.2928 25.0027 14 24.2872 14H16.8355C16.1198 14 15.4333 14.2928 14.927 14.8139C14.4208 15.3351 14.136 16.0421 14.1355 16.7794V24.4024C14.0037 24.3822 13.8688 24.3718 13.7315 24.3718C12.223 24.3718 11 25.6317 11 27.1859C11 28.7401 12.223 30 13.7315 30C15.2401 30 16.4631 28.7401 16.4631 27.1859C16.4631 27.0937 16.4588 27.0025 16.4504 26.9126V17.5903C16.4504 17.2688 16.5743 16.9606 16.7949 16.7333C17.0155 16.506 17.3147 16.3783 17.6267 16.3783H23.5191C23.8311 16.3783 24.1303 16.506 24.3509 16.7333C24.5715 16.9606 24.6955 17.2688 24.6955 17.5903Z" fill="#005FAD"/>
<path d="M38 11H31.9982C30.673 10.9988 29.4024 10.5132 28.4654 9.64976C27.5283 8.78632 27.0013 7.61558 27 6.39449V0L38 11Z" fill="#005FAD"/>
<path d="M42.3212 39H13.6788C11.6471 39 10 40.7613 10 42.934V52.066C10 54.2387 11.6471 56 13.6788 56H42.3212C44.3529 56 46 54.2387 46 52.066V42.934C46 40.7613 44.3529 39 42.3212 39Z" fill="#005FAD"/>
<path fill-rule="evenodd" clip-rule="evenodd" d="M35.5384 50.5489C36.0743 50.2677 36.5156 49.836 36.8078 49.3073C37.1111 48.7472 37.2638 48.1185 37.2511 47.4821C37.2644 46.848 37.1116 46.2213 36.8078 45.6639C36.5177 45.1388 36.0775 44.7115 35.5431 44.4363C34.9374 44.1327 34.2656 43.9833 33.5878 44.0015H30.9395V50.993H33.5878C34.265 51.0092 34.9355 50.8565 35.5384 50.5489ZM35.4146 48.2771C35.3197 48.5309 35.1728 48.7622 34.9831 48.9562C34.5571 49.326 34.0023 49.5139 33.4384 49.4794H32.6358V45.4849H33.4384C34.0023 45.4504 34.5571 45.6383 34.9831 46.008C35.1727 46.2021 35.3196 46.4334 35.4144 46.6873C35.5092 46.9411 35.5498 47.2118 35.5338 47.4821C35.55 47.7525 35.5094 48.0233 35.4146 48.2771Z" fill="white"/>
<path d="M29.7681 44.0015V50.9931H28.0718V44.0015H29.7681Z" fill="white"/>
<path d="M26.9007 50.993V44.0503L24.838 44.0573L22.9713 48.8935L21.0743 44.0573H19V51H20.6987V46.6497L22.2153 51H23.6947L25.202 46.6591V50.993H26.9007Z" fill="white"/>
</svg>
