<svg width="46" height="56" viewBox="0 0 46 56" fill="none" xmlns="http://www.w3.org/2000/svg">
<path d="M32.2779 11C31.0145 10.9988 29.5 10.5 28.9097 9.99921C28.0163 9.1045 27.0012 7.76535 27 6.50004V-3.86238e-05L6.22126 4.30137e-07C5.40438 -0.000303572 4.59543 0.160536 3.84065 0.473387C3.08587 0.786238 2.40005 1.24496 1.82232 1.82331C1.24459 2.40167 0.786303 3.08834 0.473628 3.84411C0.160953 4.59988 -5.64026e-08 5.40992 0 6.22799V43.7719C-5.64026e-08 44.59 0.160953 45.4001 0.473628 46.1559C0.786303 46.9117 1.24459 47.5983 1.82232 48.1767C2.40005 48.755 3.08587 49.2137 3.84065 49.5266C4.59543 49.8394 5.40438 50.0003 6.22126 50H31.7811C32.5977 50 33.4064 49.8389 34.1609 49.5259C34.9154 49.2129 35.601 48.7542 36.1785 48.1758C36.756 47.5975 37.2141 46.9109 37.5266 46.1553C37.8391 45.3997 38 44.5898 38 43.7719V11H32.2779Z" fill="#E8F2FF"/>
<path d="M23.0911 21.3953L17.7362 18.2485C17.459 18.0858 17.1446 18.0001 16.8246 18C16.5045 17.9999 16.1901 18.0855 15.9128 18.2481C15.6356 18.4106 15.4052 18.6446 15.2449 18.9263C15.0847 19.2081 15.0003 19.5277 15 19.8532V26.1468C15.0003 26.4722 15.0847 26.7919 15.2449 27.0737C15.4052 27.3554 15.6356 27.5894 15.9128 27.7519C16.1901 27.9145 16.5045 28.0001 16.8246 28C17.1446 27.9999 17.459 27.9142 17.7362 27.7515L23.0911 24.6047C23.3676 24.4416 23.597 24.2076 23.7566 23.9259C23.9161 23.6443 24 23.325 24 23C24 22.675 23.9161 22.3557 23.7566 22.0741C23.597 21.7924 23.3676 21.5584 23.0911 21.3953Z" fill="#0072FF"/>
<path d="M38 11H31.9982C30.673 10.9988 29.4024 10.5132 28.4654 9.64976C27.5283 8.78632 27.0013 7.61558 27 6.39449V0L38 11Z" fill="#0072FF"/>
<path d="M42.3212 39H13.6788C11.6471 39 10 40.7613 10 42.934V52.066C10 54.2387 11.6471 56 13.6788 56H42.3212C44.3529 56 46 54.2387 46 52.066V42.934C46 40.7613 44.3529 39 42.3212 39Z" fill="#0072FF"/>
<path fill-rule="evenodd" clip-rule="evenodd" d="M30.196 44.4668C30.7299 44.77 31.1711 45.2129 31.4724 45.7478C31.788 46.3128 31.949 46.9511 31.939 47.5982C31.9511 48.2507 31.7901 48.8948 31.4724 49.4648C31.1701 50.0012 30.7272 50.4449 30.1914 50.7482C29.6459 51.0597 29.0275 51.2207 28.3994 51.2148C27.7714 51.22 27.1531 51.059 26.6074 50.7482C26.0722 50.4448 25.6301 50.0011 25.3287 49.4648C25.01 48.8952 24.8489 48.2508 24.8621 47.5982C24.85 46.9508 25.0111 46.312 25.3287 45.7478C25.6316 45.2133 26.0734 44.7706 26.6074 44.4668C27.1531 44.1559 27.7714 43.9949 28.3994 44.0002C29.029 43.9942 29.6489 44.1553 30.196 44.4668ZM27.0694 46.1258C26.7241 46.536 26.5488 47.0628 26.5794 47.5982C26.5512 48.1324 26.7263 48.6576 27.0694 49.0682C27.2371 49.2504 27.4426 49.3937 27.6715 49.488C27.9005 49.5823 28.1473 49.6254 28.3947 49.6142C28.6413 49.6247 28.8872 49.5813 29.1153 49.487C29.3434 49.3927 29.5482 49.2498 29.7154 49.0682C30.0626 48.6596 30.2405 48.1336 30.2124 47.5982C30.2398 47.0643 30.0638 46.5399 29.72 46.1305C29.5525 45.9481 29.3469 45.8047 29.118 45.7104C28.889 45.6161 28.6421 45.5731 28.3947 45.5845C28.1477 45.573 27.9012 45.6154 27.6723 45.7089C27.4434 45.8024 27.2377 45.9447 27.0694 46.1258Z" fill="white"/>
<path d="M23.889 51.1308V44.1658L21.8357 44.1728L19.969 49.0238L18.0744 44.1728H16V51.1378H17.6963V46.7722L19.2153 51.1378H20.683L22.1927 46.7815V51.1308H23.889Z" fill="white"/>
<path d="M35.9198 49.3948L34.2002 44.1145H32.3872L34.8185 51.1308H37.0118L39.4525 44.1145H37.6372L35.9198 49.3948Z" fill="white"/>
</svg>
