<svg width="46" height="56" viewBox="0 0 46 56" fill="none" xmlns="http://www.w3.org/2000/svg">
<path d="M32.2779 11C31.0145 10.9988 29.5 10.5 28.9097 9.99921C28.0163 9.1045 27.0012 7.76535 27 6.50004V-3.86238e-05L6.22126 4.30137e-07C5.40438 -0.000303572 4.59543 0.160536 3.84065 0.473387C3.08587 0.786238 2.40005 1.24496 1.82232 1.82331C1.24459 2.40167 0.786303 3.08834 0.473628 3.84411C0.160953 4.59988 -5.64026e-08 5.40992 0 6.22799V43.7719C-5.64026e-08 44.59 0.160953 45.4001 0.473628 46.1559C0.786303 46.9117 1.24459 47.5983 1.82232 48.1767C2.40005 48.755 3.08587 49.2137 3.84065 49.5266C4.59543 49.8394 5.40438 50.0003 6.22126 50H31.7811C32.5977 50 33.4064 49.8389 34.1609 49.5259C34.9154 49.2129 35.601 48.7542 36.1785 48.1758C36.756 47.5975 37.2141 46.9109 37.5266 46.1553C37.8391 45.3997 38 44.5898 38 43.7719V11H32.2779Z" fill="#F6E5E6"/>
<path d="M24.6955 17.5903V24.406C24.5563 24.3835 24.4137 24.3718 24.2685 24.3718C22.7599 24.3718 21.5369 25.6317 21.5369 27.1859C21.5369 28.7401 22.7599 30 24.2685 30C25.777 30 27 28.7401 27 27.1859L26.9998 27.1481L26.9851 16.7794C26.9851 16.0423 26.7008 15.3353 26.1949 14.8141C25.6889 14.2928 25.0027 14 24.2872 14H16.8355C16.1198 14 15.4333 14.2928 14.927 14.8139C14.4208 15.3351 14.136 16.0421 14.1355 16.7794V24.4024C14.0037 24.3822 13.8688 24.3718 13.7315 24.3718C12.223 24.3718 11 25.6317 11 27.1859C11 28.7401 12.223 30 13.7315 30C15.2401 30 16.4631 28.7401 16.4631 27.1859C16.4631 27.0937 16.4588 27.0025 16.4504 26.9126V17.5903C16.4504 17.2688 16.5743 16.9606 16.7949 16.7333C17.0155 16.506 17.3147 16.3783 17.6267 16.3783H23.5191C23.8311 16.3783 24.1303 16.506 24.3509 16.7333C24.5715 16.9606 24.6955 17.2688 24.6955 17.5903Z" fill="#FF3E4C"/>
<path d="M38 11H31.9982C30.673 10.9988 29.4024 10.5132 28.4654 9.64976C27.5283 8.78632 27.0013 7.61558 27 6.39449V0L38 11Z" fill="#FF3E4C"/>
<path d="M42.3212 39H13.6788C11.6471 39 10 40.7613 10 42.934V52.066C10 54.2387 11.6471 56 13.6788 56H42.3212C44.3529 56 46 54.2387 46 52.066V42.934C46 40.7613 44.3529 39 42.3212 39Z" fill="#FF3E4C"/>
<path d="M37.6792 44.9049C37.4869 44.6148 37.2086 44.3847 36.8788 44.2432C36.4881 44.0748 36.0622 43.9919 35.6328 44.0006C34.8582 44.0006 34.2562 44.1881 33.8268 44.5631C33.6014 44.774 33.4233 45.0256 33.303 45.303C33.1827 45.5804 33.1228 45.8778 33.1268 46.1776H34.7858C34.7905 45.9539 34.8724 45.7378 35.0191 45.5622C35.0895 45.4875 35.1769 45.4288 35.2747 45.3906C35.3725 45.3524 35.4782 45.3357 35.5838 45.3416C35.6792 45.337 35.7745 45.3508 35.864 45.3823C35.9535 45.4138 36.0352 45.4623 36.1042 45.5247C36.1722 45.5944 36.2245 45.6766 36.2578 45.7661C36.2911 45.8556 36.3047 45.9506 36.2978 46.0452C36.2978 46.5628 35.9245 46.8165 35.1778 46.8062H34.8698V48.1097H35.1871C36.0209 48.1082 36.4378 48.3803 36.4378 48.9258C36.4418 49.0238 36.4249 49.1216 36.388 49.2133C36.3511 49.3051 36.295 49.3888 36.2231 49.4596C36.1473 49.5303 36.0566 49.5853 35.957 49.621C35.8573 49.6567 35.7509 49.6723 35.6445 49.6669C35.5152 49.6761 35.3854 49.6582 35.2644 49.6143C35.1433 49.5704 35.0341 49.5018 34.9445 49.4132C34.7751 49.2173 34.6835 48.9715 34.6855 48.7185H33.0288C33.0685 49.4882 33.3275 50.0617 33.7988 50.4367C34.2702 50.8116 34.9118 50.9991 35.7191 50.9991C36.1585 51.0099 36.5945 50.9246 36.9932 50.7499C37.3299 50.5992 37.6117 50.3574 37.8028 50.0551C37.9911 49.7462 38.0871 49.3947 38.0805 49.0383C38.082 48.2428 37.6286 47.7083 36.7201 47.4348V47.3863C37.0651 47.3216 37.3758 47.1463 37.5998 46.89C37.8455 46.5942 37.9706 46.2247 37.9522 45.8489C37.9571 45.5162 37.8625 45.189 37.6792 44.9049Z" fill="white"/>
<path fill-rule="evenodd" clip-rule="evenodd" d="M28.7613 48.5993V50.9263H27.0649V44.294H29.8136C30.6466 44.294 31.2836 44.4903 31.7199 44.8807C31.9406 45.0854 32.1128 45.332 32.2254 45.6042C32.338 45.8764 32.3884 46.168 32.3733 46.4599C32.3817 46.8455 32.281 47.2262 32.0816 47.5627C31.8779 47.8917 31.5759 48.1564 31.2136 48.3236C30.7762 48.5179 30.2967 48.6123 29.8136 48.5993H28.7613ZM30.6466 46.4599C30.6466 45.8805 30.3059 45.5901 29.6246 45.5887H28.7613V47.3157H29.6246C30.3059 47.3157 30.6466 47.0304 30.6466 46.4599Z" fill="white"/>
<path d="M25.8937 50.9262V44.3402L23.8357 44.3468L21.969 48.9346L20.0743 44.3468H18V50.9329H19.701V46.8061L21.22 50.9329H22.6877L24.1973 46.8149V50.9262H25.8937Z" fill="white"/>
</svg>
