<svg width="46" height="56" viewBox="0 0 46 56" fill="none" xmlns="http://www.w3.org/2000/svg">
<path d="M32.2779 11C31.0145 10.9988 29.5 10.5 28.9097 9.99921C28.0163 9.1045 27.0012 7.76535 27 6.50004V-3.86238e-05L6.22126 4.30137e-07C5.40438 -0.000303572 4.59543 0.160536 3.84065 0.473387C3.08587 0.786238 2.40005 1.24496 1.82232 1.82331C1.24459 2.40167 0.786303 3.08834 0.473628 3.84411C0.160953 4.59988 -5.64026e-08 5.40992 0 6.22799V43.7719C-5.64026e-08 44.59 0.160953 45.4001 0.473628 46.1559C0.786303 46.9117 1.24459 47.5983 1.82232 48.1767C2.40005 48.755 3.08587 49.2137 3.84065 49.5266C4.59543 49.8394 5.40438 50.0003 6.22126 50H31.7811C32.5977 50 33.4064 49.8389 34.1609 49.5259C34.9154 49.2129 35.601 48.7542 36.1785 48.1758C36.756 47.5975 37.2141 46.9109 37.5266 46.1553C37.8391 45.3997 38 44.5898 38 43.7719V11H32.2779Z" fill="#DEF4E6"/>
<path d="M24.6955 17.5903V24.406C24.5563 24.3835 24.4137 24.3718 24.2685 24.3718C22.7599 24.3718 21.5369 25.6317 21.5369 27.1859C21.5369 28.7401 22.7599 30 24.2685 30C25.777 30 27 28.7401 27 27.1859L26.9998 27.1481L26.9851 16.7794C26.9851 16.0423 26.7008 15.3353 26.1949 14.8141C25.6889 14.2928 25.0027 14 24.2872 14H16.8355C16.1198 14 15.4333 14.2928 14.927 14.8139C14.4208 15.3351 14.136 16.0421 14.1355 16.7794V24.4024C14.0037 24.3822 13.8688 24.3718 13.7315 24.3718C12.223 24.3718 11 25.6317 11 27.1859C11 28.7401 12.223 30 13.7315 30C15.2401 30 16.4631 28.7401 16.4631 27.1859C16.4631 27.0937 16.4588 27.0025 16.4504 26.9126V17.5903C16.4504 17.2688 16.5743 16.9606 16.7949 16.7333C17.0155 16.506 17.3147 16.3783 17.6267 16.3783H23.5191C23.8311 16.3783 24.1303 16.506 24.3509 16.7333C24.5715 16.9606 24.6955 17.2688 24.6955 17.5903Z" fill="#00C650"/>
<path d="M38 11H31.9982C30.673 10.9988 29.4024 10.5132 28.4654 9.64976C27.5283 8.78632 27.0013 7.61558 27 6.39449V0L38 11Z" fill="#00C650"/>
<path d="M42.3212 39H13.6788C11.6471 39 10 40.7613 10 42.934V52.066C10 54.2387 11.6471 56 13.6788 56H42.3212C44.3529 56 46 54.2387 46 52.066V42.934C46 40.7613 44.3529 39 42.3212 39Z" fill="#00C650"/>
<path d="M23.6733 47.7273C23.6733 48.4474 23.5348 49.0579 23.2578 49.5586C22.9808 50.0593 22.6058 50.4396 22.1328 50.6996C21.6619 50.9595 21.1335 51.0895 20.5476 51.0895C19.9595 51.0895 19.43 50.9585 18.9592 50.6964C18.4883 50.4343 18.1143 50.054 17.8374 49.5554C17.5625 49.0547 17.4251 48.4453 17.4251 47.7273C17.4251 47.0071 17.5625 46.3967 17.8374 45.896C18.1143 45.3952 18.4883 45.0149 18.9592 44.755C19.43 44.495 19.9595 44.3651 20.5476 44.3651C21.1335 44.3651 21.6619 44.495 22.1328 44.755C22.6058 45.0149 22.9808 45.3952 23.2578 45.896C23.5348 46.3967 23.6733 47.0071 23.6733 47.7273ZM22.0561 47.7273C22.0561 47.3011 21.9954 46.9411 21.8739 46.647C21.7546 46.353 21.582 46.1303 21.3562 45.979C21.1325 45.8278 20.8629 45.7521 20.5476 45.7521C20.2344 45.7521 19.9648 45.8278 19.739 45.979C19.5131 46.1303 19.3395 46.353 19.218 46.647C19.0987 46.9411 19.0391 47.3011 19.0391 47.7273C19.0391 48.1534 19.0987 48.5135 19.218 48.8075C19.3395 49.1016 19.5131 49.3242 19.739 49.4755C19.9648 49.6268 20.2344 49.7024 20.5476 49.7024C20.8629 49.7024 21.1325 49.6268 21.3562 49.4755C21.582 49.3242 21.7546 49.1016 21.8739 48.8075C21.9954 48.5135 22.0561 48.1534 22.0561 47.7273ZM28.8924 46.5927C28.8562 46.4585 28.8029 46.3402 28.7326 46.2379C28.6623 46.1335 28.576 46.0451 28.4737 45.9727C28.3714 45.9002 28.2543 45.8459 28.1222 45.8097C27.9901 45.7713 27.8452 45.7521 27.6875 45.7521C27.37 45.7521 27.0952 45.8288 26.8629 45.9822C26.6328 46.1357 26.4549 46.3594 26.3292 46.6534C26.2035 46.9453 26.1406 47.3001 26.1406 47.7177C26.1406 48.1374 26.2013 48.4954 26.3228 48.7915C26.4442 49.0877 26.62 49.3136 26.8501 49.4691C27.0803 49.6246 27.3594 49.7024 27.6875 49.7024C27.9773 49.7024 28.2223 49.6555 28.4226 49.5618C28.625 49.4659 28.7784 49.3306 28.8828 49.1559C28.9872 48.9812 29.0394 48.7756 29.0394 48.5391L29.3335 48.5742H27.7418V47.4205H30.5639V48.2866C30.5639 48.8725 30.4393 49.3743 30.19 49.7919C29.9428 50.2095 29.6019 50.5302 29.1673 50.7539C28.7347 50.9776 28.2372 51.0895 27.6747 51.0895C27.0504 51.0895 26.5018 50.9542 26.0288 50.6836C25.5558 50.413 25.1871 50.0273 24.9229 49.5266C24.6587 49.0238 24.5266 48.4272 24.5266 47.7369C24.5266 47.1999 24.6065 46.7237 24.7663 46.3082C24.9261 45.8906 25.1488 45.5369 25.4343 45.2472C25.7219 44.9574 26.0543 44.7379 26.4315 44.5888C26.8107 44.4396 27.2188 44.3651 27.6555 44.3651C28.0348 44.3651 28.3874 44.4194 28.7134 44.5281C29.0415 44.6367 29.3313 44.7901 29.5827 44.9883C29.8363 45.1864 30.0419 45.4219 30.1996 45.6946C30.3572 45.9673 30.4553 46.2667 30.4936 46.5927H28.8924ZM35.7918 46.5927C35.7556 46.4585 35.7023 46.3402 35.632 46.2379C35.5617 46.1335 35.4754 46.0451 35.3731 45.9727C35.2709 45.9002 35.1537 45.8459 35.0216 45.8097C34.8895 45.7713 34.7446 45.7521 34.5869 45.7521C34.2694 45.7521 33.9946 45.8288 33.7623 45.9822C33.5322 46.1357 33.3543 46.3594 33.2286 46.6534C33.1029 46.9453 33.04 47.3001 33.04 47.7177C33.04 48.1374 33.1008 48.4954 33.2222 48.7915C33.3437 49.0877 33.5194 49.3136 33.7496 49.4691C33.9797 49.6246 34.2588 49.7024 34.5869 49.7024C34.8767 49.7024 35.1217 49.6555 35.322 49.5618C35.5244 49.4659 35.6778 49.3306 35.7822 49.1559C35.8866 48.9812 35.9388 48.7756 35.9388 48.5391L36.2329 48.5742H34.6412V47.4205H37.4633V48.2866C37.4633 48.8725 37.3387 49.3743 37.0894 49.7919C36.8422 50.2095 36.5013 50.5302 36.0667 50.7539C35.6341 50.9776 35.1366 51.0895 34.5741 51.0895C33.9498 51.0895 33.4012 50.9542 32.9282 50.6836C32.4552 50.413 32.0866 50.0273 31.8224 49.5266C31.5581 49.0238 31.426 48.4272 31.426 47.7369C31.426 47.1999 31.5059 46.7237 31.6657 46.3082C31.8256 45.8906 32.0482 45.5369 32.3337 45.2472C32.6214 44.9574 32.9537 44.7379 33.3309 44.5888C33.7101 44.4396 34.1182 44.3651 34.555 44.3651C34.9342 44.3651 35.2868 44.4194 35.6128 44.5281C35.941 44.6367 36.2307 44.7901 36.4822 44.9883C36.7357 45.1864 36.9413 45.4219 37.099 45.6946C37.2567 45.9673 37.3547 46.2667 37.393 46.5927H35.7918Z" fill="white"/>
</svg>
