<svg width="46" height="56" viewBox="0 0 46 56" fill="none" xmlns="http://www.w3.org/2000/svg">
<path d="M32.2779 11C31.0145 10.9988 29.5 10.5 28.9097 9.99921C28.0163 9.1045 27.0012 7.76535 27 6.50004V-3.86238e-05L6.22126 4.30137e-07C5.40438 -0.000303572 4.59543 0.160536 3.84065 0.473387C3.08587 0.786238 2.40005 1.24496 1.82232 1.82331C1.24459 2.40167 0.786303 3.08834 0.473628 3.84411C0.160953 4.59988 -5.64026e-08 5.40992 0 6.22799V43.7719C-5.64026e-08 44.59 0.160953 45.4001 0.473628 46.1559C0.786303 46.9117 1.24459 47.5983 1.82232 48.1767C2.40005 48.755 3.08587 49.2137 3.84065 49.5266C4.59543 49.8394 5.40438 50.0003 6.22126 50H31.7811C32.5977 50 33.4064 49.8389 34.1609 49.5259C34.9154 49.2129 35.601 48.7542 36.1785 48.1758C36.756 47.5975 37.2141 46.9109 37.5266 46.1553C37.8391 45.3997 38 44.5898 38 43.7719V11H32.2779Z" fill="#F6E5E6"/>
<path d="M38 11H31.9982C30.673 10.9988 29.4024 10.5132 28.4654 9.64976C27.5283 8.78632 27.0013 7.61558 27 6.39449V0L38 11Z" fill="#FF3E4C"/>
<path d="M21.4624 15.7476H6.87496C6.64331 15.7476 6.42111 15.6557 6.25709 15.4921C6.09307 15.3285 6.00062 15.1066 6 14.875C6 14.6429 6.09218 14.4203 6.25627 14.2562C6.42035 14.0921 6.64291 14 6.87496 14H21.4624C21.694 14.0006 21.916 14.0931 22.0795 14.2571C22.2431 14.4211 22.335 14.6433 22.335 14.875C22.3344 15.1062 22.2422 15.3278 22.0787 15.4913C21.9152 15.6548 21.6936 15.747 21.4624 15.7476Z" fill="#FF3E4C"/>
<path d="M6.87496 20.6754H21.4624C21.6936 20.6748 21.9152 20.5826 22.0787 20.4191C22.2422 20.2556 22.3344 20.034 22.335 19.8028C22.335 19.5711 22.2431 19.3489 22.0795 19.1849C21.916 19.0209 21.694 18.9284 21.4624 18.9278H6.87496C6.64291 18.9278 6.42035 19.02 6.25627 19.1841C6.09218 19.3482 6 19.5707 6 19.8028C6.00062 20.0344 6.09307 20.2564 6.25709 20.42C6.42111 20.5835 6.64331 20.6754 6.87496 20.6754Z" fill="#FF3E4C"/>
<path d="M6.87496 25.6032H30.9633C31.1947 25.6032 31.4167 25.5112 31.5803 25.3476C31.744 25.1839 31.8359 24.962 31.8359 24.7306C31.8362 24.6158 31.8139 24.502 31.7702 24.3959C31.7265 24.2898 31.6622 24.1933 31.5812 24.112C31.5001 24.0307 31.4038 23.9662 31.2978 23.9222C31.1918 23.8782 31.0781 23.8556 30.9633 23.8556H6.87496C6.64291 23.8556 6.42035 23.9477 6.25627 24.1118C6.09218 24.2759 6 24.4985 6 24.7306C6.00062 24.9622 6.09307 25.1841 6.25709 25.3477C6.42111 25.5113 6.64331 25.6032 6.87496 25.6032Z" fill="#FF3E4C"/>
<path d="M6.87496 35.4588H30.9633C31.0781 35.4588 31.1918 35.4361 31.2978 35.3921C31.4038 35.3481 31.5001 35.2836 31.5812 35.2023C31.6622 35.121 31.7265 35.0246 31.7702 34.9185C31.8139 34.8123 31.8362 34.6986 31.8359 34.5838C31.8359 34.3524 31.744 34.1304 31.5803 33.9667C31.4167 33.8031 31.1947 33.7112 30.9633 33.7112H6.87496C6.64331 33.7112 6.42111 33.803 6.25709 33.9666C6.09307 34.1302 6.00062 34.3522 6 34.5838C6 34.8159 6.09218 35.0384 6.25627 35.2025C6.42035 35.3666 6.64291 35.4588 6.87496 35.4588Z" fill="#FF3E4C"/>
<path d="M30.9633 30.531H6.87496C6.64291 30.531 6.42035 30.4388 6.25627 30.2747C6.09218 30.1106 6 29.8881 6 29.656C6.00062 29.4244 6.09307 29.2024 6.25709 29.0388C6.42111 28.8752 6.64331 28.7834 6.87496 28.7834H30.9633C31.1947 28.7834 31.4167 28.8753 31.5803 29.039C31.744 29.2026 31.8359 29.4246 31.8359 29.656C31.8362 29.7708 31.8139 29.8845 31.7702 29.9907C31.7265 30.0968 31.6622 30.1933 31.5812 30.2746C31.5001 30.3559 31.4038 30.4203 31.2978 30.4643C31.1918 30.5083 31.0781 30.531 30.9633 30.531Z" fill="#FF3E4C"/>
<path d="M26.4113 14H30.5365C31.2555 14 31.8384 14.5829 31.8384 15.3019V19.4271C31.8384 20.1462 31.2555 20.7291 30.5365 20.7291H26.4113C25.6923 20.7291 25.1094 20.1462 25.1094 19.4271V15.3019C25.1094 14.5829 25.6923 14 26.4113 14Z" fill="#FF3E4C"/>
<path d="M42.3212 39H13.6788C11.647 39 10 40.7613 10 42.934V52.066C10 54.2387 11.647 56 13.6788 56H42.3212C44.353 56 46 54.2387 46 52.066V42.934C46 40.7613 44.353 39 42.3212 39Z" fill="#FF3E4C"/>
<path fill-rule="evenodd" clip-rule="evenodd" d="M31.0117 49.3117C30.7195 49.8408 30.2782 50.2729 29.7424 50.5544C29.1394 50.8622 28.4689 51.015 27.7918 50.9988H25.1436V44.0013H27.7918C28.4694 43.9843 29.1409 44.1337 29.747 44.4364C30.2814 44.7119 30.7216 45.1396 31.0117 45.6652C31.3152 46.2231 31.468 46.8503 31.455 47.485C31.4676 48.1218 31.3149 48.7511 31.0117 49.3117ZM29.1871 48.9603C29.3767 48.7661 29.5237 48.5346 29.6185 48.2806C29.7133 48.0265 29.7539 47.7556 29.7377 47.485C29.754 47.2147 29.7134 46.944 29.6186 46.6903C29.5238 46.4366 29.3768 46.2055 29.1871 46.0119C28.7627 45.6405 28.2083 45.4515 27.6448 45.486H26.8398V49.4839H27.6448C28.2079 49.518 28.7618 49.33 29.1871 48.9603Z" fill="white"/>
<path fill-rule="evenodd" clip-rule="evenodd" d="M20.6963 50.9989V48.5438L21.7486 48.5462C22.2317 48.561 22.7115 48.4613 23.1485 48.2553C23.5108 48.0788 23.8128 47.7994 24.0165 47.4524C24.2159 47.0974 24.3166 46.6957 24.3081 46.2888C24.3234 45.9805 24.2731 45.6724 24.1605 45.3848C24.0479 45.0972 23.8756 44.8367 23.6548 44.6203C23.2185 44.2084 22.5815 44.0013 21.7486 44.0013H19V50.9989H20.6963ZM21.5596 45.358C22.2409 45.358 22.5815 45.6683 22.5815 46.2888C22.5815 46.8892 22.2409 47.1863 21.5596 47.1801H20.6963V45.358H21.5596Z" fill="white"/>
<path d="M36.9915 45.3487V44.0013H32.416V50.9989H34.1146V48.1691H36.3359V46.8823H34.1146V45.3487H36.9915Z" fill="white"/>
</svg>
