<svg width="46" height="56" viewBox="0 0 46 56" fill="none" xmlns="http://www.w3.org/2000/svg">
<path d="M32.2779 11C31.0145 10.9988 29.5 10.5 28.9097 9.99921C28.0163 9.1045 27.0012 7.76535 27 6.50004V-3.86238e-05L6.22126 4.30137e-07C5.40438 -0.000303572 4.59543 0.160536 3.84065 0.473387C3.08587 0.786238 2.40005 1.24496 1.82232 1.82331C1.24459 2.40167 0.786303 3.08834 0.473628 3.84411C0.160953 4.59988 -5.64026e-08 5.40992 0 6.22799V43.7719C-5.64026e-08 44.59 0.160953 45.4001 0.473628 46.1559C0.786303 46.9117 1.24459 47.5983 1.82232 48.1767C2.40005 48.755 3.08587 49.2137 3.84065 49.5266C4.59543 49.8394 5.40438 50.0003 6.22126 50H31.7811C32.5977 50 33.4064 49.8389 34.1609 49.5259C34.9154 49.2129 35.601 48.7542 36.1785 48.1758C36.756 47.5975 37.2141 46.9109 37.5266 46.1553C37.8391 45.3997 38 44.5898 38 43.7719V11H32.2779Z" fill="#F6E5E6"/>
<path d="M6.87263 16.7476H17.0595C17.2888 16.7445 17.5076 16.6517 17.6691 16.4889C17.8305 16.3262 17.9216 16.1065 17.9228 15.8773C17.9235 15.6468 17.8331 15.4254 17.6715 15.2612C17.5099 15.0969 17.29 15.0031 17.0595 15H6.87263C6.75784 15 6.64416 15.0226 6.53814 15.0666C6.43212 15.1106 6.33581 15.1751 6.25475 15.2564C6.17368 15.3377 6.10946 15.4342 6.06574 15.5403C6.02202 15.6464 5.9997 15.7602 6 15.875C6 16.1064 6.09192 16.3283 6.25557 16.492C6.41922 16.6556 6.6412 16.7476 6.87263 16.7476Z" fill="#FF3E4C"/>
<path d="M6.87263 21.9671H17.0595C17.2908 21.9665 17.5124 21.8743 17.6759 21.7108C17.8394 21.5473 17.9316 21.3257 17.9322 21.0944C17.9322 20.8628 17.8403 20.6406 17.6767 20.4766C17.5131 20.3125 17.2912 20.2201 17.0595 20.2195H6.87263C6.75784 20.2195 6.64416 20.2421 6.53814 20.2861C6.43212 20.3301 6.33581 20.3946 6.25475 20.4759C6.17368 20.5572 6.10946 20.6536 6.06574 20.7598C6.02202 20.8659 5.9997 20.9797 6 21.0944C6 21.3259 6.09192 21.5478 6.25557 21.7115C6.41922 21.8751 6.6412 21.9671 6.87263 21.9671Z" fill="#FF3E4C"/>
<path d="M17.0595 27.1865H6.87263C6.75784 27.1865 6.64416 27.1638 6.53814 27.1198C6.43212 27.0758 6.33581 27.0114 6.25475 26.9301C6.17368 26.8488 6.10946 26.7523 6.06574 26.6462C6.02202 26.5401 5.9997 26.4263 6 26.3115C6 26.0801 6.09192 25.8582 6.25557 25.6945C6.41922 25.5309 6.6412 25.4389 6.87263 25.4389H17.0595C17.2908 25.4395 17.5124 25.5317 17.6759 25.6952C17.8394 25.8587 17.9316 26.0803 17.9322 26.3115C17.9322 26.5432 17.8403 26.7654 17.6767 26.9294C17.5131 27.0934 17.2912 27.1859 17.0595 27.1865Z" fill="#FF3E4C"/>
<path d="M6.87263 32.406H17.0595C17.2912 32.4054 17.5131 32.3129 17.6767 32.1488C17.8403 31.9848 17.9322 31.7627 17.9322 31.531C17.9316 31.2998 17.8394 31.0781 17.6759 30.9146C17.5124 30.7511 17.2908 30.659 17.0595 30.6584H6.87263C6.6412 30.6584 6.41922 30.7503 6.25557 30.9139C6.09192 31.0776 6 31.2996 6 31.531C5.9997 31.6458 6.02202 31.7595 6.06574 31.8657C6.10946 31.9718 6.17368 32.0682 6.25475 32.1495C6.33581 32.2308 6.43212 32.2953 6.53814 32.3393C6.64416 32.3833 6.75784 32.406 6.87263 32.406Z" fill="#FF3E4C"/>
<path d="M30.9611 16.7476H21.0308C20.7994 16.7476 20.5775 16.6556 20.4138 16.492C20.2502 16.3283 20.1582 16.1064 20.1582 15.875C20.1579 15.7602 20.1803 15.6464 20.224 15.5403C20.2677 15.4342 20.3319 15.3377 20.413 15.2564C20.494 15.1751 20.5903 15.1106 20.6964 15.0666C20.8024 15.0226 20.916 15 21.0308 15H30.9611C31.1932 15 31.4157 15.0922 31.5798 15.2563C31.7439 15.4204 31.836 15.6429 31.836 15.875C31.8354 16.1066 31.743 16.3286 31.579 16.4922C31.4149 16.6557 31.1928 16.7476 30.9611 16.7476Z" fill="#FF3E4C"/>
<path d="M21.0308 21.9671H30.9611C31.1928 21.9671 31.4149 21.8752 31.579 21.7116C31.743 21.548 31.8354 21.3261 31.836 21.0944C31.836 20.8624 31.7439 20.6398 31.5798 20.4757C31.4157 20.3116 31.1932 20.2195 30.9611 20.2195H21.0308C20.916 20.2195 20.8024 20.2421 20.6964 20.2861C20.5903 20.3301 20.494 20.3946 20.413 20.4759C20.3319 20.5572 20.2677 20.6536 20.224 20.7598C20.1803 20.8659 20.1579 20.9797 20.1582 21.0944C20.1582 21.3259 20.2502 21.5478 20.4138 21.7115C20.5775 21.8751 20.7994 21.9671 21.0308 21.9671Z" fill="#FF3E4C"/>
<path d="M30.9611 27.1865H21.0308C20.916 27.1865 20.8024 27.1638 20.6964 27.1198C20.5903 27.0758 20.494 27.0114 20.413 26.9301C20.3319 26.8488 20.2677 26.7523 20.224 26.6462C20.1803 26.5401 20.1579 26.4263 20.1582 26.3115C20.1582 26.0801 20.2502 25.8582 20.4138 25.6945C20.5775 25.5309 20.7994 25.4389 21.0308 25.4389H30.9611C31.1928 25.4389 31.4149 25.5307 31.579 25.6943C31.743 25.8579 31.8354 26.0799 31.836 26.3115C31.836 26.5436 31.7439 26.7661 31.5798 26.9302C31.4157 27.0943 31.1932 27.1865 30.9611 27.1865Z" fill="#FF3E4C"/>
<path d="M21.0308 32.406H30.9611C31.1932 32.406 31.4157 32.3138 31.5798 32.1497C31.7439 31.9856 31.836 31.7631 31.836 31.531C31.8354 31.2994 31.743 31.0774 31.579 30.9138C31.4149 30.7502 31.1928 30.6584 30.9611 30.6584H21.0308C20.7994 30.6584 20.5775 30.7503 20.4138 30.9139C20.2502 31.0776 20.1582 31.2996 20.1582 31.531C20.1579 31.6458 20.1803 31.7595 20.224 31.8657C20.2677 31.9718 20.3319 32.0682 20.413 32.1495C20.494 32.2308 20.5903 32.2953 20.6964 32.3393C20.8024 32.3833 20.916 32.406 21.0308 32.406Z" fill="#FF3E4C"/>
<path d="M38 11H31.9982C30.673 10.9988 29.4024 10.5132 28.4654 9.64976C27.5283 8.78632 27.0013 7.61558 27 6.39449V0L38 11Z" fill="#FF3E4C"/>
<path d="M42.3212 39H13.6788C11.647 39 10 40.7613 10 42.934V52.066C10 54.2387 11.647 56 13.6788 56H42.3212C44.353 56 46 54.2387 46 52.066V42.934C46 40.7613 44.353 39 42.3212 39Z" fill="#FF3E4C"/>
<path fill-rule="evenodd" clip-rule="evenodd" d="M37.6472 49.0406C37.6529 48.6536 37.5217 48.2768 37.2762 47.975C37.0218 47.6603 36.6649 47.4423 36.2659 47.3581C36.6152 47.2826 36.9275 47.0908 37.1502 46.8149C37.381 46.5161 37.4997 46.1477 37.4862 45.7723C37.5008 45.5235 37.4553 45.2748 37.3535 45.0467C37.2517 44.8186 37.0965 44.6177 36.9005 44.4603C36.5101 44.1534 35.9579 44 35.2439 44H32.0591V50.9211H35.3256C36.0722 50.9211 36.6462 50.7546 37.0475 50.4216C37.2468 50.2511 37.4043 50.0382 37.5081 49.799C37.612 49.5599 37.6595 49.3005 37.6472 49.0406ZM34.8683 46.838H33.7577V45.351H34.8496C35.4516 45.351 35.7526 45.5973 35.7526 46.0945C35.7526 46.5916 35.4586 46.838 34.8683 46.838ZM35.8541 48.4872C35.8968 48.5879 35.9164 48.6968 35.9113 48.8058C35.9097 49.3153 35.597 49.57 34.9733 49.57H33.7624V48.0141H34.9639C35.2152 47.9989 35.4636 48.0732 35.6639 48.2235C35.7463 48.2964 35.8113 48.3865 35.8541 48.4872Z" fill="white"/>
<path fill-rule="evenodd" clip-rule="evenodd" d="M20.6986 50.9303V48.5021L21.7485 48.5044C22.2318 48.5199 22.7117 48.4212 23.1485 48.2167C23.5117 48.0434 23.814 47.7668 24.0165 47.4225C24.2166 47.0716 24.3181 46.6743 24.3104 46.2717C24.3253 45.9666 24.2746 45.6618 24.1616 45.3774C24.0486 45.093 23.8759 44.8353 23.6548 44.6214C23.2193 44.2133 22.5846 44.0092 21.7509 44.0092H19V50.9303H20.6986ZM21.5619 45.351C22.2432 45.351 22.5838 45.6579 22.5838 46.2717C22.5838 46.8655 22.2432 47.1594 21.5619 47.1533H20.6986V45.351H21.5619Z" fill="white"/>
<path d="M26.7907 44.0092V48.0026C26.765 48.378 26.8759 48.7501 27.1034 49.0521C27.2174 49.1758 27.3582 49.2725 27.5154 49.3351C27.6725 49.3976 27.8419 49.4245 28.011 49.4135C28.1805 49.4246 28.3503 49.3979 28.5078 49.3353C28.6654 49.2728 28.8066 49.176 28.921 49.0521C29.1485 48.7501 29.2593 48.378 29.2336 48.0026V44.0092H30.9299V48.0026C30.9496 48.5766 30.8161 49.1458 30.5426 49.6529C30.2991 50.0847 29.9313 50.4355 29.4856 50.661C29.0158 50.8922 28.4963 51.0082 27.9714 50.9993C27.4549 51.01 26.9438 50.8954 26.4827 50.6656C26.0485 50.4405 25.6956 50.0884 25.4725 49.6575C25.2121 49.1446 25.0854 48.5758 25.1038 48.0026V44.0092H26.7907Z" fill="white"/>
<path fill-rule="evenodd" clip-rule="evenodd" d="M27.3152 11.6806C27.3205 11.3212 27.1987 10.9713 26.9707 10.691C26.7346 10.3988 26.4031 10.1964 26.0326 10.1182C26.357 10.0481 26.6469 9.87005 26.8538 9.61386C27.0681 9.33641 27.1783 8.99427 27.1657 8.64568C27.1793 8.41465 27.1371 8.18373 27.0426 7.97194C26.948 7.76015 26.8039 7.57356 26.6219 7.42745C26.2594 7.14248 25.7466 7 25.0836 7H22.1263V13.4267H25.1595C25.8528 13.4267 26.3858 13.2721 26.7584 12.9629C26.9434 12.8046 27.0897 12.6069 27.1861 12.3848C27.2826 12.1627 27.3267 11.9219 27.3152 11.6806ZM24.7349 9.63525H23.7036V8.25454H24.7175C25.2765 8.25454 25.556 8.48322 25.556 8.94487C25.556 9.40652 25.283 9.63525 24.7349 9.63525ZM25.6502 11.1667C25.6899 11.2602 25.7081 11.3613 25.7033 11.4626C25.7019 11.9356 25.4115 12.1721 24.8323 12.1721H23.7079V10.7274H24.8237C25.057 10.7132 25.2876 10.7822 25.4736 10.9218C25.5502 10.9895 25.6105 11.0732 25.6502 11.1667Z" fill="#FF3E4C"/>
<path fill-rule="evenodd" clip-rule="evenodd" d="M11.5772 13.4352V11.1805L12.5522 11.1826C13.0009 11.197 13.4466 11.1054 13.8522 10.9155C14.1894 10.7546 14.4701 10.4977 14.6581 10.1781C14.844 9.8522 14.9383 9.48328 14.9311 9.10944C14.9449 8.8261 14.8978 8.54311 14.7929 8.27901C14.688 8.0149 14.5276 7.77567 14.3223 7.57704C13.9179 7.19804 13.3286 7.00855 12.5544 7.00855H10V13.4352H11.5772ZM12.3789 8.25454C13.0115 8.25454 13.3279 8.5395 13.3279 9.10944C13.3279 9.66085 13.0115 9.93372 12.3789 9.92802H11.5772V8.25454H12.3789Z" fill="#FF3E4C"/>
<path d="M17.2342 7.00855V10.7167C17.2104 11.0652 17.3133 11.4108 17.5246 11.6913C17.6305 11.8061 17.7612 11.8959 17.9071 11.954C18.053 12.0121 18.2104 12.037 18.3674 12.0268C18.5247 12.0372 18.6824 12.0123 18.8287 11.9542C18.975 11.8961 19.1061 11.8063 19.2123 11.6913C19.4236 11.4108 19.5265 11.0652 19.5027 10.7167V7.00855H21.0778V10.7167C21.0961 11.2497 20.9721 11.7782 20.7181 12.2491C20.492 12.65 20.1505 12.9758 19.7367 13.1852C19.3004 13.3999 18.818 13.5076 18.3305 13.4994C17.851 13.5093 17.3764 13.4029 16.9483 13.1895C16.5451 12.9805 16.2174 12.6535 16.0101 12.2534C15.7684 11.7772 15.6508 11.249 15.6678 10.7167V7.00855H17.2342Z" fill="#FF3E4C"/>
</svg>
