<svg width="46" height="56" viewBox="0 0 46 56" fill="none" xmlns="http://www.w3.org/2000/svg">
<path d="M32.2779 11C31.0145 10.9988 29.5 10.5 28.9097 9.99921C28.0163 9.1045 27.0012 7.76535 27 6.50004V-3.86238e-05L6.22126 4.30137e-07C5.40438 -0.000303572 4.59543 0.160536 3.84065 0.473387C3.08587 0.786238 2.40005 1.24496 1.82232 1.82331C1.24459 2.40167 0.786303 3.08834 0.473628 3.84411C0.160953 4.59988 -5.64026e-08 5.40992 0 6.22799V43.7719C-5.64026e-08 44.59 0.160953 45.4001 0.473628 46.1559C0.786303 46.9117 1.24459 47.5983 1.82232 48.1767C2.40005 48.755 3.08587 49.2137 3.84065 49.5266C4.59543 49.8394 5.40438 50.0003 6.22126 50H31.7811C32.5977 50 33.4064 49.8389 34.1609 49.5259C34.9154 49.2129 35.601 48.7542 36.1785 48.1758C36.756 47.5975 37.2141 46.9109 37.5266 46.1553C37.8391 45.3997 38 44.5898 38 43.7719V11H32.2779Z" fill="#E8F1F8"/>
<path fill-rule="evenodd" clip-rule="evenodd" d="M28.708 17.9679H31.6665V15H28.6986V17.9656H25.7401V20.9334H28.6986V23.8966H25.7401L25.7402 29.8231C25.7409 30.6082 26.053 31.3609 26.6081 31.9161C27.1633 32.4712 27.916 32.7834 28.7011 32.784C29.4858 32.7827 30.2379 32.4703 30.7926 31.9152C31.3472 31.3602 31.659 30.6078 31.6597 29.8231V26.8622H28.708V23.899H31.6665V20.9311H28.708V17.9679ZM27.2545 29.8231V28.3765H30.1477V29.8231C30.1471 30.2066 29.9945 30.5742 29.7233 30.8453C29.4522 31.1165 29.0846 31.2691 28.7011 31.2697C28.3177 31.2691 27.95 31.1165 27.6789 30.8453C27.4077 30.5742 27.2551 30.2066 27.2545 29.8231Z" fill="#005FAD"/>
<path d="M22.1588 16.9296H7.57136C7.33992 16.9296 7.11798 16.8377 6.95433 16.6741C6.79068 16.5104 6.69873 16.2884 6.69873 16.057C6.69873 15.8256 6.79068 15.6036 6.95433 15.44C7.11798 15.2763 7.33992 15.1844 7.57136 15.1844H22.1588C22.2735 15.1841 22.3873 15.2064 22.4934 15.2501C22.5996 15.2938 22.696 15.3581 22.7773 15.4391C22.8586 15.5202 22.9231 15.6165 22.9671 15.7225C23.0111 15.8286 23.0337 15.9422 23.0337 16.057C23.0337 16.1718 23.0111 16.2855 22.9671 16.3915C22.9231 16.4975 22.8586 16.5938 22.7773 16.6749C22.696 16.7559 22.5996 16.8202 22.4934 16.8639C22.3873 16.9076 22.2735 16.9299 22.1588 16.9296Z" fill="#005FAD"/>
<path d="M7.57136 22.0837H22.1588C22.2735 22.0841 22.3873 22.0617 22.4934 22.018C22.5996 21.9743 22.696 21.91 22.7773 21.829C22.8586 21.7479 22.9231 21.6516 22.9671 21.5456C23.0111 21.4396 23.0337 21.3259 23.0337 21.2111C23.0337 20.9791 22.9415 20.7565 22.7774 20.5924C22.6134 20.4283 22.3908 20.3362 22.1588 20.3362H7.57136C7.33971 20.3368 7.11777 20.4292 6.95418 20.5932C6.7906 20.7573 6.69873 20.9795 6.69873 21.2111C6.69873 21.4426 6.79068 21.6645 6.95433 21.8281C7.11798 21.9918 7.33992 22.0837 7.57136 22.0837Z" fill="#005FAD"/>
<path d="M22.1588 27.2379H7.57136C7.33971 27.2372 7.11777 27.1448 6.95418 26.9808C6.7906 26.8167 6.69873 26.5945 6.69873 26.3629C6.69935 26.1316 6.79149 25.91 6.95501 25.7465C7.11853 25.583 7.34011 25.4909 7.57136 25.4903H22.1588C22.3904 25.4903 22.6126 25.5821 22.7766 25.7457C22.9407 25.9093 23.0331 26.1312 23.0337 26.3629C23.0337 26.595 22.9415 26.8175 22.7774 26.9816C22.6134 27.1457 22.3908 27.2379 22.1588 27.2379Z" fill="#005FAD"/>
<path d="M22.1588 32.392H7.57136C7.33971 32.3914 7.11777 32.2989 6.95418 32.1349C6.7906 31.9709 6.69873 31.7487 6.69873 31.517C6.69873 31.2856 6.79068 31.0636 6.95433 30.9C7.11798 30.7363 7.33992 30.6444 7.57136 30.6444H22.1588C22.2735 30.6441 22.3873 30.6664 22.4934 30.7102C22.5996 30.7539 22.696 30.8181 22.7773 30.8992C22.8586 30.9802 22.9231 31.0765 22.9671 31.1826C23.0111 31.2886 23.0337 31.4022 23.0337 31.517C23.0337 31.7491 22.9415 31.9716 22.7774 32.1357C22.6134 32.2998 22.3908 32.392 22.1588 32.392Z" fill="#005FAD"/>
<path d="M38 11H31.9982C30.673 10.9988 29.4024 10.5132 28.4654 9.64976C27.5283 8.78632 27.0013 7.61558 27 6.39449V0L38 11Z" fill="#005FAD"/>
<path d="M42.3212 39H13.6788C11.6471 39 10 40.7613 10 42.934V52.066C10 54.2387 11.6471 56 13.6788 56H42.3212C44.3529 56 46 54.2387 46 52.066V42.934C46 40.7613 44.3529 39 42.3212 39Z" fill="#005FAD"/>
<path fill-rule="evenodd" clip-rule="evenodd" d="M20.0836 48.3559L21.6025 50.9999H23.4691L21.8009 48.2465C22.281 48.1499 22.7134 47.892 23.0258 47.5157C23.3125 47.1452 23.4618 46.6871 23.4481 46.2193C23.4555 45.819 23.3565 45.4239 23.1611 45.0741C22.9582 44.732 22.6577 44.4582 22.2978 44.2875C21.8594 44.086 21.3804 43.988 20.8979 44.0012H18V50.9999H19.6963V48.3559H20.0836ZM20.7486 47.1991H19.6963L19.7009 45.421H20.7532C21.0209 45.3986 21.2866 45.4822 21.4929 45.6537C21.5743 45.7412 21.637 45.8443 21.6771 45.9567C21.7172 46.0692 21.7339 46.1886 21.7262 46.3077C21.7356 46.4277 21.7197 46.5483 21.6795 46.6617C21.6393 46.7752 21.5757 46.8789 21.4929 46.9664C21.2837 47.136 21.0174 47.2193 20.7486 47.1991Z" fill="white"/>
<path fill-rule="evenodd" clip-rule="evenodd" d="M28.6583 49.7222H26.0288L25.5901 51H23.8052L26.3717 44.0502H28.3247L30.8912 51H29.0853L28.6583 49.7222ZM28.222 48.4351L27.347 45.8609L26.4651 48.4351H28.222Z" fill="white"/>
<path fill-rule="evenodd" clip-rule="evenodd" d="M33.6397 48.3559L35.1587 50.9999H37.0253L35.357 48.2465C35.8371 48.1499 36.2695 47.892 36.582 47.5157C36.8687 47.1452 37.0179 46.6871 37.0043 46.2193C37.0117 45.819 36.9126 45.4239 36.7173 45.0741C36.5144 44.732 36.2138 44.4582 35.854 44.2875C35.4156 44.086 34.9365 43.988 34.454 44.0012H31.5562V50.9999H33.2524V48.3559H33.6397ZM34.3047 47.1991H33.2524L33.2571 45.421H34.3094C34.577 45.3986 34.8427 45.4822 35.049 45.6537C35.1305 45.7412 35.1932 45.8443 35.2333 45.9567C35.2734 46.0692 35.2901 46.1886 35.2824 46.3077C35.2917 46.4277 35.2758 46.5483 35.2356 46.6617C35.1955 46.7752 35.1319 46.8789 35.049 46.9664C34.8396 47.1356 34.5735 47.2188 34.3047 47.1991Z" fill="white"/>
</svg>
