<svg width="46" height="56" viewBox="0 0 46 56" fill="none" xmlns="http://www.w3.org/2000/svg">
<path d="M32.2779 11C31.0145 10.9988 29.5 10.5 28.9097 9.99921C28.0163 9.1045 27.0012 7.76535 27 6.50004V-3.86238e-05L6.22126 4.30137e-07C5.40438 -0.000303572 4.59543 0.160536 3.84065 0.473387C3.08587 0.786238 2.40005 1.24496 1.82232 1.82331C1.24459 2.40167 0.786303 3.08834 0.473628 3.84411C0.160953 4.59988 -5.64026e-08 5.40992 0 6.22799V43.7719C-5.64026e-08 44.59 0.160953 45.4001 0.473628 46.1559C0.786303 46.9117 1.24459 47.5983 1.82232 48.1767C2.40005 48.755 3.08587 49.2137 3.84065 49.5266C4.59543 49.8394 5.40438 50.0003 6.22126 50H31.7811C32.5977 50 33.4064 49.8389 34.1609 49.5259C34.9154 49.2129 35.601 48.7542 36.1785 48.1758C36.756 47.5975 37.2141 46.9109 37.5266 46.1553C37.8391 45.3997 38 44.5898 38 43.7719V11H32.2779Z" fill="#F9ECDB"/>
<path d="M9.56522 23.1304C10.1228 23.1304 10.6122 22.8389 10.8895 22.4H15.4996C14.0612 23.3815 13.0186 24.8294 12.6168 26.5217H11.6522V29.6522H14.7826V26.5217H14.2433C14.819 24.7172 16.3731 23.2782 18.4348 22.7888V23.1304H21.5652V22.7888C23.6269 23.2782 25.181 24.7172 25.7567 26.5217H25.2174V29.6522H28.3478V26.5217H27.3832C26.9814 24.8294 25.9388 23.3815 24.5004 22.4H29.1105C29.3878 22.8389 29.8772 23.1304 30.4348 23.1304C31.2992 23.1304 32 22.4297 32 21.5652C32 20.7008 31.2992 20 30.4348 20C29.8342 20 29.3125 20.3383 29.0501 20.8348H21.5652V20H18.4348V20.8348H10.9499C10.6875 20.3383 10.1658 20 9.56522 20C8.70077 20 8 20.7008 8 21.5652C8 22.4297 8.70077 23.1304 9.56522 23.1304Z" fill="#FF9908"/>
<path d="M38 11H31.9982C30.673 10.9988 29.4024 10.5132 28.4654 9.64976C27.5283 8.78632 27.0013 7.61558 27 6.39449V0L38 11Z" fill="#FF9908"/>
<path d="M42.3212 39H13.6788C11.647 39 10 40.7613 10 42.934V52.066C10 54.2387 11.647 56 13.6788 56H42.3212C44.353 56 46 54.2387 46 52.066V42.934C46 40.7613 44.353 39 42.3212 39Z" fill="#FF9908"/>
<path d="M37.9309 46.3514C37.8134 45.6723 37.4326 45.0631 36.8669 44.6497C36.2343 44.2027 35.4663 43.9748 34.6853 44.0022C34.0426 43.9874 33.4073 44.1387 32.8443 44.4407C32.3236 44.7285 31.8998 45.157 31.6239 45.6743C31.3289 46.2324 31.1806 46.853 31.1923 47.4805C31.1787 48.1119 31.327 48.7366 31.6239 49.2981C31.9002 49.8166 32.326 50.2453 32.8489 50.5317C33.4206 50.8356 34.0646 50.9868 34.7156 50.9702C35.2508 50.9795 35.7813 50.8707 36.2673 50.6521C36.6968 50.4562 37.0779 50.1726 37.3849 49.8206C37.6671 49.493 37.8825 49.1159 38.0196 48.7096V47.0761H34.4566V48.2643H36.6009C36.4968 48.6332 36.2694 48.9578 35.9546 49.1867C35.6463 49.4043 35.2736 49.5184 34.8929 49.5116C34.6266 49.5279 34.3597 49.4898 34.1094 49.3999C33.8591 49.3099 33.6308 49.1699 33.4392 48.9891C33.0986 48.6407 32.9283 48.1417 32.9283 47.4919C32.8987 46.9743 33.0722 46.4651 33.4136 46.0674C33.5758 45.8928 33.7755 45.7551 33.9985 45.664C34.2215 45.5729 34.4623 45.5307 34.7039 45.5403C35.0147 45.5342 35.321 45.6129 35.5883 45.7675C35.8266 45.904 36.017 46.1075 36.1342 46.3514H37.9309Z" fill="white"/>
<path d="M22.1367 50.7271C22.4799 50.5682 22.769 50.3167 22.9697 50.0024C23.1608 49.7007 23.2603 49.3526 23.2567 48.9982C23.2737 48.6151 23.1659 48.2365 22.9487 47.9167C22.7581 47.6523 22.5063 47.4351 22.2137 47.2829C21.8588 47.109 21.4906 46.9624 21.1123 46.8444C20.802 46.7353 20.564 46.6444 20.3983 46.574C20.2435 46.5097 20.1038 46.4154 19.9877 46.2968C19.9336 46.2427 19.8912 46.1787 19.8627 46.1085C19.8343 46.0383 19.8204 45.9633 19.822 45.8879C19.8162 45.8036 19.8298 45.7191 19.8617 45.6405C19.8935 45.5619 19.943 45.4912 20.0063 45.4335C20.1411 45.3254 20.3126 45.2703 20.487 45.279C20.5878 45.2738 20.6886 45.2886 20.7833 45.3226C20.8779 45.3566 20.9645 45.409 21.0377 45.4767C21.1814 45.6229 21.2709 45.8115 21.292 46.0129H23.1283C23.107 45.7316 23.0269 45.4575 22.8929 45.2075C22.7589 44.9574 22.5738 44.7367 22.349 44.5588C21.8102 44.1729 21.1502 43.9818 20.4823 44.0181C20.0431 44.0075 19.6063 44.0849 19.199 44.2453C18.8453 44.3867 18.5402 44.6231 18.3193 44.9269C18.1032 45.2366 17.9922 45.6045 18.002 45.9788C17.9838 46.3571 18.0901 46.7312 18.3053 47.0466C18.4907 47.3078 18.7391 47.5207 19.0287 47.6668C19.3809 47.8334 19.7441 47.9769 20.116 48.0962C20.4193 48.1992 20.6573 48.2878 20.83 48.362C20.9919 48.4277 21.1386 48.5243 21.2617 48.646C21.3195 48.7035 21.3648 48.7718 21.3949 48.8467C21.4249 48.9217 21.4392 49.0018 21.4367 49.0822C21.4394 49.1666 21.4239 49.2506 21.3914 49.3288C21.3589 49.4071 21.3099 49.4778 21.2476 49.5366C21.1056 49.6577 20.9205 49.7197 20.732 49.7093C20.5024 49.7163 20.2793 49.6346 20.1113 49.4821C19.9426 49.3205 19.8419 49.1033 19.829 48.8732H18.023C18.0314 49.1784 18.1108 49.4778 18.255 49.7489C18.3993 50.02 18.6048 50.2558 18.856 50.4386C19.4228 50.8286 20.1062 51.025 20.7997 50.9974C21.261 51.011 21.719 50.9184 22.1367 50.7271Z" fill="white"/>
<path d="M25.5061 44.0998L27.2211 49.2389L28.9385 44.0998H30.7561L28.3131 50.9315H26.1198L23.6885 44.0998H25.5061Z" fill="white"/>
</svg>
