<svg width="46" height="56" viewBox="0 0 46 56" fill="none" xmlns="http://www.w3.org/2000/svg">
<path d="M32.2779 11C31.0145 10.9988 29.5 10.5 28.9097 9.99921C28.0163 9.1045 27.0012 7.76535 27 6.50004V-3.86238e-05L6.22126 4.30137e-07C5.40438 -0.000303572 4.59543 0.160536 3.84065 0.473387C3.08587 0.786238 2.40005 1.24496 1.82232 1.82331C1.24459 2.40167 0.786303 3.08834 0.473628 3.84411C0.160953 4.59988 -5.64026e-08 5.40992 0 6.22799V43.7719C-5.64026e-08 44.59 0.160953 45.4001 0.473628 46.1559C0.786303 46.9117 1.24459 47.5983 1.82232 48.1767C2.40005 48.755 3.08587 49.2137 3.84065 49.5266C4.59543 49.8394 5.40438 50.0003 6.22126 50H31.7811C32.5977 50 33.4064 49.8389 34.1609 49.5259C34.9154 49.2129 35.601 48.7542 36.1785 48.1758C36.756 47.5975 37.2141 46.9109 37.5266 46.1553C37.8391 45.3997 38 44.5898 38 43.7719V11H32.2779Z" fill="#E3EEFB"/>
<path d="M38 11H31.9982C30.673 10.9988 29.4024 10.5132 28.4654 9.64976C27.5283 8.78632 27.0013 7.61558 27 6.39449V0L38 11Z" fill="#0072FF"/>
<path d="M6.38386 19.7476H30.4722C30.7039 19.7476 30.9261 19.6558 31.0901 19.4922C31.2541 19.3286 31.3466 19.1066 31.3472 18.875C31.3472 18.6429 31.255 18.4204 31.0909 18.2563C30.9268 18.0922 30.7043 18 30.4722 18H6.38386C6.26907 18 6.15542 18.0226 6.0494 18.0666C5.94337 18.1106 5.84707 18.1751 5.766 18.2564C5.68494 18.3377 5.62071 18.4342 5.577 18.5403C5.53328 18.6464 5.51093 18.7602 5.51123 18.875C5.51123 19.1064 5.60318 19.3283 5.76683 19.492C5.93048 19.6556 6.15243 19.7476 6.38386 19.7476Z" fill="#0072FF"/>
<path d="M6.38386 24.7556H30.4722C30.7039 24.7556 30.9261 24.6637 31.0901 24.5002C31.2541 24.3366 31.3466 24.1147 31.3472 23.883C31.3472 23.651 31.255 23.4284 31.0909 23.2643C30.9268 23.1002 30.7043 23.0081 30.4722 23.0081H6.38386C6.26907 23.0081 6.15542 23.0307 6.0494 23.0747C5.94337 23.1187 5.84707 23.1832 5.766 23.2645C5.68494 23.3457 5.62071 23.4422 5.577 23.5484C5.53328 23.6545 5.51093 23.7682 5.51123 23.883C5.51123 24.1145 5.60318 24.3364 5.76683 24.5001C5.93048 24.6637 6.15243 24.7556 6.38386 24.7556Z" fill="#0072FF"/>
<path d="M30.4722 29.7476H6.38386C6.26907 29.7476 6.15542 29.7249 6.0494 29.6809C5.94337 29.6369 5.84707 29.5725 5.766 29.4912C5.68494 29.4099 5.62071 29.3134 5.577 29.2073C5.53328 29.1011 5.51093 28.9874 5.51123 28.8726C5.51123 28.6412 5.60318 28.4192 5.76683 28.2556C5.93048 28.0919 6.15243 28 6.38386 28H30.4722C30.7039 28 30.9261 28.0918 31.0901 28.2554C31.2541 28.419 31.3466 28.641 31.3472 28.8726C31.3472 29.1047 31.255 29.3272 31.0909 29.4913C30.9268 29.6554 30.7043 29.7476 30.4722 29.7476Z" fill="#0072FF"/>
<path d="M6.38386 34.7476H20.9713C21.0861 34.7476 21.1997 34.7249 21.3057 34.6809C21.4118 34.6369 21.5081 34.5724 21.5891 34.4911C21.6702 34.4099 21.7344 34.3134 21.7782 34.2073C21.8219 34.1011 21.8442 33.9874 21.8439 33.8726C21.8439 33.6412 21.752 33.4192 21.5883 33.2555C21.4247 33.0919 21.2027 33 20.9713 33H6.38386C6.15243 33 5.93048 33.0919 5.76683 33.2555C5.60318 33.4192 5.51123 33.6412 5.51123 33.8726C5.51093 33.9874 5.53328 34.1011 5.577 34.2073C5.62071 34.3134 5.68494 34.4099 5.766 34.4911C5.84707 34.5724 5.94337 34.6369 6.0494 34.6809C6.15542 34.7249 6.26907 34.7476 6.38386 34.7476Z" fill="#0072FF"/>
<path d="M42.3212 39H13.6788C11.647 39 10 40.7613 10 42.934V52.066C10 54.2387 11.647 56 13.6788 56H42.3212C44.353 56 46 54.2387 46 52.066V42.934C46 40.7613 44.353 39 42.3212 39Z" fill="#0072FF"/>
<path d="M24.4995 45.3479V44H19V45.3479H20.8876V51H22.5932V45.3479H24.4995Z" fill="white"/>
<path d="M29.4715 51L27.9922 48.8211L26.7206 51H24.777L27.0193 47.3964L24.707 44H26.7206L28.1602 46.109L29.4015 44H31.3358L29.1238 47.5244L31.4851 51H29.4715Z" fill="white"/>
<path d="M37.1807 45.3479V44H31.6836V45.3479H33.5688V51H35.2768V45.3479H37.1807Z" fill="white"/>
</svg>
