<svg width="46" height="56" viewBox="0 0 46 56" fill="none" xmlns="http://www.w3.org/2000/svg">
<path d="M32.2779 11C31.0145 10.9988 29.5 10.5 28.9097 9.99921C28.0163 9.1045 27.0012 7.76535 27 6.50004V-3.86238e-05L6.22126 4.30137e-07C5.40438 -0.000303572 4.59543 0.160536 3.84065 0.473387C3.08587 0.786238 2.40005 1.24496 1.82232 1.82331C1.24459 2.40167 0.786303 3.08834 0.473628 3.84411C0.160953 4.59988 -5.64026e-08 5.40992 0 6.22799V43.7719C-5.64026e-08 44.59 0.160953 45.4001 0.473628 46.1559C0.786303 46.9117 1.24459 47.5983 1.82232 48.1767C2.40005 48.755 3.08587 49.2137 3.84065 49.5266C4.59543 49.8394 5.40438 50.0003 6.22126 50H31.7811C32.5977 50 33.4064 49.8389 34.1609 49.5259C34.9154 49.2129 35.601 48.7542 36.1785 48.1758C36.756 47.5975 37.2141 46.9109 37.5266 46.1553C37.8391 45.3997 38 44.5898 38 43.7719V11H32.2779Z" fill="#F6E5E6"/>
<path d="M23.0911 21.3953L17.7362 18.2485C17.459 18.0858 17.1446 18.0001 16.8246 18C16.5045 17.9999 16.1901 18.0855 15.9128 18.2481C15.6356 18.4106 15.4052 18.6446 15.2449 18.9263C15.0847 19.2081 15.0003 19.5277 15 19.8532V26.1468C15.0003 26.4722 15.0847 26.7919 15.2449 27.0737C15.4052 27.3554 15.6356 27.5894 15.9128 27.7519C16.1901 27.9145 16.5045 28.0001 16.8246 28C17.1446 27.9999 17.459 27.9142 17.7362 27.7515L23.0911 24.6047C23.3676 24.4416 23.597 24.2076 23.7566 23.9259C23.9161 23.6443 24 23.325 24 23C24 22.675 23.9161 22.3557 23.7566 22.0741C23.597 21.7924 23.3676 21.5584 23.0911 21.3953Z" fill="#FF3E4C"/>
<path d="M38 11H31.9982C30.673 10.9988 29.4024 10.5132 28.4654 9.64976C27.5283 8.78632 27.0013 7.61558 27 6.39449V0L38 11Z" fill="#FF3E4C"/>
<path d="M42.3212 39H13.6788C11.6471 39 10 40.7613 10 42.934V52.066C10 54.2387 11.6471 56 13.6788 56H42.3212C44.3529 56 46 54.2387 46 52.066V42.934C46 40.7613 44.3529 39 42.3212 39Z" fill="#FF3E4C"/>
<path fill-rule="evenodd" clip-rule="evenodd" d="M33.5736 47.9574C33.8153 48.2587 33.9442 48.635 33.9381 49.0213C33.95 49.2802 33.9033 49.5384 33.8012 49.7767C33.6992 50.0149 33.5445 50.227 33.3489 50.397C32.9545 50.7271 32.3904 50.8945 31.6567 50.8945H28.4468V44H31.5765C32.2781 44 32.8207 44.1529 33.2044 44.4586C33.3962 44.6159 33.5483 44.8162 33.6482 45.0433C33.7482 45.2703 33.7933 45.5177 33.7799 45.7655C33.7944 46.1396 33.6776 46.507 33.4497 46.8041C33.2315 47.0797 32.9243 47.2709 32.5808 47.3452C32.972 47.4295 33.3225 47.6457 33.5736 47.9574ZM30.116 46.827H31.2074C31.7867 46.827 32.0763 46.5794 32.0763 46.0842C32.0763 45.5889 31.7805 45.3421 31.189 45.3436H30.116V46.827ZM32.2322 48.7874C32.2376 48.6787 32.2185 48.5702 32.1765 48.4698C32.1344 48.3694 32.0704 48.2797 31.9892 48.2073C31.7926 48.0568 31.5485 47.9819 31.3013 47.9964H30.1206V49.5463H31.3105C31.925 49.5463 32.2322 49.2934 32.2322 48.7874Z" fill="white"/>
<path d="M25.0717 45.433V46.8752H27.4012V48.134H25.0717V49.6656H27.6947V51H23.4026V44.1055H27.6947V45.433H25.0717Z" fill="white"/>
<path d="M22.6367 44.0069L20.9882 50.9014H18.9247L17.8241 46.2882L16.7121 50.9014H14.6485L13 44.0069H14.8136L15.7009 49.0007L16.9116 44.0069H18.7458L19.9564 49.0007L20.8529 44.0069H22.6367Z" fill="white"/>
<path d="M42.3986 50.9014V44.055L40.3626 44.0619L38.5398 48.831L36.6757 44.0619H34.6374V50.9083H36.3066V46.6184L37.7992 50.9083H39.2414L40.7249 46.6276V50.9014H42.3986Z" fill="white"/>
</svg>
