<svg width="46" height="56" viewBox="0 0 46 56" fill="none" xmlns="http://www.w3.org/2000/svg">
<path d="M32.2779 11C31.0145 10.9988 29.5 10.5 28.9097 9.99921C28.0163 9.1045 27.0012 7.76535 27 6.50004V-3.86238e-05L6.22126 4.30137e-07C5.40438 -0.000303572 4.59543 0.160536 3.84065 0.473387C3.08587 0.786238 2.40005 1.24496 1.82232 1.82331C1.24459 2.40167 0.786303 3.08834 0.473628 3.84411C0.160953 4.59988 -5.64026e-08 5.40992 0 6.22799V43.7719C-5.64026e-08 44.59 0.160953 45.4001 0.473628 46.1559C0.786303 46.9117 1.24459 47.5983 1.82232 48.1767C2.40005 48.755 3.08587 49.2137 3.84065 49.5266C4.59543 49.8394 5.40438 50.0003 6.22126 50H31.7811C32.5977 50 33.4064 49.8389 34.1609 49.5259C34.9154 49.2129 35.601 48.7542 36.1785 48.1758C36.756 47.5975 37.2141 46.9109 37.5266 46.1553C37.8391 45.3997 38 44.5898 38 43.7719V11H32.2779Z" fill="#DEF4E6"/>
<path d="M38 11H31.9982C30.673 10.9988 29.4024 10.5132 28.4654 9.64976C27.5283 8.78632 27.0013 7.61558 27 6.39449V0L38 11Z" fill="#00C650"/>
<path fill-rule="evenodd" clip-rule="evenodd" d="M8 20C8 17.7909 9.79086 16 12 16H27C29.2091 16 31 17.7909 31 20V31C31 33.2091 29.2091 35 27 35H12C9.79086 35 8 33.2091 8 31V20ZM23.9821 17.5H27C28.3807 17.5 29.5 18.6193 29.5 20V21.9534H23.9821V17.5ZM22.2998 17.5H16.6823V21.9534H22.2998V17.5ZM15 17.5H12C10.6193 17.5 9.5 18.6193 9.5 20V21.9534H15V17.5ZM9.5 23.6356V28H15V23.6356H9.5ZM9.5 29.6823V31C9.5 32.3807 10.6193 33.5 12 33.5H15V29.6823H9.5ZM16.6823 33.5H22.2998V29.6823H16.6823V33.5ZM23.9821 33.5H27C28.3807 33.5 29.5 32.3807 29.5 31V29.6823H23.9821V33.5ZM29.5 28V23.6356H23.9821V28H29.5ZM22.2998 28H16.6823V23.6356H22.2998V28Z" fill="#00C650"/>
<path d="M42.3212 39H13.6788C11.647 39 10 40.7613 10 42.934V52.066C10 54.2387 11.647 56 13.6788 56H42.3212C44.353 56 46 54.2387 46 52.066V42.934C46 40.7613 44.353 39 42.3212 39Z" fill="#00C650"/>
<path d="M31.1912 50.0009C30.9898 50.3151 30.7009 50.5668 30.3582 50.7266C29.941 50.9171 29.484 51.0098 29.0236 50.9973C28.329 51.0257 27.6444 50.828 27.0777 50.4354C26.827 50.252 26.6219 50.0158 26.4777 49.7445C26.3335 49.4731 26.2538 49.1735 26.2447 48.868H28.0506C28.0635 49.0985 28.1642 49.3159 28.3329 49.4777C28.5009 49.6304 28.724 49.7122 28.9536 49.7052C29.0471 49.7105 29.1408 49.6978 29.2293 49.6678C29.3178 49.6377 29.3994 49.5909 29.4692 49.53C29.5315 49.4712 29.5804 49.4003 29.613 49.322C29.6455 49.2436 29.6609 49.1595 29.6582 49.075C29.6605 48.9949 29.6462 48.915 29.6162 48.8404C29.5861 48.7657 29.5409 48.6978 29.4832 48.6406C29.3597 48.5187 29.2131 48.4213 29.0516 48.3539C28.882 48.2811 28.644 48.1924 28.3376 48.0877C27.9657 47.9682 27.6025 47.8246 27.2503 47.6578C26.9609 47.5124 26.7125 47.2999 26.527 47.039C26.3118 46.7232 26.2055 46.3486 26.2237 45.9698C26.2153 45.5945 26.3261 45.2257 26.541 44.9142C26.7617 44.6098 27.0669 44.3731 27.4207 44.2317C27.8285 44.07 28.2662 43.9926 28.7063 44.0043C29.3744 43.9683 30.0345 44.1606 30.5729 44.548C30.802 44.7298 30.9897 44.9562 31.1239 45.2127C31.2581 45.4693 31.3358 45.7504 31.3521 46.038H29.5159C29.4954 45.8367 29.4068 45.6478 29.2639 45.5012C29.1909 45.433 29.1045 45.3801 29.0098 45.3457C28.9151 45.3112 28.8142 45.296 28.7133 45.3009C28.5383 45.2932 28.3665 45.3483 28.2303 45.4557C28.1675 45.5138 28.1185 45.5846 28.0871 45.6633C28.0556 45.7419 28.0424 45.8264 28.0483 45.9107C28.0447 46.0636 28.1034 46.2116 28.2116 46.3224C28.3277 46.4406 28.4675 46.5343 28.6223 46.5977C28.7879 46.6682 29.0259 46.7592 29.3362 46.8684C29.7148 46.9886 30.0837 47.1361 30.4399 47.3097C30.7307 47.4627 30.9814 47.6791 31.1725 47.9421C31.3902 48.263 31.498 48.6429 31.4805 49.0273C31.4773 49.3715 31.3773 49.7084 31.1912 50.0009Z" fill="white"/>
<path d="M22.2852 48.7998L23.7621 50.929H25.7781L23.4168 47.5326L25.6287 44.0884H23.6945L22.4532 46.1495L21.0136 44.0884H19L21.3122 47.4075L19.07 50.929H21.0136L22.2852 48.7998Z" fill="white"/>
<path d="M36.3874 49.662H34.1148L34.1195 44.0884H32.4209V50.929H36.3874V49.662Z" fill="white"/>
</svg>
