<svg width="37" height="21" viewBox="0 0 37 21" fill="none" xmlns="http://www.w3.org/2000/svg">
<path d="M20.5356 12.573C20.3489 12.8647 20.0814 13.0985 19.7643 13.2474C19.3783 13.4243 18.9553 13.51 18.5294 13.4977C17.8878 13.5231 17.2557 13.3405 16.7311 12.9781C16.4994 12.8076 16.3098 12.5883 16.1763 12.3365C16.0428 12.0847 15.9688 11.8068 15.9598 11.5232H17.6302C17.6418 11.7369 17.7354 11.9384 17.8924 12.0873C18.0476 12.2296 18.254 12.3058 18.4665 12.2994C18.6407 12.3081 18.8116 12.2503 18.9432 12.1382C19.0003 12.0829 19.0451 12.0168 19.0749 11.9438C19.1047 11.8708 19.1189 11.7926 19.1165 11.714C19.1185 11.6398 19.1054 11.5659 19.0778 11.4967C19.0503 11.4275 19.0089 11.3644 18.9562 11.3111C18.8424 11.198 18.7069 11.1079 18.5575 11.046C18.3972 10.976 18.1784 10.8933 17.8967 10.7978C17.5529 10.6871 17.217 10.5539 16.8914 10.3991C16.6238 10.2637 16.394 10.0664 16.222 9.82439C16.024 9.53076 15.9262 9.18325 15.9425 8.8318C15.9336 8.48338 16.0358 8.14093 16.235 7.852C16.4397 7.56973 16.7212 7.34931 17.0474 7.21574C17.4249 7.06621 17.8297 6.99403 18.2369 7.00366C18.8524 6.97175 19.4602 7.14932 19.9571 7.50627C20.1693 7.67461 20.3429 7.88469 20.4668 8.1229C20.5907 8.36111 20.6621 8.62212 20.6764 8.88907H18.98C18.9591 8.70253 18.877 8.52768 18.746 8.3907C18.6783 8.32789 18.5982 8.27914 18.5107 8.24743C18.4232 8.21572 18.3301 8.20168 18.2369 8.20616C18.0749 8.19805 17.9157 8.24948 17.7906 8.35036C17.732 8.40434 17.6864 8.47044 17.6572 8.54381C17.6279 8.61718 17.6158 8.69598 17.6216 8.77453C17.6197 8.84483 17.6322 8.91481 17.6582 8.98035C17.6842 9.04589 17.7233 9.10569 17.7732 9.15629C17.8806 9.26698 18.0105 9.35439 18.1545 9.41291C18.3062 9.47865 18.5272 9.56353 18.8045 9.66533C19.1547 9.7756 19.4958 9.91171 19.825 10.0725C20.0949 10.2146 20.3271 10.4165 20.5031 10.6621C20.704 10.9594 20.8034 11.3113 20.7869 11.6674C20.7885 11.986 20.7017 12.299 20.5356 12.573Z" fill="#00C650"/>
<path d="M15.2534 9.3854C15.1234 8.70675 14.7509 8.09552 14.2026 7.66113C13.619 7.21828 12.8953 6.98946 12.1573 7.01431C11.5759 7.00183 11.0018 7.14323 10.4956 7.42362C10.0213 7.69206 9.63733 8.09004 9.39063 8.56886C9.12333 9.08949 8.98948 9.66602 9.00065 10.2486C8.98975 10.8305 9.12359 11.4062 9.39063 11.9262C9.63733 12.405 10.0213 12.803 10.4956 13.0714C11.0018 13.3518 11.5759 13.4933 12.1573 13.4808C12.8956 13.5105 13.6211 13.2853 14.2069 12.8445C14.7529 12.41 15.125 11.8009 15.2577 11.1245H13.5981C13.4844 11.4028 13.2872 11.6409 13.0326 11.8074C12.7647 11.9794 12.4495 12.0674 12.1292 12.0598C11.9183 12.0664 11.7088 12.0257 11.5165 11.9408C11.3242 11.8559 11.1543 11.729 11.0199 11.5699C10.7221 11.1956 10.5721 10.7288 10.5974 10.255C10.5723 9.77925 10.7222 9.31043 11.0199 8.93364C11.1538 8.77364 11.3235 8.64589 11.5158 8.56021C11.7081 8.47453 11.918 8.43326 12.1292 8.43952C12.4495 8.43185 12.7647 8.51987 13.0326 8.69188C13.2873 8.86186 13.4831 9.10378 13.5938 9.3854H15.2534Z" fill="#00C650"/>
<path d="M22.8775 7.08638L24.4656 11.8647L26.0537 7.08638H27.7328L25.4752 13.4362H23.4473L21.1984 7.08638H22.8775Z" fill="#00C650"/>
<path fill-rule="evenodd" clip-rule="evenodd" d="M4.16833 2C1.87589 2 0 3.87174 0 6.20259V14.7974C0 17.1283 1.87589 19 4.16833 19H32.8317C35.1241 19 37 17.1283 37 14.7974V6.20259C37 3.87174 35.1241 2 32.8317 2H4.16833ZM0.973684 6.20259C0.973684 4.44367 2.39431 3 4.16833 3H32.8317C34.6057 3 36.0263 4.44368 36.0263 6.20259V14.7974C36.0263 16.5563 34.6057 18 32.8317 18H4.16833C2.39431 18 0.973684 16.5563 0.973684 14.7974V6.20259Z" fill="#00C650"/>
</svg>
