<svg width="37" height="21" viewBox="0 0 37 21" fill="none" xmlns="http://www.w3.org/2000/svg">
<path fill-rule="evenodd" clip-rule="evenodd" d="M19.5241 7.42111C20.0198 7.69462 20.4295 8.09409 20.7092 8.57666C21.0023 9.08631 21.1518 9.66206 21.1425 10.2458C21.1525 10.8309 21.003 11.4082 20.7092 11.9191C20.4286 12.4035 20.0174 12.8045 19.5198 13.0789C19.0133 13.3599 18.4391 13.5052 17.8558 13.4999C17.2726 13.5049 16.6985 13.3596 16.1919 13.0789C15.6944 12.8051 15.2838 12.4039 15.0046 11.9191C14.7099 11.4086 14.5604 10.831 14.5713 10.2458C14.5601 9.66184 14.7097 9.08559 15.0046 8.57666C15.2852 8.09401 15.6956 7.69457 16.1919 7.42111C16.6985 7.1404 17.2726 6.99514 17.8558 7.00014C18.4404 6.9948 19.0161 7.14005 19.5241 7.42111ZM16.6209 8.91551C16.3013 9.28695 16.1387 9.76239 16.1659 10.2458C16.1386 10.7273 16.3013 11.2008 16.6209 11.5697C16.7766 11.7341 16.9674 11.8634 17.18 11.9485C17.3926 12.0336 17.6218 12.0724 17.8515 12.0622C18.0805 12.0718 18.3088 12.0327 18.5206 11.9476C18.7324 11.8625 18.9226 11.7336 19.0778 11.5697C19.3989 11.2014 19.5632 10.7278 19.5371 10.2458C19.5631 9.76447 19.4005 9.29143 19.0821 8.92183C18.9265 8.75734 18.7357 8.628 18.5231 8.5429C18.3105 8.45781 18.0812 8.419 17.8515 8.42929C17.6224 8.41906 17.3937 8.45726 17.1813 8.54121C16.9688 8.62515 16.7776 8.75284 16.6209 8.91551Z" fill="#0072FF"/>
<path fill-rule="evenodd" clip-rule="evenodd" d="M12.2725 13.0305C12.7701 12.7759 13.1798 12.3851 13.4511 11.9065C13.7308 11.3988 13.8717 10.83 13.8606 10.2543C13.8723 9.68051 13.7312 9.11353 13.4511 8.60828C13.1809 8.13352 12.7724 7.74688 12.2768 7.49692C11.7139 7.22335 11.0905 7.08822 10.4612 7.10334H8V13.4326H10.4612C11.09 13.4469 11.7125 13.3088 12.2725 13.0305ZM12.1575 10.9739C12.0694 11.2037 11.933 11.4131 11.7569 11.5887C11.3619 11.9229 10.8475 12.0929 10.3247 12.0623H9.57944V8.4462H10.3226C10.8466 8.41466 11.3621 8.58565 11.7569 8.9219C11.933 9.09705 12.0695 9.30606 12.1576 9.53552C12.2457 9.76498 12.2833 10.0098 12.2682 10.2543C12.2832 10.499 12.2455 10.7441 12.1575 10.9739Z" fill="#0072FF"/>
<path d="M27.0616 7.67584C27.6111 8.11021 27.9849 8.7193 28.1168 9.39548H26.4485C26.3359 9.11524 26.1388 8.87459 25.883 8.70509C25.6134 8.53453 25.2969 8.44722 24.9752 8.45462C24.7628 8.44801 24.5517 8.489 24.3582 8.57441C24.1647 8.65982 23.994 8.78738 23.8594 8.94717C23.5577 9.32205 23.404 9.78943 23.4261 10.2648C23.4041 10.7382 23.5578 11.2036 23.8594 11.5761C23.9951 11.7343 24.1661 11.8603 24.3595 11.9445C24.5528 12.0288 24.7634 12.069 24.9752 12.0623C25.297 12.0706 25.6138 11.9832 25.883 11.8118C26.1374 11.6454 26.3344 11.4085 26.4485 11.132H28.1168C27.9827 11.8062 27.6092 12.4133 27.0616 12.8474C26.4723 13.2846 25.7442 13.5079 25.0034 13.4789C24.4196 13.4908 23.8434 13.3498 23.3351 13.0705C22.8595 12.8019 22.4736 12.4059 22.2237 11.9297C21.9551 11.4074 21.8213 10.8295 21.8337 10.2458C21.8214 9.66216 21.9553 9.08431 22.2237 8.56197C22.4736 8.08582 22.8595 7.68976 23.3351 7.42117C23.8434 7.14193 24.4196 7.00084 25.0034 7.01279C25.7481 6.99364 26.4762 7.22822 27.0616 7.67584Z" fill="#0072FF"/>
<path fill-rule="evenodd" clip-rule="evenodd" d="M4.16833 2C1.87589 2 0 3.87174 0 6.20259V14.7974C0 17.1283 1.87589 19 4.16833 19H32.8317C35.1241 19 37 17.1283 37 14.7974V6.20259C37 3.87174 35.1241 2 32.8317 2H4.16833ZM0.973684 6.20259C0.973684 4.44367 2.39431 3 4.16833 3H32.8317C34.6057 3 36.0263 4.44368 36.0263 6.20259V14.7974C36.0263 16.5563 34.6057 18 32.8317 18H4.16833C2.39431 18 0.973684 16.5563 0.973684 14.7974V6.20259Z" fill="#0072FF"/>
</svg>
