<svg width="37" height="21" viewBox="0 0 37 21" fill="none" xmlns="http://www.w3.org/2000/svg">
<path fill-rule="evenodd" clip-rule="evenodd" d="M4.16833 3C2.39431 3 0.973684 4.44367 0.973684 6.20259V14.7974C0.973684 16.5563 2.39431 18 4.16833 18H32.8317C34.6057 18 36.0263 16.5563 36.0263 14.7974V6.20259C36.0263 4.44368 34.6057 3 32.8317 3H4.16833ZM0 6.20259C0 3.87174 1.87589 2 4.16833 2H32.8317C35.1241 2 37 3.87174 37 6.20259V14.7974C37 17.1283 35.1241 19 32.8317 19H4.16833C1.87589 19 0 17.1283 0 14.7974V6.20259Z" fill="#FF9908"/>
<path d="M25.3974 13.7266C25.7411 13.5681 26.0304 13.3159 26.2304 13.0005C26.4214 12.6982 26.521 12.3494 26.5174 11.9943C26.5345 11.6104 26.4267 11.2312 26.2094 10.9107C26.0189 10.6457 25.7671 10.4282 25.4744 10.2756C25.1194 10.1018 24.7512 9.9549 24.3731 9.83627C24.0628 9.727 23.8248 9.63593 23.6591 9.56536C23.5039 9.50041 23.3636 9.40601 23.2461 9.28765C23.1924 9.23333 23.1503 9.16912 23.1222 9.09878C23.0942 9.02843 23.0808 8.95334 23.0828 8.87789C23.0765 8.79337 23.0898 8.70856 23.1217 8.62974C23.1536 8.55093 23.2033 8.48014 23.2671 8.42261C23.4019 8.31432 23.5733 8.25913 23.7478 8.26783C23.8485 8.26271 23.9493 8.27761 24.0439 8.31165C24.1386 8.3457 24.2252 8.39818 24.2984 8.46588C24.4413 8.61265 24.53 8.80168 24.5504 9.0031H26.3868C26.3676 8.72128 26.2888 8.44638 26.1555 8.19567C26.0222 7.94495 25.8372 7.72383 25.6121 7.5462C25.0734 7.15939 24.4133 6.96782 23.7454 7.00442C23.3055 6.99384 22.8679 7.07132 22.4598 7.23206C22.1068 7.37376 21.8024 7.61065 21.5824 7.91498C21.3663 8.22528 21.2553 8.5939 21.2651 8.96895C21.2474 9.34762 21.3527 9.7221 21.5661 10.0389C21.7524 10.3007 22.0015 10.514 22.2918 10.6603C22.6438 10.8276 23.0071 10.9714 23.3791 11.0906C23.6824 11.1938 23.9204 11.2825 24.0931 11.3569C24.2547 11.4233 24.4014 11.5199 24.5248 11.6414C24.5819 11.6995 24.6265 11.768 24.6562 11.843C24.6858 11.9181 24.6998 11.9981 24.6974 12.0785C24.7001 12.1631 24.6847 12.2472 24.6522 12.3256C24.6196 12.404 24.5707 12.4749 24.5084 12.5338C24.3668 12.6557 24.1813 12.718 23.9928 12.7068C23.7633 12.7131 23.5405 12.6313 23.3721 12.4792C23.2052 12.316 23.1048 12.0991 23.0898 11.8691H21.2838C21.2939 12.1746 21.374 12.474 21.5181 12.7454C21.6622 13.0168 21.8668 13.2533 22.1168 13.4375C22.6846 13.828 23.3686 14.0248 24.0628 13.9975C24.5234 14.0113 24.9807 13.9185 25.3974 13.7266Z" fill="#FF9908"/>
<path d="M11.6987 9.83396V8.4021H14.368V7.08634H10V13.9315H14.368V12.6043H11.6987V11.0837H14.0693V9.83396H11.6987Z" fill="#FF9908"/>
<path fill-rule="evenodd" clip-rule="evenodd" d="M17.0278 11.5299V13.9315H15.3291V7.08634H18.0778C18.9131 7.08634 19.5486 7.28743 19.9841 7.68959C20.2049 7.90141 20.3773 8.15624 20.4903 8.43748C20.6033 8.71871 20.6542 9.02004 20.6398 9.32178C20.6471 9.71991 20.5456 10.1128 20.3458 10.46C20.1438 10.8003 19.8413 11.0732 19.4778 11.243C19.0412 11.4462 18.5612 11.5445 18.0778 11.5299H17.0278ZM18.9131 9.32178C18.9131 8.71474 18.5724 8.41122 17.8911 8.41122H17.0278V10.1936H17.8911C18.5771 10.1997 18.9201 9.90909 18.9201 9.32178H18.9131Z" fill="#FF9908"/>
</svg>
