<svg width="37" height="21" viewBox="0 0 37 21" fill="none" xmlns="http://www.w3.org/2000/svg">
<path fill-rule="evenodd" clip-rule="evenodd" d="M4.16833 3C2.39431 3 0.973684 4.44367 0.973684 6.20259V14.7974C0.973684 16.5563 2.39431 18 4.16833 18H32.8317C34.6057 18 36.0263 16.5563 36.0263 14.7974V6.20259C36.0263 4.44368 34.6057 3 32.8317 3H4.16833ZM0 6.20259C0 3.87174 1.87589 2 4.16833 2H32.8317C35.1241 2 37 3.87174 37 6.20259V14.7974C37 17.1283 35.1241 19 32.8317 19H4.16833C1.87589 19 0 17.1283 0 14.7974V6.20259Z" fill="#FF9908"/>
<path d="M27.2209 9.17248C27.1126 8.54072 26.7596 7.97372 26.235 7.58874C25.6432 7.17828 24.928 6.97217 24.2027 7.00302C23.606 6.98975 23.0163 7.13054 22.4932 7.41113C22.0098 7.67898 21.6162 8.07776 21.36 8.55928C21.0861 9.07867 20.9484 9.65625 20.9592 10.2403C20.9466 10.8279 21.0843 11.4093 21.36 11.9319C21.6166 12.4145 22.012 12.8135 22.4975 13.08C23.0284 13.3628 23.6263 13.5036 24.2309 13.4882C24.7279 13.4968 25.2204 13.3956 25.6717 13.1921C26.0708 13.0103 26.4249 12.7463 26.7095 12.4182C26.9724 12.1138 27.1725 11.7627 27.2989 11.3842V9.86392H23.9904V10.9698H25.9816C25.8849 11.3131 25.6737 11.6152 25.3814 11.8283C25.0951 12.0308 24.7491 12.1369 24.3955 12.1306C24.1483 12.1458 23.9004 12.1104 23.668 12.0266C23.4356 11.9429 23.2236 11.8127 23.0457 11.6443C22.7294 11.3201 22.5712 10.8556 22.5712 10.2509C22.5444 9.76889 22.7063 9.29497 23.024 8.92508C23.1743 8.76266 23.3593 8.63451 23.566 8.54973C23.7727 8.46495 23.996 8.42563 24.22 8.43453C24.5086 8.42887 24.7931 8.50212 25.0412 8.64598C25.2616 8.76787 25.4397 8.95121 25.5526 9.17248H27.2209Z" fill="#FF9908"/>
<path d="M14.4244 11.4201V7.07699L12.8492 7.08122V11.4244C12.8492 11.879 12.6499 12.1074 12.249 12.1074C11.7897 12.1074 11.5579 11.8113 11.5579 11.2172H10.0001C10.0015 11.9516 10.2109 12.5155 10.6284 12.9088C10.857 13.1111 11.1245 13.2673 11.4153 13.3682C11.7061 13.4691 12.0145 13.5127 12.3227 13.4966C12.6041 13.5125 12.886 13.473 13.1514 13.3803C13.4168 13.2877 13.6603 13.1439 13.8675 12.9574C14.2388 12.5993 14.4244 12.0869 14.4244 11.4201Z" fill="#FF9908"/>
<path fill-rule="evenodd" clip-rule="evenodd" d="M17.0374 11.2045V13.4353H15.4622V7.07699H18.0146C18.7873 7.07699 19.3767 7.26378 19.7826 7.63733C19.988 7.83377 20.1484 8.07043 20.2533 8.33174C20.3583 8.59305 20.4054 8.8731 20.3914 9.15343C20.3973 9.52288 20.3039 9.8874 20.1206 10.2107C19.9319 10.5259 19.6513 10.7791 19.3146 10.938C18.9089 11.1259 18.4634 11.2173 18.0146 11.2045H17.0374ZM18.788 9.15343C18.788 8.58957 18.4717 8.30764 17.8391 8.30764H17.0374V9.96327H17.8391C18.4717 9.9689 18.788 9.69897 18.788 9.15343Z" fill="#FF9908"/>
</svg>
