<svg width="37" height="22" viewBox="0 0 37 22" fill="none" xmlns="http://www.w3.org/2000/svg">
<path fill-rule="evenodd" clip-rule="evenodd" d="M4.16833 3.5C2.39431 3.5 0.973684 4.94367 0.973684 6.70259V15.2974C0.973684 17.0563 2.39431 18.5 4.16833 18.5H32.8317C34.6057 18.5 36.0263 17.0563 36.0263 15.2974V6.70259C36.0263 4.94368 34.6057 3.5 32.8317 3.5H4.16833ZM0 6.70259C0 4.37174 1.87589 2.5 4.16833 2.5H32.8317C35.1241 2.5 37 4.37174 37 6.70259V15.2974C37 17.6283 35.1241 19.5 32.8317 19.5H4.16833C1.87589 19.5 0 17.6283 0 15.2974V6.70259Z" fill="#0072FF"/>
<path fill-rule="evenodd" clip-rule="evenodd" d="M21.196 7.95292C21.7299 8.24708 22.1711 8.67672 22.4724 9.19574C22.788 9.74388 22.949 10.3631 22.939 10.9909C22.9511 11.624 22.7901 12.2489 22.4724 12.802C22.1701 13.3224 21.7272 13.7529 21.1914 14.0471C20.6459 14.3493 20.0275 14.5056 19.3994 14.4998C18.7714 14.5049 18.1531 14.3487 17.6074 14.0471C17.0722 13.7528 16.6301 13.3223 16.3287 12.802C16.01 12.2493 15.8489 11.6241 15.8621 10.9909C15.85 10.3629 16.0111 9.74311 16.3287 9.19574C16.6316 8.67712 17.0734 8.24766 17.6074 7.95292C18.1531 7.6513 18.7714 7.4951 19.3994 7.50015C20.029 7.49441 20.6489 7.65063 21.196 7.95292ZM18.0694 9.56248C17.7241 9.96048 17.5488 10.4716 17.5794 10.9909C17.5512 11.5093 17.7263 12.0188 18.0694 12.4171C18.2371 12.5939 18.4426 12.733 18.6715 12.8245C18.9005 12.916 19.1473 12.9578 19.3947 12.9469C19.6413 12.9571 19.8872 12.915 20.1153 12.8235C20.3434 12.732 20.5482 12.5933 20.7154 12.4171C21.0626 12.0207 21.2405 11.5105 21.2124 10.9909C21.2398 10.473 21.0638 9.96419 20.72 9.56701C20.5525 9.39009 20.3469 9.25096 20.118 9.15943C19.889 9.06791 19.6421 9.02621 19.3947 9.03727C19.1477 9.02611 18.9012 9.0673 18.6723 9.15801C18.4434 9.24871 18.2377 9.38675 18.0694 9.56248Z" fill="#0072FF"/>
<path d="M14.889 14.4184V7.66089L12.8357 7.66769L10.969 12.3741L9.07437 7.66769H7V14.4252H8.69634V10.1896L10.2153 14.4252H11.683L13.1927 10.1986V14.4184H14.889Z" fill="#0072FF"/>
<path d="M26.9198 12.7341L25.2002 7.61109H23.3872L25.8185 14.4184H28.0118L30.4525 7.61109H28.6372L26.9198 12.7341Z" fill="#0072FF"/>
</svg>
