<svg width="37" height="22" viewBox="0 0 37 22" fill="none" xmlns="http://www.w3.org/2000/svg">
<path fill-rule="evenodd" clip-rule="evenodd" d="M4.16833 3.5C2.39431 3.5 0.973684 4.94367 0.973684 6.70259V15.2974C0.973684 17.0563 2.39431 18.5 4.16833 18.5H32.8317C34.6057 18.5 36.0263 17.0563 36.0263 15.2974V6.70259C36.0263 4.94368 34.6057 3.5 32.8317 3.5H4.16833ZM0 6.70259C0 4.37174 1.87589 2.5 4.16833 2.5H32.8317C35.1241 2.5 37 4.37174 37 6.70259V15.2974C37 17.6283 35.1241 19.5 32.8317 19.5H4.16833C1.87589 19.5 0 17.6283 0 15.2974V6.70259Z" fill="#00C650"/>
<path d="M27.2736 8.34029C27.0951 8.07093 26.8367 7.85723 26.5305 7.72587C26.1676 7.5695 25.7721 7.49249 25.3735 7.50058C24.6541 7.50058 24.0951 7.67467 23.6965 8.02284C23.4872 8.21867 23.3217 8.45234 23.2101 8.70992C23.0984 8.96749 23.0428 9.24369 23.0465 9.52204H24.587C24.5913 9.31432 24.6674 9.11366 24.8036 8.95063C24.869 8.88124 24.9501 8.82676 25.0409 8.79129C25.1317 8.75581 25.2299 8.74027 25.328 8.74582C25.4165 8.74151 25.505 8.75436 25.5881 8.78359C25.6712 8.81283 25.7471 8.85782 25.8111 8.91581C25.8743 8.98056 25.9229 9.05683 25.9538 9.13994C25.9847 9.22305 25.9974 9.31126 25.991 9.39916C25.991 9.87978 25.6443 10.1153 24.951 10.1057H24.665V11.3162H24.9596C25.7339 11.3148 26.121 11.5674 26.121 12.074C26.1247 12.165 26.1089 12.2558 26.0747 12.341C26.0404 12.4261 25.9884 12.5039 25.9216 12.5696C25.8512 12.6353 25.767 12.6863 25.6745 12.7195C25.5819 12.7526 25.4831 12.7672 25.3843 12.7621C25.2643 12.7707 25.1437 12.754 25.0313 12.7133C24.919 12.6726 24.8175 12.6088 24.7343 12.5266C24.577 12.3446 24.4919 12.1164 24.4938 11.8814H22.9555C22.9923 12.5962 23.2328 13.1287 23.6705 13.4769C24.1081 13.8251 24.704 13.9992 25.4536 13.9992C25.8616 14.0091 26.2664 13.9299 26.6366 13.7677C26.9493 13.6278 27.211 13.4033 27.3885 13.1226C27.5633 12.8358 27.6524 12.5094 27.6463 12.1784C27.6477 11.4397 27.2267 10.9434 26.3831 10.6895V10.6444C26.7034 10.5843 26.992 10.4216 27.2 10.1836C27.4281 9.90886 27.5443 9.56577 27.5271 9.21688C27.5318 8.90793 27.4439 8.60405 27.2736 8.34029Z" fill="#00C650"/>
<path fill-rule="evenodd" clip-rule="evenodd" d="M18.9928 11.7708V13.9316H17.4176V7.77296H19.9699C20.7434 7.77296 21.3349 7.95524 21.7401 8.31775C21.9449 8.50788 22.1049 8.73684 22.2095 8.98958C22.314 9.24233 22.3608 9.51313 22.3468 9.78418C22.3545 10.1422 22.261 10.4958 22.0759 10.8082C21.8868 11.1137 21.6064 11.3595 21.2699 11.5148C20.8638 11.6952 20.4185 11.7828 19.9699 11.7708H18.9928ZM20.7434 9.78418C20.7434 9.24622 20.4271 8.97655 19.7944 8.97518H18.9928V10.5788H19.7944C20.4271 10.5788 20.7434 10.314 20.7434 9.78418Z" fill="#00C650"/>
<path d="M16.33 13.9315V7.81592L14.419 7.82207L12.6856 12.0821L10.9263 7.82207H9.00014V13.9377H10.5796V10.1057L11.9901 13.9377H13.353L14.7548 10.1139V13.9315H16.33Z" fill="#00C650"/>
</svg>
