<svg width="37" height="22" viewBox="0 0 37 22" fill="none" xmlns="http://www.w3.org/2000/svg">
<path fill-rule="evenodd" clip-rule="evenodd" d="M4.16833 3.5C2.39431 3.5 0.973684 4.94367 0.973684 6.70259V15.2974C0.973684 17.0563 2.39431 18.5 4.16833 18.5H32.8317C34.6057 18.5 36.0263 17.0563 36.0263 15.2974V6.70259C36.0263 4.94368 34.6057 3.5 32.8317 3.5H4.16833ZM0 6.70259C0 4.37174 1.87589 2.5 4.16833 2.5H32.8317C35.1241 2.5 37 4.37174 37 6.70259V15.2974C37 17.6283 35.1241 19.5 32.8317 19.5H4.16833C1.87589 19.5 0 17.6283 0 15.2974V6.70259Z" fill="#00C650"/>
<path d="M31.1225 9.66468C31.0148 9.03151 30.6618 8.46325 30.1367 8.078C29.5427 7.67083 28.8268 7.46882 28.1022 7.50391C27.5055 7.49061 26.9158 7.63165 26.3927 7.91276C25.9099 8.18092 25.5164 8.5796 25.2596 9.06094C24.9845 9.58468 24.8467 10.167 24.8587 10.7557C24.8481 11.3408 24.9859 11.9194 25.2596 12.4398C25.5162 12.9227 25.9115 13.3218 26.3971 13.588C26.9277 13.872 27.5257 14.0138 28.1304 13.9989C28.6274 14.0076 29.1199 13.9062 29.5712 13.7024C29.97 13.5197 30.324 13.2553 30.609 12.927C30.871 12.6215 31.071 12.2699 31.1984 11.8911V10.3595H27.9072V11.4674H29.8984C29.7974 11.8037 29.5866 12.0983 29.2982 12.3063C29.0119 12.5092 28.6659 12.6156 28.3124 12.6093C28.0651 12.6245 27.8173 12.5889 27.5848 12.505C27.3524 12.4211 27.1404 12.2907 26.9625 12.122C26.6462 11.7972 26.488 11.3319 26.488 10.726C26.4622 10.243 26.6231 9.76811 26.9387 9.39564C27.0899 9.2336 27.2754 9.10584 27.4824 9.02131C27.6894 8.93678 27.9128 8.89752 28.1369 8.90629C28.4255 8.90051 28.7099 8.9739 28.958 9.11813C29.1791 9.24669 29.3557 9.43706 29.465 9.66468H31.1225Z" fill="#00C650"/>
<path fill-rule="evenodd" clip-rule="evenodd" d="M15.9908 13.9333V11.7005H16.968C17.4168 11.7133 17.8623 11.6219 18.268 11.4336C18.6043 11.2737 18.8847 11.0202 19.074 10.7049C19.2573 10.381 19.3507 10.0158 19.3448 9.64568C19.3592 9.36478 19.3123 9.0841 19.2074 8.82225C19.1024 8.56039 18.9417 8.32332 18.736 8.12677C18.3301 7.75111 17.7407 7.56328 16.968 7.56328H14.4156V13.9333H15.9908ZM16.7925 8.79832C17.4251 8.79832 17.7414 9.08077 17.7414 9.64568C17.7414 10.1922 17.4251 10.4627 16.7925 10.457H15.9908V8.79832H16.7925Z" fill="#00C650"/>
<path d="M13.3277 7.60988V13.9333H11.7503V9.98462L10.3507 13.9397H8.98567L7.57734 9.97615V13.9397H6V7.61625H7.9262L9.68767 12.0204L11.421 7.61625L13.3277 7.60988Z" fill="#00C650"/>
<path d="M21.6954 8.78983V10.1223H23.8967V11.2853H21.6954V12.7004H24.1741V13.9333H20.1181V7.56328H24.1741V8.78983H21.6954Z" fill="#00C650"/>
</svg>
