<svg width="37" height="22" viewBox="0 0 37 22" fill="none" xmlns="http://www.w3.org/2000/svg">
<path fill-rule="evenodd" clip-rule="evenodd" d="M4.16833 3.5C2.39431 3.5 0.973684 4.94367 0.973684 6.70259V15.2974C0.973684 17.0563 2.39431 18.5 4.16833 18.5H32.8317C34.6057 18.5 36.0263 17.0563 36.0263 15.2974V6.70259C36.0263 4.94368 34.6057 3.5 32.8317 3.5H4.16833ZM0 6.70259C0 4.37174 1.87589 2.5 4.16833 2.5H32.8317C35.1241 2.5 37 4.37174 37 6.70259V15.2974C37 17.6283 35.1241 19.5 32.8317 19.5H4.16833C1.87589 19.5 0 17.6283 0 15.2974V6.70259Z" fill="#FF9908"/>
<path d="M20.2098 8.07081C20.7168 8.45127 21.0577 9.01246 21.1616 9.63775H19.5612C19.4557 9.41296 19.2851 9.22496 19.0717 9.098C18.8321 8.95556 18.5575 8.88309 18.2788 8.88879C18.0624 8.88013 17.8467 8.91891 17.6469 9.00239C17.447 9.08587 17.2679 9.21203 17.1219 9.37206C16.8172 9.73989 16.6619 10.2089 16.6868 10.6859C16.6868 11.2842 16.8395 11.7438 17.1449 12.0645C17.3167 12.2311 17.5213 12.3599 17.7458 12.4428C17.9702 12.5256 18.2095 12.5607 18.4483 12.5457C18.7896 12.5519 19.1237 12.4469 19.4002 12.2465C19.6786 12.0411 19.8822 11.7501 19.9797 11.4181H18.0571V10.324H21.2349V11.8365C21.1119 12.2106 20.9188 12.5578 20.6659 12.8595C20.3906 13.1837 20.0488 13.4448 19.6638 13.6252C19.228 13.8265 18.7525 13.9266 18.2726 13.9181C17.6887 13.9328 17.1112 13.7927 16.5989 13.5122C16.1301 13.2494 15.7484 12.8553 15.5006 12.3783C15.2363 11.8644 15.1033 11.293 15.1135 10.7152C15.102 10.1338 15.235 9.55874 15.5006 9.04152C15.7486 8.56617 16.1285 8.17245 16.5947 7.90762C17.0998 7.63001 17.6692 7.49073 18.2453 7.50386C18.945 7.46921 19.6362 7.6687 20.2098 8.07081Z" fill="#FF9908"/>
<path fill-rule="evenodd" clip-rule="evenodd" d="M13.9274 9.06499C13.6566 8.58644 13.2611 8.19024 12.783 7.91855C12.2925 7.6392 11.7367 7.49483 11.1722 7.50014C10.609 7.49517 10.0547 7.63954 9.56547 7.91855C9.08677 8.19011 8.69059 8.58629 8.41903 9.06499C8.13415 9.57155 7.9897 10.145 8.00062 10.7261C7.98817 11.3113 8.13264 11.8892 8.41903 12.3997C8.68918 12.8811 9.08556 13.2797 9.56547 13.5525C10.0547 13.8315 10.609 13.9758 11.1722 13.9709C11.7353 13.9761 12.2898 13.8317 12.7789 13.5525C13.2589 13.2791 13.6558 12.8808 13.9274 12.3997C14.2128 11.8888 14.3572 11.3112 14.3458 10.7261C14.3548 10.1452 14.2105 9.57226 13.9274 9.06499ZM9.54037 10.7261C9.51386 10.2456 9.67089 9.77297 9.9797 9.4039H9.98388C10.1347 9.2425 10.3185 9.11559 10.5229 9.03182C10.7272 8.94805 10.9473 8.90941 11.168 8.91856C11.3898 8.90833 11.6111 8.94688 11.8164 9.03146C12.0218 9.11604 12.206 9.24459 12.3563 9.40809C12.6639 9.77619 12.8208 10.247 12.7956 10.7261C12.8208 11.2052 12.6622 11.6759 12.3521 12.042C12.202 12.2046 12.0184 12.3326 11.8139 12.4171C11.6095 12.5017 11.3891 12.5407 11.168 12.5315C10.9462 12.5416 10.7249 12.503 10.5196 12.4184C10.3143 12.3339 10.13 12.2054 9.9797 12.042C9.67241 11.6745 9.51547 11.2045 9.54037 10.7261Z" fill="#FF9908"/>
<path d="M24.9748 12.4435L23.4329 7.70921H21.8074L23.9873 14H25.9538L28.1421 7.70921H26.5145L24.9748 12.4435Z" fill="#FF9908"/>
</svg>
