<svg width="37" height="21" viewBox="0 0 37 21" fill="none" xmlns="http://www.w3.org/2000/svg">
<path fill-rule="evenodd" clip-rule="evenodd" d="M4.16833 3C2.39431 3 0.973684 4.44367 0.973684 6.20259V14.7974C0.973684 16.5563 2.39431 18 4.16833 18H32.8317C34.6057 18 36.0263 16.5563 36.0263 14.7974V6.20259C36.0263 4.44368 34.6057 3 32.8317 3H4.16833ZM0 6.20259C0 3.87174 1.87589 2 4.16833 2H32.8317C35.1241 2 37 3.87174 37 6.20259V14.7974C37 17.1283 35.1241 19 32.8317 19H4.16833C1.87589 19 0 17.1283 0 14.7974V6.20259Z" fill="#005FAD"/>
<path d="M27.6334 9.16462C27.5266 8.53113 27.1733 7.96257 26.6475 7.57791C26.0557 7.17121 25.3421 6.96918 24.6195 7.00381C24.0228 6.99002 23.4329 7.13109 22.91 7.41267C22.4267 7.68026 22.0331 8.07909 21.7769 8.56087C21.5008 9.08427 21.3631 9.66686 21.3761 10.2556C21.3645 10.8408 21.5022 11.4197 21.7769 11.9398C22.0335 12.4227 22.4289 12.8218 22.9144 13.088C23.4449 13.3721 24.043 13.5139 24.6477 13.4989C25.1454 13.5078 25.6387 13.4064 26.0907 13.2023C26.4894 13.0204 26.8428 12.7558 27.1264 12.427C27.389 12.1215 27.5897 11.77 27.7179 11.3911V9.83827H24.4094V10.9462H26.3984C26.3026 11.29 26.0921 11.5927 25.8004 11.8063C25.514 12.0089 25.168 12.1152 24.8146 12.1092C24.5672 12.1246 24.3194 12.0891 24.0869 12.0052C23.8545 11.9213 23.6425 11.7908 23.4647 11.622C23.1484 11.2972 22.9902 10.8318 22.9902 10.226C22.9633 9.74278 23.1243 9.26753 23.4409 8.89557C23.5918 8.7333 23.7774 8.60538 23.9844 8.52082C24.1914 8.43627 24.4149 8.39715 24.6391 8.40621C24.9276 8.40077 25.212 8.47413 25.4602 8.61806C25.68 8.74754 25.8556 8.93771 25.9651 9.16462H27.6334Z" fill="#005FAD"/>
<path fill-rule="evenodd" clip-rule="evenodd" d="M10.5773 13.4333V11.2005H11.5523C12.0012 11.2141 12.447 11.1226 12.8523 10.9335C13.1895 10.7748 13.4702 10.521 13.6583 10.2048C13.8439 9.8817 13.9381 9.5161 13.9313 9.14559C13.9451 8.86475 13.898 8.58423 13.7931 8.32245C13.6882 8.06067 13.5278 7.82355 13.3225 7.62667C12.9181 7.251 12.328 7.06317 11.5523 7.06317H9V13.4333H10.5773ZM11.379 8.29822C12.0117 8.29822 12.328 8.58068 12.328 9.14559C12.328 9.69215 12.0117 9.96259 11.379 9.95694H10.5773V8.29822H11.379Z" fill="#005FAD"/>
<path d="M20.4923 13.4333H18.9171L16.2781 9.52267V13.4333H14.7029V7.06317H16.2781L18.9149 11.0098V7.06317H20.4901L20.4923 13.4333Z" fill="#005FAD"/>
</svg>
