<svg width="37" height="21" viewBox="0 0 37 21" fill="none" xmlns="http://www.w3.org/2000/svg">
<path fill-rule="evenodd" clip-rule="evenodd" d="M4.16833 3C2.39431 3 0.973684 4.44367 0.973684 6.20259V14.7974C0.973684 16.5563 2.39431 18 4.16833 18H32.8317C34.6057 18 36.0263 16.5563 36.0263 14.7974V6.20259C36.0263 4.44368 34.6057 3 32.8317 3H4.16833ZM0 6.20259C0 3.87174 1.87589 2 4.16833 2H32.8317C35.1241 2 37 3.87174 37 6.20259V14.7974C37 17.1283 35.1241 19 32.8317 19H4.16833C1.87589 19 0 17.1283 0 14.7974V6.20259Z" fill="#FF3E4C"/>
<path fill-rule="evenodd" clip-rule="evenodd" d="M27.3152 11.6806C27.3205 11.3212 27.1987 10.9713 26.9707 10.691C26.7345 10.3988 26.403 10.1964 26.0326 10.1182C26.3569 10.0481 26.6469 9.87005 26.8537 9.61386C27.0681 9.33641 27.1783 8.99427 27.1657 8.64568C27.1793 8.41465 27.1371 8.18373 27.0425 7.97194C26.948 7.76015 26.8038 7.57356 26.6219 7.42745C26.2594 7.14248 25.7466 7 25.0836 7H22.1263V13.4267H25.1595C25.8528 13.4267 26.3857 13.2721 26.7584 12.9629C26.9434 12.8046 27.0896 12.6069 27.1861 12.3848C27.2825 12.1627 27.3267 11.9219 27.3152 11.6806ZM24.7348 9.63525H23.7035V8.25454H24.7175C25.2765 8.25454 25.556 8.48322 25.556 8.94487C25.556 9.40652 25.283 9.63525 24.7348 9.63525ZM25.6502 11.1667C25.6899 11.2602 25.708 11.3613 25.7033 11.4626C25.7018 11.9356 25.4115 12.1721 24.8323 12.1721H23.7079V10.7274H24.8236C25.0569 10.7132 25.2876 10.7822 25.4736 10.9218C25.5501 10.9895 25.6104 11.0732 25.6502 11.1667Z" fill="#FF3E4C"/>
<path fill-rule="evenodd" clip-rule="evenodd" d="M11.5772 13.4352V11.1805L12.5522 11.1826C13.0009 11.197 13.4466 11.1054 13.8521 10.9155C14.1894 10.7546 14.4701 10.4977 14.6581 10.1781C14.844 9.8522 14.9382 9.48328 14.9311 9.10944C14.9449 8.8261 14.8978 8.54312 14.7929 8.27901C14.6879 8.0149 14.5276 7.77567 14.3223 7.57704C13.9178 7.19804 13.3285 7.00855 12.5543 7.00855H9.99996V13.4352H11.5772ZM12.3789 8.25454C13.0115 8.25454 13.3278 8.53951 13.3278 9.10944C13.3278 9.66085 13.0115 9.93372 12.3789 9.92802H11.5772V8.25454H12.3789Z" fill="#FF3E4C"/>
<path d="M17.2342 7.00855V10.7167C17.2104 11.0652 17.3133 11.4108 17.5245 11.6913C17.6304 11.8061 17.7612 11.8959 17.9071 11.954C18.053 12.0121 18.2103 12.037 18.3673 12.0268C18.5247 12.0372 18.6824 12.0123 18.8287 11.9542C18.975 11.8961 19.1061 11.8063 19.2123 11.6913C19.4235 11.4108 19.5265 11.0652 19.5026 10.7167V7.00855H21.0777V10.7167C21.096 11.2497 20.972 11.7782 20.7181 12.2491C20.492 12.6501 20.1504 12.9758 19.7366 13.1852C19.3003 13.3999 18.818 13.5076 18.3305 13.4994C17.851 13.5093 17.3763 13.4029 16.9482 13.1895C16.545 12.9805 16.2173 12.6535 16.0101 12.2534C15.7684 11.7772 15.6507 11.249 15.6678 10.7167V7.00855H17.2342Z" fill="#FF3E4C"/>
</svg>
