<svg width="37" height="21" viewBox="0 0 37 21" fill="none" xmlns="http://www.w3.org/2000/svg">
<path fill-rule="evenodd" clip-rule="evenodd" d="M4.16833 3C2.39431 3 0.973684 4.44367 0.973684 6.20259V14.7974C0.973684 16.5563 2.39431 18 4.16833 18H32.8317C34.6057 18 36.0263 16.5563 36.0263 14.7974V6.20259C36.0263 4.44368 34.6057 3 32.8317 3H4.16833ZM0 6.20259C0 3.87174 1.87589 2 4.16833 2H32.8317C35.1241 2 37 3.87174 37 6.20259V14.7974C37 17.1283 35.1241 19 32.8317 19H4.16833C1.87589 19 0 17.1283 0 14.7974V6.20259Z" fill="#FF9908"/>
<path d="M27.5073 9.18342C27.3982 8.55285 27.0445 7.98718 26.5193 7.6033C25.9319 7.18826 25.2187 6.97661 24.4935 7.00205C23.8967 6.98831 23.3068 7.12879 22.784 7.4092C22.3005 7.67644 21.9069 8.07433 21.6508 8.55475C21.3768 9.07295 21.2391 9.64918 21.25 10.2319C21.2373 10.8182 21.3751 11.3983 21.6508 11.9196C21.9074 12.4011 22.3027 12.7993 22.7883 13.0652C23.3191 13.3473 23.9171 13.4878 24.5216 13.4723C25.0186 13.4809 25.5112 13.38 25.9625 13.177C26.3613 12.9951 26.7152 12.7317 27.0003 12.4048C27.2624 12.1006 27.4624 11.7505 27.5896 11.3732V9.85641H24.2811V10.9597H26.2723C26.1756 11.3023 25.9644 11.6037 25.6721 11.8162C25.3858 12.0183 25.0398 12.1242 24.6863 12.1179C24.439 12.1331 24.1912 12.0977 23.9587 12.0142C23.7263 11.9306 23.5143 11.8007 23.3364 11.6327C23.0201 11.3092 22.8619 10.8458 22.8619 10.2425C22.8345 9.76187 22.9956 9.28907 23.3126 8.91971C23.4633 8.75761 23.6487 8.62975 23.8558 8.54517C24.0628 8.46059 24.2864 8.42138 24.5108 8.43029C24.7994 8.42464 25.0838 8.49772 25.332 8.64125C25.5533 8.768 25.73 8.957 25.8389 9.18342H27.5073Z" fill="#FF9908"/>
<path d="M12.8412 13.2466C13.1599 13.0991 13.4284 12.8655 13.6147 12.5736C13.7922 12.2935 13.8846 11.9702 13.8812 11.6412C13.897 11.2854 13.7969 10.9339 13.5952 10.637C13.4182 10.3914 13.1844 10.1898 12.9127 10.0484C12.5832 9.8869 12.2413 9.75078 11.89 9.64122C11.6019 9.53995 11.3809 9.45555 11.227 9.39015C11.0833 9.33047 10.9535 9.2429 10.8457 9.13278C10.7955 9.08255 10.7561 9.02311 10.7297 8.95793C10.7033 8.89274 10.6904 8.8231 10.6918 8.75304C10.6865 8.67476 10.6991 8.5963 10.7287 8.52333C10.7583 8.45036 10.8042 8.3847 10.863 8.33111C10.9882 8.23076 11.1474 8.1796 11.3094 8.18767C11.4029 8.1828 11.4965 8.19657 11.5845 8.22813C11.6724 8.25968 11.7528 8.30837 11.8207 8.37121C11.9542 8.50693 12.0373 8.68215 12.0569 8.86908H13.762C13.7422 8.60789 13.6678 8.35341 13.5434 8.12123C13.419 7.88905 13.2471 7.68407 13.0384 7.5189C12.538 7.16059 11.9252 6.98306 11.305 7.01681C10.8972 7.00699 10.4916 7.0788 10.1134 7.22777C9.78496 7.35905 9.50166 7.57855 9.29652 7.86066C9.09581 8.14824 8.99276 8.48985 9.00186 8.83743C8.98496 9.18871 9.08362 9.53609 9.28351 9.82898C9.45569 10.0715 9.68633 10.2693 9.9552 10.4049C10.2822 10.5596 10.6195 10.6928 10.9648 10.8036C11.2465 10.8993 11.4675 10.9815 11.6279 11.0504C11.7782 11.1115 11.9145 11.2011 12.0287 11.3141C12.0824 11.3675 12.1245 11.4309 12.1524 11.5005C12.1803 11.5701 12.1935 11.6445 12.1912 11.7192C12.1937 11.7976 12.1794 11.8755 12.1492 11.9482C12.1189 12.0209 12.0735 12.0866 12.0157 12.1411C11.8838 12.2536 11.7119 12.3111 11.5368 12.3015C11.3237 12.308 11.1165 12.2321 10.9605 12.0905C10.8038 11.9404 10.7103 11.7388 10.6983 11.5251H9.02135C9.0292 11.8085 9.10287 12.0866 9.23683 12.3383C9.37079 12.59 9.56156 12.809 9.79484 12.9787C10.3212 13.3408 10.9558 13.5233 11.5997 13.4976C12.028 13.5102 12.4534 13.4242 12.8412 13.2466Z" fill="#FF9908"/>
<path d="M15.97 7.09271L17.5625 11.8647L19.1572 7.09271H20.845L18.5765 13.4364H16.5398L14.2822 7.09271H15.97Z" fill="#FF9908"/>
</svg>
