<svg width="37" height="21" viewBox="0 0 37 21" fill="none" xmlns="http://www.w3.org/2000/svg">
<path fill-rule="evenodd" clip-rule="evenodd" d="M4.16833 3C2.39431 3 0.973684 4.44367 0.973684 6.20259V14.7974C0.973684 16.5563 2.39431 18 4.16833 18H32.8317C34.6057 18 36.0263 16.5563 36.0263 14.7974V6.20259C36.0263 4.44368 34.6057 3 32.8317 3H4.16833ZM0 6.20259C0 3.87174 1.87589 2 4.16833 2H32.8317C35.1241 2 37 3.87174 37 6.20259V14.7974C37 17.1283 35.1241 19 32.8317 19H4.16833C1.87589 19 0 17.1283 0 14.7974V6.20259Z" fill="#9747FF"/>
<path d="M15.1047 7V8.24942H13.3367V13.5H11.7507V8.24942H10V7H15.1047Z" fill="#9747FF"/>
<path d="M17.3492 13.5V7H15.7718V13.5H17.3492Z" fill="#9747FF"/>
<path d="M22.6882 7V8.24942H20.0167V9.67392H22.0815V10.8693H20.0167V13.5H18.4415V7H22.6882Z" fill="#9747FF"/>
<path d="M27.7427 8.24942V7H23.496V13.5H25.0712V10.8693H27.1361V9.67392H25.0712V8.24942H27.7427Z" fill="#9747FF"/>
</svg>
