<svg width="37" height="22" viewBox="0 0 37 22" fill="none" xmlns="http://www.w3.org/2000/svg">
<path fill-rule="evenodd" clip-rule="evenodd" d="M4.16833 3.5C2.39431 3.5 0.973684 4.94367 0.973684 6.70259V15.2974C0.973684 17.0563 2.39431 18.5 4.16833 18.5H32.8317C34.6057 18.5 36.0263 17.0563 36.0263 15.2974V6.70259C36.0263 4.94368 34.6057 3.5 32.8317 3.5H4.16833ZM0 6.70259C0 4.37174 1.87589 2.5 4.16833 2.5H32.8317C35.1241 2.5 37 4.37174 37 6.70259V15.2974C37 17.6283 35.1241 19.5 32.8317 19.5H4.16833C1.87589 19.5 0 17.6283 0 15.2974V6.70259Z" fill="#FF3E4C"/>
<path fill-rule="evenodd" clip-rule="evenodd" d="M24.104 11.1748C24.3285 11.4545 24.4482 11.8039 24.4425 12.1626C24.4536 12.403 24.4102 12.6428 24.3154 12.8641C24.2207 13.0853 24.0771 13.2822 23.8954 13.44C23.5292 13.7466 23.0054 13.9021 22.3241 13.9021H19.3434V7.5H22.2496C22.9011 7.5 23.405 7.64194 23.7612 7.92581C23.9393 8.07192 24.0805 8.25792 24.1734 8.46876C24.2662 8.67959 24.3081 8.90933 24.2956 9.13936C24.309 9.48677 24.2006 9.82794 23.989 10.1038C23.7864 10.3597 23.5012 10.5373 23.1821 10.6063C23.5455 10.6846 23.8709 10.8853 24.104 11.1748ZM20.8934 10.1251H21.9068C22.4448 10.1251 22.7137 9.89518 22.7137 9.4353C22.7137 8.97543 22.4391 8.7462 21.8898 8.74762H20.8934V10.1251ZM22.8585 11.9455C22.8635 11.8445 22.8458 11.7437 22.8067 11.6505C22.7677 11.5573 22.7082 11.4741 22.6328 11.4068C22.4503 11.267 22.2236 11.1975 21.9941 11.2109H20.8976V12.6502H22.0026C22.5732 12.6502 22.8585 12.4153 22.8585 11.9455Z" fill="#FF3E4C"/>
<path d="M16.2094 8.83065V10.1698H18.3726V11.3387H16.2094V12.7609H18.6451V14H14.6595V7.59793H18.6451V8.83065H16.2094Z" fill="#FF3E4C"/>
<path d="M13.9484 7.50639L12.4176 13.9085H10.5014L9.47949 9.6248L8.4469 13.9085H6.53075L4.99996 7.50639H6.68404L7.50798 12.1435L8.63212 7.50639H10.3354L11.4595 12.1435L12.292 7.50639H13.9484Z" fill="#FF3E4C"/>
<path d="M32.2987 13.9085V7.5511L30.4081 7.55748L28.7155 11.9859L26.9846 7.55748H25.0919V13.9148H26.6418V9.93138L28.0278 13.9148H29.367L30.7445 9.9399V13.9085H32.2987Z" fill="#FF3E4C"/>
</svg>
