<svg width="37" height="22" viewBox="0 0 37 22" fill="none" xmlns="http://www.w3.org/2000/svg">
<path fill-rule="evenodd" clip-rule="evenodd" d="M4.16833 3.5C2.39431 3.5 0.973684 4.94367 0.973684 6.70259V15.2974C0.973684 17.0563 2.39431 18.5 4.16833 18.5H32.8317C34.6057 18.5 36.0263 17.0563 36.0263 15.2974V6.70259C36.0263 4.94368 34.6057 3.5 32.8317 3.5H4.16833ZM0 6.70259C0 4.37174 1.87589 2.5 4.16833 2.5H32.8317C35.1241 2.5 37 4.37174 37 6.70259V15.2974C37 17.6283 35.1241 19.5 32.8317 19.5H4.16833C1.87589 19.5 0 17.6283 0 15.2974V6.70259Z" fill="#9747FF"/>
<path d="M12.0483 11.9723L13.422 13.9936H15.294L13.0992 10.7695L15.1554 7.5H13.357L12.2065 9.45649L10.8697 7.5H8.99983L11.147 10.6507L9.06267 13.9936H10.8697L12.0483 11.9723Z" fill="#9747FF"/>
<path d="M23.2283 7.5453V13.9935H21.651V9.96824L20.2513 14H18.8863L17.478 9.9596V14H15.9006V7.55178H17.8268L19.5883 12.0435L21.3108 7.55178L23.2283 7.5453Z" fill="#9747FF"/>
<path d="M27.9928 12.7907H25.8911L25.8868 7.5H24.3095V13.9936H27.9928V12.7907Z" fill="#9747FF"/>
</svg>
