<svg width="37" height="21" viewBox="0 0 37 21" fill="none" xmlns="http://www.w3.org/2000/svg">
<path fill-rule="evenodd" clip-rule="evenodd" d="M4.16833 3C2.39431 3 0.973684 4.44367 0.973684 6.20259V14.7974C0.973684 16.5563 2.39431 18 4.16833 18H32.8317C34.6057 18 36.0263 16.5563 36.0263 14.7974V6.20259C36.0263 4.44368 34.6057 3 32.8317 3H4.16833ZM0 6.20259C0 3.87174 1.87589 2 4.16833 2H32.8317C35.1241 2 37 3.87174 37 6.20259V14.7974C37 17.1283 35.1241 19 32.8317 19H4.16833C1.87589 19 0 17.1283 0 14.7974V6.20259Z" fill="#00C650"/>
<path d="M21.3204 12.5723C21.1334 12.864 20.8651 13.0977 20.5469 13.2462C20.1595 13.423 19.7351 13.5091 19.3076 13.4975C18.6626 13.5238 18.027 13.3403 17.5007 12.9758C17.2679 12.8054 17.0775 12.5861 16.9436 12.3341C16.8097 12.0822 16.7357 11.804 16.7272 11.5203H18.4042C18.4161 11.7343 18.5096 11.9362 18.6663 12.0864C18.8223 12.2282 19.0294 12.3042 19.2426 12.2977C19.3295 12.3026 19.4165 12.2908 19.4987 12.2629C19.5808 12.235 19.6565 12.1915 19.7214 12.135C19.7792 12.0804 19.8247 12.0146 19.8549 11.9418C19.8851 11.8691 19.8994 11.791 19.8969 11.7125C19.8991 11.6381 19.8858 11.564 19.8579 11.4946C19.8299 11.4253 19.7879 11.3622 19.7344 11.3091C19.6197 11.1959 19.4836 11.1055 19.3336 11.0429C19.1762 10.9753 18.9552 10.8929 18.6706 10.7957C18.3253 10.6848 17.9881 10.5514 17.661 10.3965C17.3923 10.2615 17.1616 10.0642 16.9894 9.82193C16.7895 9.52866 16.6908 9.18085 16.7077 8.82911C16.6999 8.48058 16.8028 8.13819 17.0024 7.84892C17.2073 7.56628 17.4907 7.34645 17.8192 7.2152C18.1978 7.06504 18.6043 6.99311 19.013 7.00395C19.6334 6.97059 20.2463 7.14915 20.7462 7.50885C20.959 7.67763 21.1333 7.88786 21.2579 8.12612C21.3826 8.36439 21.4547 8.62539 21.4698 8.89244H19.7648C19.7458 8.70553 19.6634 8.53014 19.5308 8.39394C19.463 8.33064 19.3827 8.2815 19.2948 8.24954C19.2069 8.21757 19.1132 8.20342 19.0195 8.20802C18.857 8.20083 18.6974 8.25197 18.571 8.3517C18.5126 8.40565 18.4672 8.47145 18.438 8.54448C18.4088 8.61751 18.3965 8.69598 18.402 8.77418C18.3986 8.91618 18.4532 9.05364 18.5536 9.15649C18.6614 9.26627 18.7912 9.35331 18.935 9.41214C19.0888 9.47762 19.3098 9.56211 19.5979 9.6635C19.9495 9.77516 20.292 9.91213 20.6227 10.0733C20.8928 10.2154 21.1256 10.4164 21.303 10.6606C21.5052 10.9585 21.6053 11.3113 21.589 11.6682C21.5861 11.9879 21.4932 12.3006 21.3204 12.5723Z" fill="#00C650"/>
<path d="M13.0506 11.4569L14.422 13.4341H16.2939L14.1013 10.2803L16.1552 7.08211H14.3592L13.2065 8.99592L11.8698 7.08211H10L12.1471 10.1641L10.065 13.4341H11.8698L13.0506 11.4569Z" fill="#00C650"/>
<path d="M26.1454 12.2575H24.0352L24.0395 7.08211H22.4623V13.4341H26.1454V12.2575Z" fill="#00C650"/>
</svg>
