<svg width="37" height="21" viewBox="0 0 37 21" fill="none" xmlns="http://www.w3.org/2000/svg">
<path fill-rule="evenodd" clip-rule="evenodd" d="M4.16833 3C2.39431 3 0.973684 4.44367 0.973684 6.20259V14.7974C0.973684 16.5563 2.39431 18 4.16833 18H32.8317C34.6057 18 36.0263 16.5563 36.0263 14.7974V6.20259C36.0263 4.44368 34.6057 3 32.8317 3H4.16833ZM0 6.20259C0 3.87174 1.87589 2 4.16833 2H32.8317C35.1241 2 37 3.87174 37 6.20259V14.7974C37 17.1283 35.1241 19 32.8317 19H4.16833C1.87589 19 0 17.1283 0 14.7974V6.20259Z" fill="#005FAD"/>
<path d="M16.6257 12.2311H13.7506L16.6083 8.19538V7H12.0368V8.26024H14.8296L12 12.3046V13.5H16.6257V12.2311Z" fill="#005FAD"/>
<path d="M19.1691 7V13.5H17.6005V7H19.1691Z" fill="#005FAD"/>
<path fill-rule="evenodd" clip-rule="evenodd" d="M21.8316 13.5V11.2195H22.8001C23.2487 11.2323 23.694 11.1398 24.1 10.9493C24.4365 10.7853 24.7169 10.5259 24.906 10.2035C25.0916 9.87384 25.1858 9.50079 25.179 9.12272C25.1926 8.8365 25.1455 8.55062 25.0405 8.28388C24.9356 8.01714 24.7753 7.77556 24.5702 7.575C24.165 7.19023 23.5736 7 22.8001 7H20.2565V13.5H21.8316ZM22.6333 8.25808C23.2659 8.26528 23.5822 8.5535 23.5822 9.12272C23.5822 9.68042 23.2659 9.95566 22.6333 9.94845H21.8316V8.25808H22.6333Z" fill="#005FAD"/>
</svg>
