<svg width="46" height="56" viewBox="0 0 46 56" fill="none" xmlns="http://www.w3.org/2000/svg">
<path d="M32.2779 11C31.0145 10.9988 29.5 10.5 28.9097 9.99921C28.0163 9.1045 27.0012 7.76535 27 6.50004V-3.86238e-05L6.22126 4.30137e-07C5.40438 -0.000303572 4.59543 0.160536 3.84065 0.473387C3.08587 0.786238 2.40005 1.24496 1.82232 1.82331C1.24459 2.40167 0.786303 3.08834 0.473628 3.84411C0.160953 4.59988 -5.64026e-08 5.40992 0 6.22799V43.7719C-5.64026e-08 44.59 0.160953 45.4001 0.473628 46.1559C0.786303 46.9117 1.24459 47.5983 1.82232 48.1767C2.40005 48.755 3.08587 49.2137 3.84065 49.5266C4.59543 49.8394 5.40438 50.0003 6.22126 50H31.7811C32.5977 50 33.4064 49.8389 34.1609 49.5259C34.9154 49.2129 35.601 48.7542 36.1785 48.1758C36.756 47.5975 37.2141 46.9109 37.5266 46.1553C37.8391 45.3997 38 44.5898 38 43.7719V11H32.2779Z" fill="#DEF4E6"/>
<path d="M24.6955 17.5903V24.406C24.5563 24.3835 24.4137 24.3718 24.2685 24.3718C22.7599 24.3718 21.5369 25.6317 21.5369 27.1859C21.5369 28.7401 22.7599 30 24.2685 30C25.777 30 27 28.7401 27 27.1859L26.9998 27.1481L26.9851 16.7794C26.9851 16.0423 26.7008 15.3353 26.1949 14.8141C25.6889 14.2928 25.0027 14 24.2872 14H16.8355C16.1198 14 15.4333 14.2928 14.927 14.8139C14.4208 15.3351 14.136 16.0421 14.1355 16.7794V24.4024C14.0037 24.3822 13.8688 24.3718 13.7315 24.3718C12.223 24.3718 11 25.6317 11 27.1859C11 28.7401 12.223 30 13.7315 30C15.2401 30 16.4631 28.7401 16.4631 27.1859C16.4631 27.0937 16.4588 27.0025 16.4504 26.9126V17.5903C16.4504 17.2688 16.5743 16.9606 16.7949 16.7333C17.0155 16.506 17.3147 16.3783 17.6267 16.3783H23.5191C23.8311 16.3783 24.1303 16.506 24.3509 16.7333C24.5715 16.9606 24.6955 17.2688 24.6955 17.5903Z" fill="#00C650"/>
<path d="M38 11H31.9982C30.673 10.9988 29.4024 10.5132 28.4654 9.64976C27.5283 8.78632 27.0013 7.61558 27 6.39449V0L38 11Z" fill="#00C650"/>
<path d="M42.3212 39H13.6788C11.6471 39 10 40.7613 10 42.934V52.066C10 54.2387 11.6471 56 13.6788 56H42.3212C44.3529 56 46 54.2387 46 52.066V42.934C46 40.7613 44.3529 39 42.3212 39Z" fill="#00C650"/>
<path d="M19.9112 51H18.2109L20.4194 44.4545H22.5256L24.734 51H23.0337L21.4964 46.1037H21.4453L19.9112 51ZM19.6843 48.424H23.2383V49.6257H19.6843V48.424ZM26.8546 51H25.1543L27.3627 44.4545H29.4689L31.6774 51H29.9771L28.4398 46.1037H28.3887L26.8546 51ZM26.6277 48.424H30.1816V49.6257H26.6277V48.424ZM38.0159 46.826H36.4179C36.3966 46.6619 36.3529 46.5138 36.2868 46.3817C36.2208 46.2496 36.1334 46.1367 36.0248 46.043C35.9161 45.9492 35.7872 45.8778 35.6381 45.8288C35.491 45.7777 35.328 45.7521 35.1491 45.7521C34.8316 45.7521 34.5578 45.8299 34.3277 45.9854C34.0997 46.141 33.9239 46.3658 33.8003 46.6598C33.6789 46.9538 33.6182 47.3097 33.6182 47.7273C33.6182 48.1619 33.68 48.5263 33.8035 48.8203C33.9292 49.1122 34.105 49.3327 34.3309 49.4819C34.5589 49.6289 34.8284 49.7024 35.1395 49.7024C35.3142 49.7024 35.4729 49.68 35.6157 49.6353C35.7606 49.5906 35.8873 49.5256 35.996 49.4403C36.1068 49.353 36.1974 49.2475 36.2677 49.1239C36.3401 48.9982 36.3902 48.8565 36.4179 48.6989L38.0159 48.7085C37.9882 48.9982 37.904 49.2837 37.7634 49.565C37.6249 49.8462 37.4342 50.103 37.1913 50.3352C36.9484 50.5653 36.6523 50.7486 36.3028 50.8849C35.9555 51.0213 35.5571 51.0895 35.1075 51.0895C34.5152 51.0895 33.9846 50.9595 33.5159 50.6996C33.0493 50.4375 32.6807 50.0561 32.4101 49.5554C32.1395 49.0547 32.0042 48.4453 32.0042 47.7273C32.0042 47.0071 32.1416 46.3967 32.4165 45.896C32.6913 45.3952 33.0631 45.0149 33.5319 44.755C34.0006 44.495 34.5258 44.3651 35.1075 44.3651C35.5038 44.3651 35.8703 44.4205 36.2069 44.5312C36.5436 44.6399 36.8398 44.7997 37.0954 45.0107C37.3511 45.2195 37.5589 45.4762 37.7187 45.7809C37.8785 46.0856 37.9775 46.4339 38.0159 46.826Z" fill="white"/>
</svg>
