<svg width="38" height="50" viewBox="0 0 38 50" fill="none" xmlns="http://www.w3.org/2000/svg">
<path d="M32.2779 11C31.0145 10.9988 29.5 10.5 28.9097 9.99921C28.0163 9.1045 27.0012 7.76535 27 6.50004V-3.86238e-05L6.22126 4.30137e-07C5.40438 -0.000303572 4.59543 0.160536 3.84065 0.473387C3.08587 0.786238 2.40005 1.24496 1.82232 1.82331C1.24459 2.40167 0.786303 3.08834 0.473628 3.84411C0.160953 4.59988 -5.64026e-08 5.40992 0 6.22799V43.7719C-5.64026e-08 44.59 0.160953 45.4001 0.473628 46.1559C0.786303 46.9117 1.24459 47.5983 1.82232 48.1767C2.40005 48.755 3.08587 49.2137 3.84065 49.5266C4.59543 49.8394 5.40438 50.0003 6.22126 50H31.7811C32.5977 50 33.4064 49.8389 34.1609 49.5259C34.9154 49.2129 35.601 48.7542 36.1785 48.1758C36.756 47.5975 37.2141 46.9109 37.5266 46.1553C37.8391 45.3997 38 44.5898 38 43.7719V11H32.2779Z" fill="#E6EBF1"/>
<path d="M12.2197 22.5303C12.5126 22.8232 12.9874 22.8232 13.2803 22.5303C13.5732 22.2374 13.5732 21.7626 13.2803 21.4697L11.8107 20L13.2803 18.5303C13.5732 18.2374 13.5732 17.7626 13.2803 17.4697C12.9874 17.1768 12.5126 17.1768 12.2197 17.4697L10.75 18.9393L9.28033 17.4697C8.98744 17.1768 8.51256 17.1768 8.21967 17.4697C7.92678 17.7626 7.92678 18.2374 8.21967 18.5303L9.68934 20L8.21967 21.4697C7.92678 21.7626 7.92678 22.2374 8.21967 22.5303C8.51256 22.8232 8.98744 22.8232 9.28033 22.5303L10.75 21.0607L12.2197 22.5303Z" fill="#99AABD"/>
<path d="M27.9697 22.5303C28.2626 22.8232 28.7374 22.8232 29.0303 22.5303C29.3232 22.2374 29.3232 21.7626 29.0303 21.4697L27.5607 20L29.0303 18.5303C29.3232 18.2374 29.3232 17.7626 29.0303 17.4697C28.7374 17.1768 28.2626 17.1768 27.9697 17.4697L26.5 18.9393L25.0303 17.4697C24.7374 17.1768 24.2626 17.1768 23.9697 17.4697C23.6768 17.7626 23.6768 18.2374 23.9697 18.5303L25.4393 20L23.9697 21.4697C23.6768 21.7626 23.6768 22.2374 23.9697 22.5303C24.2626 22.8232 24.7374 22.8232 25.0303 22.5303L26.5 21.0607L27.9697 22.5303Z" fill="#99AABD"/>
<path fill-rule="evenodd" clip-rule="evenodd" d="M30.5 30.75C30.5 30.3358 30.1642 30 29.75 30H7.75C7.33579 30 7 30.3358 7 30.75C7 31.1642 7.33579 31.5 7.75 31.5H9.75V34C9.75 35.6569 11.0931 37 12.75 37C14.4069 37 15.75 35.6569 15.75 34V31.5H29.75C30.1642 31.5 30.5 31.1642 30.5 30.75ZM11.25 34V31.5H14.25V34C14.25 34.8284 13.5784 35.5 12.75 35.5C11.9216 35.5 11.25 34.8284 11.25 34Z" fill="#99AABD"/>
<path d="M38 11H31.9982C30.673 10.9988 29.4024 10.5132 28.4654 9.64976C27.5283 8.78632 27.0013 7.61558 27 6.39449V0L38 11Z" fill="#99AABD"/>
</svg>
