<svg width="46" height="56" viewBox="0 0 46 56" fill="none" xmlns="http://www.w3.org/2000/svg">
<path d="M32.2779 11C31.0145 10.9988 29.5 10.5 28.9097 9.99921C28.0163 9.1045 27.0012 7.76535 27 6.50004V-3.86238e-05L6.22126 4.30137e-07C5.40438 -0.000303572 4.59543 0.160536 3.84065 0.473387C3.08587 0.786238 2.40005 1.24496 1.82232 1.82331C1.24459 2.40167 0.786303 3.08834 0.473628 3.84411C0.160953 4.59988 -5.64026e-08 5.40992 0 6.22799V43.7719C-5.64026e-08 44.59 0.160953 45.4001 0.473628 46.1559C0.786303 46.9117 1.24459 47.5983 1.82232 48.1767C2.40005 48.755 3.08587 49.2137 3.84065 49.5266C4.59543 49.8394 5.40438 50.0003 6.22126 50H31.7811C32.5977 50 33.4064 49.8389 34.1609 49.5259C34.9154 49.2129 35.601 48.7542 36.1785 48.1758C36.756 47.5975 37.2141 46.9109 37.5266 46.1553C37.8391 45.3997 38 44.5898 38 43.7719V11H32.2779Z" fill="#DEF4E6"/>
<path d="M38 11H31.9982C30.673 10.9988 29.4024 10.5132 28.4654 9.64976C27.5283 8.78632 27.0013 7.61558 27 6.39449V0L38 11Z" fill="#00C650"/>
<path fill-rule="evenodd" clip-rule="evenodd" d="M8 20C8 17.7909 9.79086 16 12 16H27C29.2091 16 31 17.7909 31 20V31C31 33.2091 29.2091 35 27 35H12C9.79086 35 8 33.2091 8 31V20ZM23.9821 17.5H27C28.3807 17.5 29.5 18.6193 29.5 20V21.9534H23.9821V17.5ZM22.2998 17.5H16.6823V21.9534H22.2998V17.5ZM15 17.5H12C10.6193 17.5 9.5 18.6193 9.5 20V21.9534H15V17.5ZM9.5 23.6356V28H15V23.6356H9.5ZM9.5 29.6823V31C9.5 32.3807 10.6193 33.5 12 33.5H15V29.6823H9.5ZM16.6823 33.5H22.2998V29.6823H16.6823V33.5ZM23.9821 33.5H27C28.3807 33.5 29.5 32.3807 29.5 31V29.6823H23.9821V33.5ZM29.5 28V23.6356H23.9821V28H29.5ZM22.2998 28H16.6823V23.6356H22.2998V28Z" fill="#00C650"/>
<path d="M42.3212 39H13.6788C11.647 39 10 40.7613 10 42.934V52.066C10 54.2387 11.647 56 13.6788 56H42.3212C44.353 56 46 54.2387 46 52.066V42.934C46 40.7613 44.353 39 42.3212 39Z" fill="#00C650"/>
<path d="M30.423 50.0017C30.2218 50.3158 29.9338 50.5677 29.5923 50.728C29.1767 50.9184 28.7211 51.0107 28.2624 50.9975C27.5715 51.0249 26.8907 50.8282 26.3258 50.4379C26.0763 50.2543 25.8721 50.0182 25.7284 49.747C25.5846 49.4758 25.5049 49.1765 25.4952 48.8711H27.2941C27.3066 49.1012 27.4074 49.3182 27.5764 49.4786C27.7435 49.6318 27.9659 49.714 28.1947 49.707C28.3823 49.7164 28.5663 49.6542 28.708 49.5335C28.7695 49.4739 28.8178 49.4027 28.8499 49.3241C28.882 49.2455 28.8973 49.1613 28.8947 49.0767C28.8969 48.9967 28.8827 48.9172 28.8531 48.8426C28.8234 48.7681 28.7789 48.7002 28.722 48.6427C28.5995 48.5209 28.4536 48.4239 28.2927 48.3572C28.1201 48.2819 27.8844 48.1927 27.5811 48.09C27.2108 47.9707 26.8491 47.8273 26.4985 47.6606C26.2103 47.5147 25.9628 47.3023 25.7775 47.0417C25.5643 46.7254 25.4589 46.3512 25.4765 45.9727C25.467 45.5975 25.5771 45.2287 25.7915 44.9175C26.012 44.6136 26.3151 44.3762 26.6664 44.2323C27.073 44.0713 27.509 43.9936 27.9474 44.0039C28.6102 43.9696 29.2648 44.1608 29.8 44.5452C30.0284 44.7265 30.2154 44.9527 30.3489 45.2093C30.4823 45.4658 30.5592 45.7469 30.5746 46.0344H28.7477C28.7252 45.8335 28.6368 45.6452 28.4957 45.4977C28.4227 45.43 28.3366 45.3775 28.2423 45.3434C28.1481 45.3092 28.0478 45.2941 27.9474 45.2989C27.773 45.2902 27.6016 45.3456 27.4667 45.4542C27.4037 45.5124 27.3546 45.5835 27.3231 45.6626C27.2916 45.7416 27.2785 45.8264 27.2848 45.911C27.2828 45.9867 27.2962 46.0621 27.3242 46.1327C27.3523 46.2033 27.3944 46.2677 27.4481 46.3222C27.5637 46.4414 27.7036 46.5355 27.8587 46.5985C28.0221 46.6693 28.2601 46.7607 28.5587 46.8704C28.9358 46.9891 29.3032 47.1357 29.6577 47.3089C29.9483 47.4619 30.1984 47.6793 30.388 47.9438C30.6043 48.2639 30.7113 48.643 30.6936 49.0264C30.6953 49.3695 30.6018 49.7066 30.423 50.0017Z" fill="white"/>
<path d="M24.7344 46.5689C24.5944 45.838 24.1933 45.1798 23.6028 44.712C22.9743 44.2351 22.195 43.9887 21.4002 44.0154C20.774 44.002 20.1557 44.1542 19.6106 44.4562C19.0999 44.7453 18.6864 45.1739 18.4207 45.6895C18.1328 46.2502 17.9887 46.8711 18.0007 47.4985C17.989 48.1251 18.1331 48.7451 18.4207 49.3051C18.6864 49.8208 19.0999 50.2494 19.6106 50.5384C20.1557 50.8404 20.774 50.9927 21.4002 50.9793C22.1953 51.0114 22.9766 50.7688 23.6075 50.2941C24.1954 49.8261 24.5961 49.1702 24.7391 48.4418H22.9518C22.8293 48.7415 22.617 48.9978 22.3428 49.1772C22.0543 49.3624 21.7149 49.4572 21.3699 49.449C21.1428 49.4561 20.9171 49.4123 20.7101 49.3208C20.503 49.2294 20.3201 49.0928 20.1753 48.9214C19.8546 48.5183 19.693 48.0156 19.7203 47.5054C19.6932 46.993 19.8546 46.4882 20.1753 46.0824C20.3195 45.9101 20.5022 45.7725 20.7093 45.6802C20.9164 45.588 21.1424 45.5435 21.3699 45.5502C21.7149 45.542 22.0543 45.6368 22.3428 45.822C22.6171 46.0051 22.8279 46.2656 22.9472 46.5689H24.7344Z" fill="white"/>
<path d="M34.6552 49.2389L32.945 44.093H31.1367L33.5586 50.9313H35.7425L38.1738 44.093H36.3655L34.6552 49.2389Z" fill="white"/>
</svg>
