<svg width="46" height="56" viewBox="0 0 46 56" fill="none" xmlns="http://www.w3.org/2000/svg">
<path d="M32.2779 11C31.0145 10.9988 29.5 10.5 28.9097 9.99921C28.0163 9.1045 27.0012 7.76535 27 6.50004V-3.86238e-05L6.22126 4.30137e-07C5.40438 -0.000303572 4.59543 0.160536 3.84065 0.473387C3.08587 0.786238 2.40005 1.24496 1.82232 1.82331C1.24459 2.40167 0.786303 3.08834 0.473628 3.84411C0.160953 4.59988 -5.64026e-08 5.40992 0 6.22799V43.7719C-5.64026e-08 44.59 0.160953 45.4001 0.473628 46.1559C0.786303 46.9117 1.24459 47.5983 1.82232 48.1767C2.40005 48.755 3.08587 49.2137 3.84065 49.5266C4.59543 49.8394 5.40438 50.0003 6.22126 50H31.7811C32.5977 50 33.4064 49.8389 34.1609 49.5259C34.9154 49.2129 35.601 48.7542 36.1785 48.1758C36.756 47.5975 37.2141 46.9109 37.5266 46.1553C37.8391 45.3997 38 44.5898 38 43.7719V11H32.2779Z" fill="#E3EEFB"/>
<path d="M38 11H31.9982C30.673 10.9988 29.4024 10.5132 28.4654 9.64976C27.5283 8.78632 27.0013 7.61558 27 6.39449V0L38 11Z" fill="#0072FF"/>
<path fill-rule="evenodd" clip-rule="evenodd" d="M6.38386 19.7476H30.4722C30.7039 19.7476 30.9261 19.6557 31.0901 19.4922C31.2541 19.3286 31.3466 19.1066 31.3472 18.875C31.3472 18.6429 31.255 18.4204 31.0909 18.2563C30.9268 18.0922 30.7043 18 30.4722 18H6.38386C6.26907 18 6.15542 18.0226 6.0494 18.0666C5.94337 18.1106 5.84707 18.1751 5.766 18.2564C5.68494 18.3377 5.62071 18.4342 5.577 18.5403C5.53328 18.6464 5.51093 18.7602 5.51123 18.875C5.51123 19.1064 5.60318 19.3283 5.76683 19.492C5.93048 19.6556 6.15243 19.7476 6.38386 19.7476ZM6.38386 24.7556H30.4722C30.7039 24.7556 30.9261 24.6637 31.0901 24.5002C31.2541 24.3366 31.3466 24.1147 31.3472 23.883C31.3472 23.651 31.255 23.4284 31.0909 23.2643C30.9268 23.1002 30.7043 23.0081 30.4722 23.0081H6.38386C6.26907 23.0081 6.15542 23.0307 6.0494 23.0747C5.94337 23.1187 5.84707 23.1832 5.766 23.2645C5.68494 23.3457 5.62071 23.4422 5.577 23.5484C5.53328 23.6545 5.51093 23.7682 5.51123 23.883C5.51123 24.1145 5.60318 24.3364 5.76683 24.5001C5.93048 24.6637 6.15243 24.7556 6.38386 24.7556ZM30.4722 29.7476H6.38386C6.26907 29.7476 6.15542 29.7249 6.0494 29.6809C5.94337 29.6369 5.84707 29.5725 5.766 29.4912C5.68494 29.4099 5.62071 29.3134 5.577 29.2073C5.53328 29.1011 5.51093 28.9874 5.51123 28.8726C5.51123 28.6412 5.60318 28.4192 5.76683 28.2556C5.93048 28.0919 6.15243 28 6.38386 28H30.4722C30.7039 28 30.9261 28.0918 31.0901 28.2554C31.2541 28.419 31.3466 28.641 31.3472 28.8726C31.3472 29.1047 31.255 29.3272 31.0909 29.4913C30.9268 29.6554 30.7043 29.7476 30.4722 29.7476ZM6.38386 34.7476H20.9713C21.0861 34.7476 21.1997 34.7249 21.3057 34.6809C21.4118 34.6369 21.5081 34.5724 21.5891 34.4911C21.6702 34.4099 21.7344 34.3134 21.7782 34.2073C21.8219 34.1011 21.8442 33.9874 21.8439 33.8726C21.8439 33.6412 21.752 33.4192 21.5883 33.2555C21.4247 33.0919 21.2027 33 20.9713 33H6.38386C6.15243 33 5.93048 33.0919 5.76683 33.2555C5.60318 33.4192 5.51123 33.6412 5.51123 33.8726C5.51093 33.9874 5.53328 34.1011 5.577 34.2073C5.62071 34.3134 5.68494 34.4099 5.766 34.4911C5.84707 34.5724 5.94337 34.6369 6.0494 34.6809C6.15542 34.7249 6.26907 34.7476 6.38386 34.7476Z" fill="#0072FF"/>
<path d="M42.3212 39H13.6788C11.647 39 10 40.7613 10 42.934V52.066C10 54.2387 11.647 56 13.6788 56H42.3212C44.353 56 46 54.2387 46 52.066V42.934C46 40.7613 44.353 39 42.3212 39Z" fill="#0072FF"/>
<path fill-rule="evenodd" clip-rule="evenodd" d="M29.4106 44.4535C29.9444 44.748 30.3856 45.1782 30.6869 45.6979C31.0025 46.2468 31.1635 46.8668 31.1535 47.4955C31.1642 48.1256 31.0032 48.7473 30.6869 49.2975C30.3846 49.8192 29.9418 50.251 29.4059 50.5465C28.8605 50.8491 28.2421 51.0056 27.614 50.9998C26.9859 51.0052 26.3676 50.8488 25.8221 50.5465C25.2863 50.2516 24.8441 49.8196 24.5435 49.2975C24.2261 48.7477 24.065 48.1257 24.0768 47.4955C24.0647 46.8666 24.2258 46.246 24.5435 45.6979C24.8456 45.1782 25.2876 44.748 25.8221 44.4535C26.3676 44.1512 26.9859 43.9948 27.614 44.0002C28.2435 43.9944 28.8635 44.1508 29.4106 44.4535ZM26.284 46.0629C25.9398 46.4629 25.7647 46.9749 25.7941 47.4955C25.7646 48.014 25.9399 48.5239 26.284 48.9213C26.4517 49.0983 26.6572 49.2375 26.8862 49.3291C27.1151 49.4208 27.362 49.4626 27.6093 49.4516C27.8559 49.4619 28.1018 49.4198 28.3299 49.3282C28.558 49.2366 28.7628 49.0977 28.9299 48.9213C29.2758 48.5246 29.4527 48.0146 29.4246 47.4955C29.4526 46.9771 29.2775 46.4677 28.9346 46.0697C28.767 45.8925 28.5615 45.7532 28.3325 45.6616C28.1036 45.5699 27.8567 45.5282 27.6093 45.5392C27.3626 45.5282 27.1163 45.5694 26.8875 45.6598C26.6587 45.7502 26.4528 45.8877 26.284 46.0629Z" fill="white"/>
<path fill-rule="evenodd" clip-rule="evenodd" d="M21.6012 50.4944C22.137 50.2202 22.5783 49.7994 22.8704 49.284C23.1716 48.7372 23.3234 48.1246 23.3114 47.5046C23.324 46.8867 23.1721 46.2761 22.8704 45.732C22.5795 45.2207 22.1395 44.8043 21.6058 44.5351C20.9996 44.2405 20.3282 44.095 19.6506 44.1113H17V50.9274H19.6506C20.3277 50.9428 20.9981 50.794 21.6012 50.4944ZM21.4773 48.2796C21.3824 48.5271 21.2355 48.7526 21.0459 48.9417C20.6205 49.3015 20.0666 49.4847 19.5036 49.4517H18.7009V45.5574H19.5013C20.0655 45.5235 20.6208 45.7076 21.0459 46.0697C21.2356 46.2584 21.3826 46.4834 21.4774 46.7306C21.5722 46.9777 21.6128 47.2414 21.5965 47.5046C21.6127 47.7682 21.5721 48.0321 21.4773 48.2796Z" fill="white"/>
<path d="M38.6642 46.5797C38.5222 45.8515 38.1197 45.1956 37.5279 44.7278C36.8975 44.2457 36.1133 43.9931 35.3113 44.0137C34.6827 44.0009 34.0621 44.1528 33.5147 44.4535C33.0025 44.7428 32.5869 45.1693 32.3178 45.6821C32.0287 46.2446 31.8846 46.8669 31.8978 47.4955C31.8845 48.1241 32.0286 48.7464 32.3178 49.3089C32.5869 49.8217 33.0025 50.2482 33.5147 50.5375C34.0621 50.8382 34.6827 50.9901 35.3113 50.9772C36.1092 51.0085 36.8932 50.768 37.5279 50.2972C38.1176 49.8297 38.5198 49.1759 38.6642 48.4498H36.8676C36.7448 48.7476 36.5326 49.0027 36.2586 49.1819C35.9687 49.3665 35.6276 49.4606 35.281 49.4517C35.0529 49.4589 34.8261 49.4156 34.6179 49.3248C34.4097 49.2341 34.2255 49.0984 34.0794 48.9281C33.7546 48.5269 33.589 48.0258 33.6127 47.5159C33.589 47.004 33.7545 46.5006 34.0794 46.0969C34.2243 45.9248 34.4081 45.7875 34.6165 45.6955C34.8249 45.6035 35.0523 45.5594 35.281 45.5665C35.6274 45.5585 35.9682 45.6525 36.2586 45.8362C36.5341 46.0188 36.7464 46.2779 36.8676 46.5797H38.6642Z" fill="white"/>
</svg>
