<svg width="46" height="56" viewBox="0 0 46 56" fill="none" xmlns="http://www.w3.org/2000/svg">
<path d="M32.2779 11C31.0145 10.9988 29.5 10.5 28.9097 9.99921C28.0163 9.1045 27.0012 7.76535 27 6.50004V-3.86238e-05L6.22126 4.30137e-07C5.40438 -0.000303572 4.59543 0.160536 3.84065 0.473387C3.08587 0.786238 2.40005 1.24496 1.82232 1.82331C1.24459 2.40167 0.786303 3.08834 0.473628 3.84411C0.160953 4.59988 -5.64026e-08 5.40992 0 6.22799V43.7719C-5.64026e-08 44.59 0.160953 45.4001 0.473628 46.1559C0.786303 46.9117 1.24459 47.5983 1.82232 48.1767C2.40005 48.755 3.08587 49.2137 3.84065 49.5266C4.59543 49.8394 5.40438 50.0003 6.22126 50H31.7811C32.5977 50 33.4064 49.8389 34.1609 49.5259C34.9154 49.2129 35.601 48.7542 36.1785 48.1758C36.756 47.5975 37.2141 46.9109 37.5266 46.1553C37.8391 45.3997 38 44.5898 38 43.7719V11H32.2779Z" fill="#F9ECDB"/>
<path d="M9.56522 23.1304C10.1228 23.1304 10.6122 22.8389 10.8895 22.4H15.4996C14.0612 23.3815 13.0186 24.8294 12.6168 26.5217H11.6522V29.6522H14.7826V26.5217H14.2433C14.819 24.7172 16.3731 23.2782 18.4348 22.7888V23.1304H21.5652V22.7888C23.6269 23.2782 25.181 24.7172 25.7567 26.5217H25.2174V29.6522H28.3478V26.5217H27.3832C26.9814 24.8294 25.9388 23.3815 24.5004 22.4H29.1105C29.3878 22.8389 29.8772 23.1304 30.4348 23.1304C31.2992 23.1304 32 22.4297 32 21.5652C32 20.7008 31.2992 20 30.4348 20C29.8342 20 29.3125 20.3383 29.0501 20.8348H21.5652V20H18.4348V20.8348H10.9499C10.6875 20.3383 10.1658 20 9.56522 20C8.70077 20 8 20.7008 8 21.5652C8 22.4297 8.70077 23.1304 9.56522 23.1304Z" fill="#FF9908"/>
<path d="M38 11H31.9982C30.673 10.9988 29.4024 10.5132 28.4654 9.64976C27.5283 8.78632 27.0013 7.61558 27 6.39449V0L38 11Z" fill="#FF9908"/>
<path d="M42.3212 39H13.6788C11.647 39 10 40.7613 10 42.934V52.066C10 54.2387 11.647 56 13.6788 56H42.3212C44.353 56 46 54.2387 46 52.066V42.934C46 40.7613 44.353 39 42.3212 39Z" fill="#FF9908"/>
<path d="M35.3974 50.7266C35.7411 50.5681 36.0304 50.3159 36.2304 50.0005C36.4214 49.6982 36.521 49.3494 36.5174 48.9943C36.5345 48.6104 36.4267 48.2312 36.2094 47.9107C36.0188 47.6457 35.7671 47.4282 35.4744 47.2756C35.1194 47.1018 34.7512 46.9549 34.3731 46.8363C34.0628 46.727 33.8248 46.6359 33.6591 46.5654C33.5039 46.5004 33.3635 46.406 33.2461 46.2877C33.1924 46.2333 33.1503 46.1691 33.1222 46.0988C33.0942 46.0284 33.0808 45.9533 33.0828 45.8779C33.0765 45.7934 33.0898 45.7086 33.1217 45.6297C33.1536 45.5509 33.2033 45.4801 33.2671 45.4226C33.4019 45.3143 33.5733 45.2591 33.7477 45.2678C33.8485 45.2627 33.9493 45.2776 34.0439 45.3117C34.1386 45.3457 34.2252 45.3982 34.2984 45.4659C34.4413 45.6126 34.53 45.8017 34.5504 46.0031H36.3868C36.3675 45.7213 36.2888 45.4464 36.1555 45.1957C36.0222 44.945 35.8372 44.7238 35.6121 44.5462C35.0734 44.1594 34.4133 43.9678 33.7454 44.0044C33.3054 43.9938 32.8679 44.0713 32.4598 44.2321C32.1068 44.3738 31.8024 44.6106 31.5824 44.915C31.3663 45.2253 31.2553 45.5939 31.2651 45.969C31.2474 46.3476 31.3527 46.7221 31.5661 47.0389C31.7524 47.3007 32.0015 47.514 32.2918 47.6603C32.6438 47.8276 33.0071 47.9714 33.3791 48.0906C33.6824 48.1938 33.9204 48.2825 34.0931 48.3569C34.2547 48.4233 34.4014 48.5199 34.5248 48.6414C34.5819 48.6994 34.6265 48.768 34.6562 48.843C34.6858 48.9181 34.6998 48.9981 34.6974 49.0785C34.7001 49.1631 34.6847 49.2472 34.6522 49.3256C34.6196 49.404 34.5707 49.4749 34.5084 49.5338C34.3668 49.6557 34.1813 49.718 33.9928 49.7068C33.7633 49.7131 33.5405 49.6313 33.3721 49.4792C33.2052 49.316 33.1048 49.0991 33.0898 48.8691H31.2838C31.2939 49.1746 31.374 49.474 31.5181 49.7454C31.6622 50.0168 31.8668 50.2533 32.1168 50.4375C32.6846 50.828 33.3686 51.0248 34.0628 50.9975C34.5233 51.0113 34.9807 50.9185 35.3974 50.7266Z" fill="white"/>
<path d="M21.6987 46.834V45.4021H24.368V44.0863H20V50.9315H24.368V49.6043H21.6987V48.0837H24.0693V46.834H21.6987Z" fill="white"/>
<path fill-rule="evenodd" clip-rule="evenodd" d="M27.0278 48.5299V50.9315H25.3291V44.0863H28.0778C28.9131 44.0863 29.5486 44.2874 29.9841 44.6896C30.2049 44.9014 30.3773 45.1562 30.4903 45.4375C30.6033 45.7187 30.6542 46.02 30.6398 46.3218C30.6471 46.7199 30.5456 47.1128 30.3458 47.46C30.1438 47.8003 29.8413 48.0732 29.4778 48.243C29.0412 48.4462 28.5612 48.5445 28.0778 48.5299H27.0278ZM28.9131 46.3218C28.9131 45.7147 28.5724 45.4112 27.8911 45.4112H27.0278V47.1936H27.8911C28.5771 47.1997 28.9201 46.9091 28.9201 46.3218H28.9131Z" fill="white"/>
</svg>
