<svg width="46" height="56" viewBox="0 0 46 56" fill="none" xmlns="http://www.w3.org/2000/svg">
<path d="M32.2779 11C31.0145 10.9988 29.5 10.5 28.9097 9.99921C28.0163 9.1045 27.0012 7.76535 27 6.50004V-3.86238e-05L6.22126 4.30137e-07C5.40438 -0.000303572 4.59543 0.160536 3.84065 0.473387C3.08587 0.786238 2.40005 1.24496 1.82232 1.82331C1.24459 2.40167 0.786303 3.08834 0.473628 3.84411C0.160953 4.59988 -5.64026e-08 5.40992 0 6.22799V43.7719C-5.64026e-08 44.59 0.160953 45.4001 0.473628 46.1559C0.786303 46.9117 1.24459 47.5983 1.82232 48.1767C2.40005 48.755 3.08587 49.2137 3.84065 49.5266C4.59543 49.8394 5.40438 50.0003 6.22126 50H31.7811C32.5977 50 33.4064 49.8389 34.1609 49.5259C34.9154 49.2129 35.601 48.7542 36.1785 48.1758C36.756 47.5975 37.2141 46.9109 37.5266 46.1553C37.8391 45.3997 38 44.5898 38 43.7719V11H32.2779Z" fill="#E6EBF1"/>
<path d="M15 19.7402C15.0124 18.5879 15.386 17.6764 16.1209 17.0059C16.8558 16.3353 17.8279 16 19.0372 16C20.2837 16 21.2558 16.332 21.9535 16.9961C22.6512 17.6602 23 18.5879 23 19.7793C23 20.8405 22.5287 21.8854 21.586 22.9141L20.4419 24.0957C20.0326 24.584 19.8217 25.2969 19.8093 26.2344H17.6977C17.6977 25.3685 17.8 24.6784 18.0047 24.1641C18.1837 23.714 18.5159 23.2254 19.0012 22.6981L19.5889 22.0859L20.0211 21.6086L20.2271 21.3561C20.2848 21.2808 20.3316 21.2141 20.3674 21.1562C20.6155 20.7591 20.7395 20.3294 20.7395 19.8672C20.7395 19.2552 20.5953 18.7881 20.307 18.4658C20.0186 18.1436 19.5954 17.9824 19.0372 17.9824C18.5039 17.9824 18.0744 18.1403 17.7488 18.4561C17.4233 18.7718 17.2605 19.1999 17.2605 19.7402H15Z" fill="#99AABD"/>
<path d="M20.0803 28.6667C20.0803 27.9303 19.5117 27.3333 18.8102 27.3333C18.1088 27.3333 17.5402 27.9303 17.5402 28.6667C17.5402 29.403 18.1088 30 18.8102 30C19.5117 30 20.0803 29.403 20.0803 28.6667Z" fill="#99AABD"/>
<path d="M38 11H31.9982C30.673 10.9988 29.4024 10.5132 28.4654 9.64976C27.5283 8.78632 27.0013 7.61558 27 6.39449V0L38 11Z" fill="#99AABD"/>
<path d="M42.3212 39H13.6788C11.647 39 10 40.7613 10 42.934V52.066C10 54.2387 11.647 56 13.6788 56H42.3212C44.353 56 46 54.2387 46 52.066V42.934C46 40.7613 44.353 39 42.3212 39Z" fill="#99AABD"/>
<path d="M22.5574 45.3456V44L18 44.0116V51H19.6896V48.174H21.9044V46.8888H19.6896V45.3456H22.5574Z" fill="white"/>
<path d="M26.4293 44V50.9884H24.7397V44H26.4293Z" fill="white"/>
<path d="M31.9442 49.6939H29.6806L29.6853 44H27.9934V50.9883H31.9442V49.6939Z" fill="white"/>
<path d="M34.5611 46.8075V45.3433H37.2244V44H32.8738V50.9884H37.2244V49.6335H34.5611V48.081H36.9223V46.8075H34.5611Z" fill="white"/>
</svg>
