<svg width="46" height="56" viewBox="0 0 46 56" fill="none" xmlns="http://www.w3.org/2000/svg">
<path d="M32.2779 11C31.0145 10.9988 29.5 10.5 28.9097 9.99921C28.0163 9.1045 27.0012 7.76535 27 6.50004V-3.86238e-05L6.22126 4.30137e-07C5.40438 -0.000303572 4.59543 0.160536 3.84065 0.473387C3.08587 0.786238 2.40005 1.24496 1.82232 1.82331C1.24459 2.40167 0.786303 3.08834 0.473628 3.84411C0.160953 4.59988 -5.64026e-08 5.40992 0 6.22799V43.7719C-5.64026e-08 44.59 0.160953 45.4001 0.473628 46.1559C0.786303 46.9117 1.24459 47.5983 1.82232 48.1767C2.40005 48.755 3.08587 49.2137 3.84065 49.5266C4.59543 49.8394 5.40438 50.0003 6.22126 50H31.7811C32.5977 50 33.4064 49.8389 34.1609 49.5259C34.9154 49.2129 35.601 48.7542 36.1785 48.1758C36.756 47.5975 37.2141 46.9109 37.5266 46.1553C37.8391 45.3997 38 44.5898 38 43.7719V11H32.2779Z" fill="#F6E5E6"/>
<path d="M38 11H31.9982C30.673 10.9988 29.4024 10.5132 28.4654 9.64976C27.5283 8.78632 27.0013 7.61558 27 6.39449V0L38 11Z" fill="#FF3E4C"/>
<path d="M15.7237 33.9957H15.2442C14.1376 33.9957 13.256 33.6713 12.5993 33.0226C11.9426 32.3738 11.615 31.4975 11.6164 30.3936V26.8565C11.6164 25.5041 11.0776 24.8279 10 24.8279V23.1678C11.0776 23.1678 11.6164 22.4916 11.6164 21.1392V17.6021C11.6164 16.4968 11.9441 15.6197 12.5993 14.971C13.2546 14.3222 14.1362 13.9986 15.2442 14H15.7237V15.6602H15.3961C14.0943 15.6602 13.4433 16.3949 13.4433 17.8643V21.4881C13.4274 22.7885 12.9212 23.6106 11.9245 23.9545V24.0412C12.9009 24.362 13.4072 25.1624 13.4433 26.4426V30.127C13.4433 31.5965 14.0943 32.3312 15.3961 32.3312H15.7237V33.9957Z" fill="#FF3E4C"/>
<path d="M22.2741 33.9957V32.3355H22.6017C23.9036 32.3355 24.5545 31.6008 24.5545 30.1313V26.4469C24.5834 25.1653 25.0897 24.3648 26.0733 24.0455V23.9588C25.081 23.6091 24.5747 22.787 24.5545 21.4924V17.8686C24.5545 16.3992 23.9036 15.6645 22.6017 15.6645H22.2741V14.0043H22.7558C23.8624 14.0043 24.7433 14.328 25.3985 14.9753C26.0538 15.6226 26.3821 16.4996 26.3836 17.6064V21.1435C26.3836 22.4959 26.9224 23.1721 28 23.1721V24.8322C26.9224 24.8322 26.3836 25.5084 26.3836 26.8608V30.3979C26.3836 31.5032 26.0552 32.3796 25.3985 33.0269C24.7418 33.6742 23.8609 33.9986 22.7558 34L22.2741 33.9957Z" fill="#FF3E4C"/>
<path d="M20.2589 17.8275C20.2589 18.6211 19.6148 19.2644 18.8203 19.2644C18.0259 19.2644 17.3818 18.6211 17.3818 17.8275C17.3818 17.0339 18.0259 16.3906 18.8203 16.3906C19.6148 16.3906 20.2589 17.0339 20.2589 17.8275Z" fill="#FF3E4C"/>
<path d="M18.8203 25.4348C19.6148 25.4348 20.2589 24.7915 20.2589 23.9979C20.2589 23.2043 19.6148 22.5609 18.8203 22.5609C18.0259 22.5609 17.3818 23.2043 17.3818 23.9979C17.3818 24.7915 18.0259 25.4348 18.8203 25.4348Z" fill="#FF3E4C"/>
<path d="M20.2589 30.1682C20.2589 30.9618 19.6148 31.6052 18.8203 31.6052C18.0259 31.6052 17.3818 30.9618 17.3818 30.1682C17.3818 29.3746 18.0259 28.7313 18.8203 28.7313C19.6148 28.7313 20.2589 29.3746 20.2589 30.1682Z" fill="#FF3E4C"/>
<path d="M42.3212 39H13.6788C11.647 39 10 40.7613 10 42.934V52.066C10 54.2387 11.647 56 13.6788 56H42.3212C44.353 56 46 54.2387 46 52.066V42.934C46 40.7613 44.353 39 42.3212 39Z" fill="#FF3E4C"/>
<path d="M19.7647 44V48.7318C19.7647 49.4574 19.564 50.0149 19.1627 50.4088C18.9399 50.6119 18.678 50.7686 18.3926 50.8696C18.1071 50.9705 17.804 51.0136 17.5013 50.9963C17.1689 51.0135 16.8363 50.9655 16.5228 50.8552C16.2092 50.7449 15.9208 50.5744 15.6743 50.3535C15.224 49.9274 15 49.31 15 48.5106H16.6777C16.6777 49.1587 16.9258 49.4828 17.422 49.4828C17.8513 49.4828 18.066 49.234 18.066 48.7364V44.0046L19.7647 44Z" fill="white"/>
<path fill-rule="evenodd" clip-rule="evenodd" d="M22.6016 49.6624H25.2313L25.6606 50.9271H27.4666L24.8999 44.0483H22.9446L20.3779 50.9271H22.1653L22.6016 49.6624ZM23.9223 45.8429L24.7949 48.3885H23.0379L23.9223 45.8429Z" fill="white"/>
<path d="M29.4408 44L31.1558 49.2132L32.8732 44H34.6908L32.2478 50.9272H30.0545L27.6255 44H29.4408Z" fill="white"/>
<path fill-rule="evenodd" clip-rule="evenodd" d="M37.0616 49.6624H39.6912L40.1206 50.9271H41.9266L39.3599 44.0483H37.4046L34.8379 50.9271H36.6253L37.0616 49.6624ZM38.3823 45.8429L39.2549 48.3885H37.4979L38.3823 45.8429Z" fill="white"/>
</svg>
