<svg width="46" height="56" viewBox="0 0 46 56" fill="none" xmlns="http://www.w3.org/2000/svg">
<path d="M32.2779 11C31.0145 10.9988 29.5 10.5 28.9097 9.99921C28.0163 9.1045 27.0012 7.76535 27 6.50004V-3.86238e-05L6.22126 4.30137e-07C5.40438 -0.000303572 4.59543 0.160536 3.84065 0.473387C3.08587 0.786238 2.40005 1.24496 1.82232 1.82331C1.24459 2.40167 0.786303 3.08834 0.473628 3.84411C0.160953 4.59988 -5.64026e-08 5.40992 0 6.22799V43.7719C-5.64026e-08 44.59 0.160953 45.4001 0.473628 46.1559C0.786303 46.9117 1.24459 47.5983 1.82232 48.1767C2.40005 48.755 3.08587 49.2137 3.84065 49.5266C4.59543 49.8394 5.40438 50.0003 6.22126 50H31.7811C32.5977 50 33.4064 49.8389 34.1609 49.5259C34.9154 49.2129 35.601 48.7542 36.1785 48.1758C36.756 47.5975 37.2141 46.9109 37.5266 46.1553C37.8391 45.3997 38 44.5898 38 43.7719V11H32.2779Z" fill="#F9ECDB"/>
<path d="M24.6117 19.7646C24.6117 20.3974 24.0987 20.9103 23.466 20.9103C22.8332 20.9103 22.3203 20.3974 22.3203 19.7646C22.3203 19.1319 22.8332 18.619 23.466 18.619C24.0987 18.619 24.6117 19.1319 24.6117 19.7646Z" fill="#FF9908"/>
<path fill-rule="evenodd" clip-rule="evenodd" d="M24.112 32.9177H13.8057C12.7967 32.9164 11.8295 32.5151 11.116 31.8017C10.4026 31.0882 10.0012 30.1209 10 29.112V18.8057C10.0012 17.7967 10.4026 16.8295 11.116 16.116C11.8295 15.4026 12.7967 15.0012 13.8057 15H24.112C25.1207 15.0012 26.0877 15.4027 26.8008 16.1162C27.5139 16.8297 27.9147 17.7969 27.9153 18.8057V29.112C27.9147 30.1207 27.5139 31.088 26.8008 31.8015C26.0877 32.515 25.1207 32.9164 24.112 32.9177ZM13.8057 16.6823C13.2427 16.6829 12.703 16.9069 12.3049 17.3049C11.9068 17.703 11.6829 18.2427 11.6823 18.8057V25.677C13.2947 25.4649 15.484 25.5466 18.0546 26.5733L19.9446 24.772L21.2326 28.0386C21.2326 28.0386 21.5779 26.837 22.6932 27.0073C22.9625 27.0484 23.2719 27.1148 23.5974 27.1846C24.5373 27.3863 25.6105 27.6166 26.233 27.3491V18.8057C26.233 18.2429 26.0096 17.7032 25.6119 17.3051C25.2142 16.9069 24.6747 16.6829 24.112 16.6823H13.8057Z" fill="#FF9908"/>
<path d="M38 11H31.9982C30.673 10.9988 29.4024 10.5132 28.4654 9.64976C27.5283 8.78632 27.0013 7.61558 27 6.39449V0L38 11Z" fill="#FF9908"/>
<path d="M42.3212 39H13.6788C11.647 39 10 40.7613 10 42.934V52.066C10 54.2387 11.647 56 13.6788 56H42.3212C44.353 56 46 54.2387 46 52.066V42.934C46 40.7613 44.353 39 42.3212 39Z" fill="#FF9908"/>
<path d="M37.5455 46.3396C37.4288 45.6592 37.0488 45.0486 36.4838 44.634C35.8465 44.192 35.0763 43.97 34.2951 44.0033C33.6525 43.989 33.0174 44.1406 32.4541 44.4428C31.9335 44.7312 31.5097 45.1607 31.2338 45.6792C30.9388 46.2386 30.7905 46.8606 30.8021 47.4896C30.7885 48.1224 30.9369 48.7485 31.2338 49.3113C31.5101 49.831 31.9359 50.2607 32.4588 50.5477C33.0305 50.8523 33.6744 51.0039 34.3255 50.9872C34.8607 50.9965 35.3912 50.8875 35.8771 50.6684C36.307 50.4726 36.6883 50.1883 36.9948 49.835C37.2778 49.5072 37.4933 49.1291 37.6295 48.7215V47.0842H34.0665V48.2752H36.2108C36.1068 48.6449 35.8793 48.9703 35.5645 49.1997C35.2562 49.4178 34.8835 49.5321 34.5028 49.5253C34.2365 49.5416 33.9696 49.5035 33.7193 49.4133C33.469 49.3231 33.2407 49.1829 33.0492 49.0016C32.7085 48.6524 32.5382 48.1522 32.5382 47.5009C32.5093 46.9819 32.6836 46.4715 33.0258 46.0732C33.1876 45.8982 33.3869 45.7602 33.6095 45.6689C33.8321 45.5776 34.0725 45.5353 34.3138 45.5449C34.6246 45.5388 34.9309 45.6177 35.1981 45.7726C35.4355 45.9039 35.6272 46.1013 35.7488 46.3396H37.5455Z" fill="white"/>
<path d="M23.7646 48.7602V44.0829L22.0683 44.0875V48.7647C22.0683 49.2543 21.8536 49.5002 21.422 49.5002C20.9273 49.5002 20.6777 49.1814 20.6777 48.5416H19C19.0016 49.3325 19.2271 49.9397 19.6766 50.3633C19.9228 50.5812 20.2109 50.7494 20.5241 50.858C20.8373 50.9667 21.1694 51.0137 21.5013 50.9963C21.8044 51.0135 22.1079 50.9709 22.3937 50.8711C22.6795 50.7714 22.9418 50.6165 23.165 50.4156C23.5647 50.03 23.7646 49.4782 23.7646 48.7602Z" fill="white"/>
<path fill-rule="evenodd" clip-rule="evenodd" d="M26.5787 48.5279V50.9303H24.8823V44.0829H27.631C28.4632 44.0829 29.0979 44.2841 29.535 44.6864C29.7562 44.8979 29.929 45.1528 30.042 45.4342C30.155 45.7156 30.2057 46.0172 30.1907 46.3191C30.197 46.7169 30.0965 47.1095 29.899 47.4576C29.6958 47.7971 29.3936 48.0698 29.031 48.241C28.5942 48.4433 28.1144 48.5417 27.631 48.5279H26.5787ZM28.464 46.3191C28.464 45.7118 28.1233 45.4082 27.442 45.4082H26.5787V47.1912H27.442C28.1233 47.1973 28.464 46.9066 28.464 46.3191Z" fill="white"/>
</svg>
