<svg width="46" height="56" viewBox="0 0 46 56" fill="none" xmlns="http://www.w3.org/2000/svg">
<path d="M32.2779 11C31.0145 10.9988 29.5 10.5 28.9097 9.99921C28.0163 9.1045 27.0012 7.76535 27 6.50004V-3.86238e-05L6.22126 4.30137e-07C5.40438 -0.000303572 4.59543 0.160536 3.84065 0.473387C3.08587 0.786238 2.40005 1.24496 1.82232 1.82331C1.24459 2.40167 0.786303 3.08834 0.473628 3.84411C0.160953 4.59988 -5.64026e-08 5.40992 0 6.22799V43.7719C-5.64026e-08 44.59 0.160953 45.4001 0.473628 46.1559C0.786303 46.9117 1.24459 47.5983 1.82232 48.1767C2.40005 48.755 3.08587 49.2137 3.84065 49.5266C4.59543 49.8394 5.40438 50.0003 6.22126 50H31.7811C32.5977 50 33.4064 49.8389 34.1609 49.5259C34.9154 49.2129 35.601 48.7542 36.1785 48.1758C36.756 47.5975 37.2141 46.9109 37.5266 46.1553C37.8391 45.3997 38 44.5898 38 43.7719V11H32.2779Z" fill="#ECE4F4"/>
<path d="M23.0911 21.3953L17.7362 18.2485C17.459 18.0858 17.1446 18.0001 16.8246 18C16.5045 17.9999 16.1901 18.0855 15.9128 18.2481C15.6356 18.4106 15.4052 18.6446 15.2449 18.9263C15.0847 19.2081 15.0003 19.5277 15 19.8532V26.1468C15.0003 26.4722 15.0847 26.7919 15.2449 27.0737C15.4052 27.3554 15.6356 27.5894 15.9128 27.7519C16.1901 27.9145 16.5045 28.0001 16.8246 28C17.1446 27.9999 17.459 27.9142 17.7362 27.7515L23.0911 24.6047C23.3676 24.4416 23.597 24.2076 23.7566 23.9259C23.9161 23.6443 24 23.325 24 23C24 22.675 23.9161 22.3557 23.7566 22.0741C23.597 21.7924 23.3676 21.5584 23.0911 21.3953Z" fill="#A140FF"/>
<path d="M38 11H31.9982C30.673 10.9988 29.4024 10.5132 28.4654 9.64976C27.5283 8.78632 27.0013 7.61558 27 6.39449V0L38 11Z" fill="#A140FF"/>
<path d="M42.3212 39H13.6788C11.6471 39 10 40.7613 10 42.934V52.066C10 54.2387 11.6471 56 13.6788 56H42.3212C44.3529 56 46 54.2387 46 52.066V42.934C46 40.7613 44.3529 39 42.3212 39Z" fill="#A140FF"/>
<path fill-rule="evenodd" clip-rule="evenodd" d="M33.0547 48.3225V49.7243L36.3681 49.7175V50.9862H38.0854V49.7175H38.9301V48.2651H38.0854V44H36.2607L33.0547 48.3225ZM34.7814 48.272L36.508 45.9387V48.272H34.7814Z" fill="white"/>
<path fill-rule="evenodd" clip-rule="evenodd" d="M28.7564 48.5749V50.9931H27.0601V44.0941H29.8111C30.6441 44.0941 31.281 44.2983 31.7174 44.7044C31.9382 44.9177 32.1106 45.1746 32.2232 45.4581C32.3358 45.7417 32.3861 46.0454 32.3707 46.3494C32.3788 46.7505 32.2781 47.1464 32.0791 47.4966C31.8752 47.8381 31.5732 48.1127 31.2111 48.2858C30.7742 48.4897 30.2944 48.5888 29.8111 48.5749H28.7564ZM30.6417 46.3494C30.6417 45.7376 30.3011 45.4317 29.6197 45.4317H28.7564V47.2281H29.6197C30.3011 47.2343 30.6417 46.9414 30.6417 46.3494Z" fill="white"/>
<path d="M25.889 50.9931V44.1446L23.8357 44.1515L21.969 48.9213L20.0744 44.1515H18V51H19.6963V46.7073L21.2153 51H22.683L24.1927 46.7165V50.9931H25.889Z" fill="white"/>
</svg>
