<svg width="46" height="56" viewBox="0 0 46 56" fill="none" xmlns="http://www.w3.org/2000/svg">
<path d="M32.2779 11C31.0145 10.9988 29.5 10.5 28.9097 9.99921C28.0163 9.1045 27.0012 7.76535 27 6.50004V-3.86238e-05L6.22126 4.30137e-07C5.40438 -0.000303572 4.59543 0.160536 3.84065 0.473387C3.08587 0.786238 2.40005 1.24496 1.82232 1.82331C1.24459 2.40167 0.786303 3.08834 0.473628 3.84411C0.160953 4.59988 -5.64026e-08 5.40992 0 6.22799V43.7719C-5.64026e-08 44.59 0.160953 45.4001 0.473628 46.1559C0.786303 46.9117 1.24459 47.5983 1.82232 48.1767C2.40005 48.755 3.08587 49.2137 3.84065 49.5266C4.59543 49.8394 5.40438 50.0003 6.22126 50H31.7811C32.5977 50 33.4064 49.8389 34.1609 49.5259C34.9154 49.2129 35.601 48.7542 36.1785 48.1758C36.756 47.5975 37.2141 46.9109 37.5266 46.1553C37.8391 45.3997 38 44.5898 38 43.7719V11H32.2779Z" fill="#DEF4E6"/>
<path d="M23.0911 21.3953L17.7362 18.2485C17.459 18.0858 17.1446 18.0001 16.8246 18C16.5045 17.9999 16.1901 18.0855 15.9128 18.2481C15.6356 18.4106 15.4052 18.6446 15.2449 18.9263C15.0847 19.2081 15.0003 19.5277 15 19.8532V26.1468C15.0003 26.4722 15.0847 26.7919 15.2449 27.0737C15.4052 27.3554 15.6356 27.5894 15.9128 27.7519C16.1901 27.9145 16.5045 28.0001 16.8246 28C17.1446 27.9999 17.459 27.9142 17.7362 27.7515L23.0911 24.6047C23.3676 24.4416 23.597 24.2076 23.7566 23.9259C23.9161 23.6443 24 23.325 24 23C24 22.675 23.9161 22.3557 23.7566 22.0741C23.597 21.7924 23.3676 21.5584 23.0911 21.3953Z" fill="#00C650"/>
<path d="M38 11H31.9982C30.673 10.9988 29.4024 10.5132 28.4654 9.64976C27.5283 8.78632 27.0013 7.61558 27 6.39449V0L38 11Z" fill="#00C650"/>
<path d="M42.3212 39H13.6788C11.6471 39 10 40.7613 10 42.934V52.066C10 54.2387 11.6471 56 13.6788 56H42.3212C44.3529 56 46 54.2387 46 52.066V42.934C46 40.7613 44.3529 39 42.3212 39Z" fill="#00C650"/>
<path d="M41.055 46.3312C40.9391 45.6493 40.5589 45.0373 39.9934 44.6225C39.3537 44.184 38.5827 43.9664 37.8024 44.0042C37.1597 43.9899 36.5247 44.1418 35.9614 44.4445C35.4414 44.7333 35.0177 45.1626 34.7411 45.681C34.4448 46.245 34.2965 46.8722 34.3094 47.5061C34.298 48.1362 34.4463 48.7593 34.7411 49.3198C35.0174 49.8399 35.4432 50.2696 35.9661 50.5563C36.5375 50.8622 37.1815 51.0149 37.8327 50.9989C38.368 51.0082 38.8984 50.899 39.3844 50.6795C39.8139 50.4827 40.1951 50.198 40.502 49.8445C40.7842 49.5154 40.9996 49.1368 41.1367 48.7289V47.0795H37.5924V48.2726H39.7367C39.628 48.6347 39.401 48.952 39.0904 49.1761C38.7821 49.3946 38.4094 49.5091 38.0287 49.5023C37.7624 49.5186 37.4955 49.4804 37.2452 49.39C36.9949 49.2997 36.7666 49.1592 36.575 48.9776C36.2344 48.6278 36.064 48.1266 36.064 47.4742C36.0363 46.954 36.2095 46.4426 36.5494 46.0415C36.7122 45.867 36.912 45.7294 37.1349 45.6383C37.3578 45.5473 37.5984 45.505 37.8397 45.5145C38.1505 45.5082 38.4568 45.5873 38.724 45.7426C38.9621 45.881 39.1523 46.0861 39.27 46.3312H41.055Z" fill="white"/>
<path fill-rule="evenodd" clip-rule="evenodd" d="M24.7593 50.9282V48.5236H25.8117C26.295 48.5374 26.7748 48.4389 27.2117 48.2362C27.5738 48.064 27.8758 47.791 28.0797 47.4514C28.2771 47.1026 28.3777 46.7093 28.3713 46.3107C28.3868 46.0082 28.3364 45.706 28.2233 45.424C28.1103 45.142 27.9372 44.8867 27.7156 44.675C27.2785 44.2704 26.6439 44.0681 25.8117 44.0681H23.063V50.9282H24.7593ZM25.6226 45.3982C26.304 45.3982 26.6446 45.7024 26.6446 46.3107C26.6446 46.8993 26.304 47.1906 25.6226 47.1845H24.7593V45.3982H25.6226Z" fill="white"/>
<path d="M21.8913 44.1183V50.9282H20.1927V46.6757L18.6854 50.935H17.2153L15.6987 46.6666V50.935H14V44.1252H16.0744L17.9713 48.8681L19.838 44.1252L21.8913 44.1183Z" fill="white"/>
<path d="M30.9027 45.3891V46.824H33.2734V48.0765H30.9027V49.6004H33.5721V50.9282H29.2041V44.0681H33.5721V45.3891H30.9027Z" fill="white"/>
</svg>
