<svg width="46" height="56" viewBox="0 0 46 56" fill="none" xmlns="http://www.w3.org/2000/svg">
<path d="M32.2779 11C31.0145 10.9988 29.5 10.5 28.9097 9.99921C28.0163 9.1045 27.0012 7.76535 27 6.50004V-3.86238e-05L6.22126 4.30137e-07C5.40438 -0.000303572 4.59543 0.160536 3.84065 0.473387C3.08587 0.786238 2.40005 1.24496 1.82232 1.82331C1.24459 2.40167 0.786303 3.08834 0.473628 3.84411C0.160953 4.59988 -5.64026e-08 5.40992 0 6.22799V43.7719C-5.64026e-08 44.59 0.160953 45.4001 0.473628 46.1559C0.786303 46.9117 1.24459 47.5983 1.82232 48.1767C2.40005 48.755 3.08587 49.2137 3.84065 49.5266C4.59543 49.8394 5.40438 50.0003 6.22126 50H31.7811C32.5977 50 33.4064 49.8389 34.1609 49.5259C34.9154 49.2129 35.601 48.7542 36.1785 48.1758C36.756 47.5975 37.2141 46.9109 37.5266 46.1553C37.8391 45.3997 38 44.5898 38 43.7719V11H32.2779Z" fill="#F9ECDB"/>
<path d="M23.0911 21.3953L17.7362 18.2485C17.459 18.0858 17.1446 18.0001 16.8246 18C16.5045 17.9999 16.1901 18.0855 15.9128 18.2481C15.6356 18.4106 15.4052 18.6446 15.2449 18.9263C15.0847 19.2081 15.0003 19.5277 15 19.8532V26.1468C15.0003 26.4722 15.0847 26.7919 15.2449 27.0737C15.4052 27.3554 15.6356 27.5894 15.9128 27.7519C16.1901 27.9145 16.5045 28.0001 16.8246 28C17.1446 27.9999 17.459 27.9142 17.7362 27.7515L23.0911 24.6047C23.3676 24.4416 23.597 24.2076 23.7566 23.9259C23.9161 23.6443 24 23.325 24 23C24 22.675 23.9161 22.3557 23.7566 22.0741C23.597 21.7924 23.3676 21.5584 23.0911 21.3953Z" fill="#FF9908"/>
<path d="M38 11H31.9982C30.673 10.9988 29.4024 10.5132 28.4654 9.64976C27.5283 8.78632 27.0013 7.61558 27 6.39449V0L38 11Z" fill="#FF9908"/>
<path d="M42.3212 39H13.6788C11.6471 39 10 40.7613 10 42.934V52.066C10 54.2387 11.6471 56 13.6788 56H42.3212C44.3529 56 46 54.2387 46 52.066V42.934C46 40.7613 44.3529 39 42.3212 39Z" fill="#FF9908"/>
<path d="M30.1491 44.6147C30.6951 45.0244 31.0622 45.6288 31.1742 46.3022H29.4507C29.337 46.0601 29.1533 45.8576 28.9235 45.7209C28.6655 45.5675 28.3697 45.4895 28.0696 45.4956C27.8366 45.4863 27.6043 45.528 27.3891 45.618C27.1738 45.7079 26.9809 45.8437 26.8237 46.0161C26.4956 46.4122 26.3283 46.9172 26.3551 47.4309C26.3551 48.0753 26.5195 48.5702 26.8485 48.9156C27.0334 49.095 27.2538 49.2337 27.4955 49.323C27.7373 49.4122 27.9949 49.45 28.2521 49.4338C28.6197 49.4405 28.9795 49.3274 29.2772 49.1117C29.5771 48.8904 29.7963 48.5771 29.9013 48.2195H27.8308V47.0412H31.253V48.6701C31.1206 49.0729 30.9127 49.4468 30.6402 49.7718C30.3438 50.1209 29.9758 50.4021 29.5611 50.5964C29.0918 50.8131 28.5797 50.921 28.0629 50.9118C27.434 50.9276 26.8122 50.7768 26.2605 50.4747C25.7556 50.1916 25.3445 49.7672 25.0777 49.2536C24.7931 48.7001 24.6499 48.0848 24.6609 47.4625C24.6484 46.8364 24.7916 46.2171 25.0777 45.6601C25.3448 45.1482 25.7539 44.7242 26.256 44.439C26.7999 44.14 27.4131 43.99 28.0335 44.0042C28.787 43.9668 29.5314 44.1817 30.1491 44.6147Z" fill="white"/>
<path fill-rule="evenodd" clip-rule="evenodd" d="M23.3835 45.6854C23.0918 45.17 22.6659 44.7433 22.1511 44.4507C21.6228 44.1499 21.0242 43.9944 20.4163 44.0002C19.8099 43.9948 19.2128 44.1503 18.686 44.4507C18.1705 44.7432 17.7438 45.1698 17.4514 45.6854C17.1446 46.2309 16.989 46.8485 17.0008 47.4742C16.9874 48.1045 17.143 48.7268 17.4514 49.2766C17.7423 49.795 18.1692 50.2243 18.686 50.518C19.2128 50.8185 19.8099 50.974 20.4163 50.9686C21.0228 50.9743 21.6199 50.8188 22.1466 50.518C22.6635 50.2237 23.091 49.7946 23.3835 49.2766C23.6909 48.7264 23.8464 48.1044 23.8341 47.4742C23.8438 46.8487 23.6883 46.2317 23.3835 45.6854ZM18.659 47.4742C18.6304 46.9568 18.7995 46.4478 19.1321 46.0504H19.1366C19.299 45.8765 19.497 45.7399 19.7171 45.6496C19.9372 45.5594 20.1741 45.5178 20.4118 45.5277C20.6507 45.5167 20.889 45.5582 21.1101 45.6493C21.3312 45.7403 21.5297 45.8788 21.6915 46.0549C22.0227 46.4513 22.1918 46.9584 22.1646 47.4742C22.1918 47.9902 22.0209 48.4971 21.687 48.8914C21.5254 49.0665 21.3276 49.2043 21.1074 49.2954C20.8872 49.3864 20.6499 49.4284 20.4118 49.4186C20.1729 49.4294 19.9346 49.3878 19.7135 49.2968C19.4924 49.2057 19.294 49.0673 19.1321 48.8914C18.8012 48.4957 18.6322 47.9894 18.659 47.4742Z" fill="white"/>
<path d="M35.2806 49.3238L33.6201 44.2253H31.8696L34.2172 51H36.335L38.6916 44.2253H36.9388L35.2806 49.3238Z" fill="white"/>
</svg>
