<svg width="46" height="56" viewBox="0 0 46 56" fill="none" xmlns="http://www.w3.org/2000/svg">
<path d="M32.2779 11C31.0145 10.9988 29.5 10.5 28.9097 9.99921C28.0163 9.1045 27.0012 7.76535 27 6.50004V-3.86238e-05L6.22126 4.30137e-07C5.40438 -0.000303572 4.59543 0.160536 3.84065 0.473387C3.08587 0.786238 2.40005 1.24496 1.82232 1.82331C1.24459 2.40167 0.786303 3.08834 0.473628 3.84411C0.160953 4.59988 -5.64026e-08 5.40992 0 6.22799V43.7719C-5.64026e-08 44.59 0.160953 45.4001 0.473628 46.1559C0.786303 46.9117 1.24459 47.5983 1.82232 48.1767C2.40005 48.755 3.08587 49.2137 3.84065 49.5266C4.59543 49.8394 5.40438 50.0003 6.22126 50H31.7811C32.5977 50 33.4064 49.8389 34.1609 49.5259C34.9154 49.2129 35.601 48.7542 36.1785 48.1758C36.756 47.5975 37.2141 46.9109 37.5266 46.1553C37.8391 45.3997 38 44.5898 38 43.7719V11H32.2779Z" fill="#E8F1F8"/>
<path d="M10 15H13V18H10V15Z" fill="#005FAD"/>
<path fill-rule="evenodd" clip-rule="evenodd" d="M16 18H13V21H10V24H13V27H10V30H13V33H16V30H19V33H22V30H25V33H28V30H25V27H28V24H25V21H28V18H25V15H22V18H19V15H16V18ZM16 21V18H19V21H16ZM16 24V21H13V24H16ZM19 24V21H22V24H19ZM19 27V24H16V27H13V30H16V27H19ZM22 27V30H19V27H22ZM22 27V24H25V27H22ZM22 21V18H25V21H22Z" fill="#005FAD"/>
<path d="M38 11H31.9982C30.673 10.9988 29.4024 10.5132 28.4654 9.64976C27.5283 8.78632 27.0013 7.61558 27 6.39449V0L38 11Z" fill="#005FAD"/>
<path d="M42.3212 39H13.6788C11.6471 39 10 40.7613 10 42.934V52.066C10 54.2387 11.6471 56 13.6788 56H42.3212C44.3529 56 46 54.2387 46 52.066V42.934C46 40.7613 44.3529 39 42.3212 39Z" fill="#005FAD"/>
<path d="M38.0667 46.3311C37.9517 45.6489 37.5713 45.0366 37.005 44.6224C36.3677 44.1844 35.5991 43.9668 34.821 44.0041C34.1784 43.9892 33.5431 44.1412 32.98 44.4444C32.4596 44.7326 32.0357 45.1621 31.7597 45.6809C31.4624 46.2446 31.3141 46.872 31.3281 47.506C31.3156 48.1363 31.464 48.7596 31.7597 49.3197C32.0361 49.8398 32.4619 50.2696 32.9847 50.5563C33.5561 50.8623 34.2001 51.015 34.8514 50.9988C35.3874 51.0083 35.9186 50.8992 36.4054 50.6794C36.8347 50.4835 37.2153 50.1986 37.5207 49.8445C37.8035 49.5155 38.0197 49.1369 38.1577 48.7289V47.0566H34.5947V48.2498H36.7367C36.6336 48.62 36.4069 48.946 36.0927 49.176C35.7843 49.3942 35.4117 49.5087 35.0311 49.5023C34.7647 49.5187 34.4978 49.4806 34.2475 49.3902C33.9971 49.2999 33.7689 49.1593 33.5774 48.9775C33.2367 48.6277 33.0664 48.1266 33.0664 47.4741C33.0374 46.9538 33.2108 46.442 33.5517 46.0414C33.7143 45.8666 33.9141 45.7289 34.137 45.6378C34.36 45.5468 34.6006 45.5046 34.8421 45.5144C35.1528 45.5085 35.459 45.5875 35.7264 45.7425C35.963 45.882 36.1522 46.0868 36.2701 46.3311H38.0667Z" fill="white"/>
<path fill-rule="evenodd" clip-rule="evenodd" d="M19.6987 50.9282V48.5236H20.7487C21.2321 48.5383 21.7121 48.4397 22.1487 48.2361C22.5117 48.0652 22.814 47.7919 23.0167 47.4513C23.2165 47.1034 23.318 46.7096 23.3107 46.3106C23.3255 46.0082 23.2748 45.7061 23.1618 45.4242C23.0488 45.1423 22.8761 44.8869 22.655 44.6749C22.2194 44.2703 21.584 44.068 20.7487 44.068H18V50.9282H19.6987ZM20.562 45.3981C21.2433 45.3981 21.584 45.7023 21.584 46.3106C21.584 46.8992 21.2433 47.1905 20.562 47.1844H19.6987V45.3981H20.562Z" fill="white"/>
<path d="M30.3763 50.9282H28.6799L25.8379 46.7167V50.9282H24.1416V44.068H25.8379L28.6776 48.3183V44.068H30.3739L30.3763 50.9282Z" fill="white"/>
</svg>
