<svg width="46" height="56" viewBox="0 0 46 56" fill="none" xmlns="http://www.w3.org/2000/svg">
<path d="M32.2779 11C31.0145 10.9988 29.5 10.5 28.9097 9.99921C28.0163 9.1045 27.0012 7.76535 27 6.50004V-3.86238e-05L6.22126 4.30137e-07C5.40438 -0.000303572 4.59543 0.160536 3.84065 0.473387C3.08587 0.786238 2.40005 1.24496 1.82232 1.82331C1.24459 2.40167 0.786303 3.08834 0.473628 3.84411C0.160953 4.59988 -5.64026e-08 5.40992 0 6.22799V43.7719C-5.64026e-08 44.59 0.160953 45.4001 0.473628 46.1559C0.786303 46.9117 1.24459 47.5983 1.82232 48.1767C2.40005 48.755 3.08587 49.2137 3.84065 49.5266C4.59543 49.8394 5.40438 50.0003 6.22126 50H31.7811C32.5977 50 33.4064 49.8389 34.1609 49.5259C34.9154 49.2129 35.601 48.7542 36.1785 48.1758C36.756 47.5975 37.2141 46.9109 37.5266 46.1553C37.8391 45.3997 38 44.5898 38 43.7719V11H32.2779Z" fill="#F6E5E6"/>
<path d="M38 11H31.9982C30.673 10.9988 29.4024 10.5132 28.4654 9.64976C27.5283 8.78632 27.0013 7.61558 27 6.39449V0L38 11Z" fill="#FF3E4C"/>
<path d="M4.87496 16.7476H15.0689C15.2989 16.7451 15.5187 16.6522 15.6807 16.4889C15.8427 16.3255 15.9339 16.105 15.9345 15.875C15.9345 15.6429 15.8423 15.4204 15.6783 15.2563C15.5142 15.0922 15.2916 15 15.0595 15H4.87496C4.64291 15 4.42037 15.0922 4.25628 15.2563C4.09219 15.4204 4 15.6429 4 15.875C4.00062 16.1066 4.09306 16.3286 4.25708 16.4922C4.4211 16.6557 4.64331 16.7476 4.87496 16.7476Z" fill="#FF3E4C"/>
<path d="M4.87496 21.9671H15.0689C15.2989 21.9646 15.5187 21.8717 15.6807 21.7083C15.8427 21.545 15.9339 21.3245 15.9345 21.0944C15.9345 20.8624 15.8423 20.6398 15.6783 20.4757C15.5142 20.3116 15.2916 20.2195 15.0595 20.2195H4.87496C4.64291 20.2195 4.42037 20.3116 4.25628 20.4757C4.09219 20.6398 4 20.8624 4 21.0944C4.00062 21.3261 4.09306 21.548 4.25708 21.7116C4.4211 21.8752 4.64331 21.9671 4.87496 21.9671Z" fill="#FF3E4C"/>
<path d="M15.0689 27.1865H4.87496C4.64291 27.1865 4.42037 27.0943 4.25628 26.9302C4.09219 26.7662 4 26.5436 4 26.3116C4.00185 26.0807 4.09484 25.86 4.25873 25.6974C4.42262 25.5348 4.64412 25.4436 4.87496 25.4436H15.0595C15.2912 25.4436 15.5134 25.5354 15.6774 25.699C15.8414 25.8626 15.9339 26.0846 15.9345 26.3162C15.9333 26.5459 15.8419 26.7658 15.6799 26.9286C15.518 27.0915 15.2985 27.1841 15.0689 27.1865Z" fill="#FF3E4C"/>
<path d="M4.87496 32.406H15.0689C15.2993 32.4035 15.5195 32.3102 15.6816 32.1464C15.8436 31.9826 15.9345 31.7615 15.9345 31.531C15.9339 31.2994 15.8414 31.0774 15.6774 30.9138C15.5134 30.7502 15.2912 30.6584 15.0595 30.6584H4.87496C4.64331 30.6584 4.4211 30.7502 4.25708 30.9138C4.09306 31.0774 4.00062 31.2994 4 31.531C4 31.7631 4.09219 31.9856 4.25628 32.1497C4.42037 32.3138 4.64291 32.406 4.87496 32.406Z" fill="#FF3E4C"/>
<path d="M24.9992 24.7436V16.9879C23.1098 17.0877 21.3306 17.9084 20.0283 19.281C18.726 20.6537 17.9999 22.4735 17.9995 24.3656C17.9992 25.3357 18.1901 26.2965 18.5612 27.1929C18.9323 28.0892 19.4764 28.9037 20.1624 29.5897C20.8484 30.2757 21.6629 30.8199 22.5593 31.191C23.4557 31.5621 24.4164 31.7529 25.3865 31.7526C27.2785 31.7528 29.0985 31.0268 30.4708 29.7243C31.8432 28.4219 32.6633 26.6424 32.7619 24.7529L24.9992 24.7436Z" fill="#FF3E4C"/>
<path d="M26.4131 23.3974V16.3976C28.2393 16.4911 29.9658 17.2586 31.2588 18.5516C32.5518 19.8446 33.3193 21.5712 33.4128 23.3974H26.4131Z" fill="#FF3E4C"/>
<path d="M42.3212 39H13.6788C11.647 39 10 40.7613 10 42.934V52.066C10 54.2387 11.647 56 13.6788 56H42.3212C44.353 56 46 54.2387 46 52.066V42.934C46 40.7613 44.353 39 42.3212 39Z" fill="#FF3E4C"/>
<path fill-rule="evenodd" clip-rule="evenodd" d="M20.6963 51V48.5441L21.7462 48.5464C22.2294 48.5621 22.7094 48.4624 23.1462 48.2554C23.5096 48.0796 23.8125 47.8 24.0165 47.4523C24.2149 47.0967 24.3155 46.6952 24.3081 46.2883C24.323 45.9797 24.2723 45.6715 24.1593 45.3838C24.0463 45.0961 23.8735 44.8356 23.6525 44.6192C23.2169 44.2064 22.5823 44 21.7486 44H19V51H20.6963ZM21.5596 45.3571C22.2409 45.3571 22.5815 45.6675 22.5815 46.2883C22.5815 46.8889 22.2409 47.1861 21.5596 47.1799H20.6963V45.3571H21.5596Z" fill="white"/>
<path fill-rule="evenodd" clip-rule="evenodd" d="M26.8397 48.5441V51H25.1411V44H27.8897C28.725 44 29.3604 44.2064 29.796 44.6192C30.017 44.8356 30.1897 45.0961 30.3027 45.3838C30.4157 45.6715 30.4664 45.9797 30.4516 46.2883C30.4592 46.6955 30.3577 47.0973 30.1576 47.4523C29.9551 47.8004 29.6528 48.0802 29.2896 48.2554C28.8529 48.4624 28.3729 48.5621 27.8897 48.5464L26.8397 48.5441ZM28.725 46.2883C28.725 45.6675 28.3843 45.3571 27.703 45.3571H26.8397V47.1799H27.703C28.3843 47.1861 28.725 46.8889 28.725 46.2883Z" fill="white"/>
<path d="M36.3266 45.3479V44H30.8271V45.3479H32.7148V51H34.4203V45.3479H36.3266Z" fill="white"/>
</svg>
