<svg width="46" height="56" viewBox="0 0 46 56" fill="none" xmlns="http://www.w3.org/2000/svg">
<path d="M32.2779 11C31.0145 10.9988 29.5 10.5 28.9097 9.99921C28.0163 9.1045 27.0012 7.76535 27 6.50004V-3.86238e-05L6.22126 4.30137e-07C5.40438 -0.000303572 4.59543 0.160536 3.84065 0.473387C3.08587 0.786238 2.40005 1.24496 1.82232 1.82331C1.24459 2.40167 0.786303 3.08834 0.473628 3.84411C0.160953 4.59988 -5.64026e-08 5.40992 0 6.22799V43.7719C-5.64026e-08 44.59 0.160953 45.4001 0.473628 46.1559C0.786303 46.9117 1.24459 47.5983 1.82232 48.1767C2.40005 48.755 3.08587 49.2137 3.84065 49.5266C4.59543 49.8394 5.40438 50.0003 6.22126 50H31.7811C32.5977 50 33.4064 49.8389 34.1609 49.5259C34.9154 49.2129 35.601 48.7542 36.1785 48.1758C36.756 47.5975 37.2141 46.9109 37.5266 46.1553C37.8391 45.3997 38 44.5898 38 43.7719V11H32.2779Z" fill="#ECE4F4"/>
<path d="M24.6117 19.7646C24.6117 20.3974 24.0987 20.9103 23.466 20.9103C22.8332 20.9103 22.3203 20.3974 22.3203 19.7646C22.3203 19.1319 22.8332 18.619 23.466 18.619C24.0987 18.619 24.6117 19.1319 24.6117 19.7646Z" fill="#A140FF"/>
<path fill-rule="evenodd" clip-rule="evenodd" d="M24.112 32.9177H13.8057C12.7967 32.9164 11.8295 32.5151 11.116 31.8017C10.4026 31.0882 10.0012 30.1209 10 29.112V18.8057C10.0012 17.7967 10.4026 16.8295 11.116 16.116C11.8295 15.4026 12.7967 15.0012 13.8057 15H24.112C25.1207 15.0012 26.0877 15.4027 26.8008 16.1162C27.5139 16.8297 27.9147 17.7969 27.9153 18.8057V29.112C27.9147 30.1207 27.5139 31.088 26.8008 31.8015C26.0877 32.515 25.1207 32.9164 24.112 32.9177ZM13.8057 16.6823C13.2427 16.6829 12.703 16.9069 12.3049 17.3049C11.9068 17.703 11.6829 18.2427 11.6823 18.8057V25.677C13.2947 25.4649 15.484 25.5466 18.0546 26.5733L19.9446 24.772L21.2326 28.0386C21.2326 28.0386 21.5779 26.837 22.6932 27.0073C22.9625 27.0484 23.2719 27.1148 23.5974 27.1846C24.5373 27.3863 25.6105 27.6166 26.233 27.3491V18.8057C26.233 18.2429 26.0096 17.7032 25.6119 17.3051C25.2142 16.9069 24.6747 16.6829 24.112 16.6823H13.8057Z" fill="#A140FF"/>
<path d="M38 11H31.9982C30.673 10.9988 29.4024 10.5132 28.4654 9.64976C27.5283 8.78632 27.0013 7.61558 27 6.39449V0L38 11Z" fill="#A140FF"/>
<path d="M42.3212 39H13.6788C11.6471 39 10 40.7613 10 42.934V52.066C10 54.2387 11.6471 56 13.6788 56H42.3212C44.3529 56 46 54.2387 46 52.066V42.934C46 40.7613 44.3529 39 42.3212 39Z" fill="#A140FF"/>
<path d="M23.4973 44V45.3455H21.5934V51H19.8854V45.3455H18V44H23.4973Z" fill="white"/>
<path d="M25.9145 51V44H24.2158V51H25.9145Z" fill="white"/>
<path d="M31.6642 44V45.3455H28.7872V46.8796H31.0108V48.1669H28.7872V51H27.0908V44H31.6642Z" fill="white"/>
<path d="M37.1075 45.3455V44H32.5342V51H34.2305V48.1669H36.4542V46.8796H34.2305V45.3455H37.1075Z" fill="white"/>
</svg>
