<svg width="46" height="56" viewBox="0 0 46 56" fill="none" xmlns="http://www.w3.org/2000/svg">
<path d="M32.2779 11C31.0145 10.9988 29.5 10.5 28.9097 9.99921C28.0163 9.1045 27.0012 7.76535 27 6.50004V-3.86238e-05L6.22126 4.30137e-07C5.40438 -0.000303572 4.59543 0.160536 3.84065 0.473387C3.08587 0.786238 2.40005 1.24496 1.82232 1.82331C1.24459 2.40167 0.786303 3.08834 0.473628 3.84411C0.160953 4.59988 -5.64026e-08 5.40992 0 6.22799V43.7719C-5.64026e-08 44.59 0.160953 45.4001 0.473628 46.1559C0.786303 46.9117 1.24459 47.5983 1.82232 48.1767C2.40005 48.755 3.08587 49.2137 3.84065 49.5266C4.59543 49.8394 5.40438 50.0003 6.22126 50H31.7811C32.5977 50 33.4064 49.8389 34.1609 49.5259C34.9154 49.2129 35.601 48.7542 36.1785 48.1758C36.756 47.5975 37.2141 46.9109 37.5266 46.1553C37.8391 45.3997 38 44.5898 38 43.7719V11H32.2779Z" fill="#DEF4E6"/>
<path d="M24.6955 17.5903V24.406C24.5563 24.3835 24.4137 24.3718 24.2685 24.3718C22.7599 24.3718 21.5369 25.6317 21.5369 27.1859C21.5369 28.7401 22.7599 30 24.2685 30C25.777 30 27 28.7401 27 27.1859L26.9998 27.1481L26.9851 16.7794C26.9851 16.0423 26.7008 15.3353 26.1949 14.8141C25.6889 14.2928 25.0027 14 24.2872 14H16.8355C16.1198 14 15.4333 14.2928 14.927 14.8139C14.4208 15.3351 14.136 16.0421 14.1355 16.7794V24.4024C14.0037 24.3822 13.8688 24.3718 13.7315 24.3718C12.223 24.3718 11 25.6317 11 27.1859C11 28.7401 12.223 30 13.7315 30C15.2401 30 16.4631 28.7401 16.4631 27.1859C16.4631 27.0937 16.4588 27.0025 16.4504 26.9126V17.5903C16.4504 17.2688 16.5743 16.9606 16.7949 16.7333C17.0155 16.506 17.3147 16.3783 17.6267 16.3783H23.5191C23.8311 16.3783 24.1303 16.506 24.3509 16.7333C24.5715 16.9606 24.6955 17.2688 24.6955 17.5903Z" fill="#00C650"/>
<path d="M38 11H31.9982C30.673 10.9988 29.4024 10.5132 28.4654 9.64976C27.5283 8.78632 27.0013 7.61558 27 6.39449V0L38 11Z" fill="#00C650"/>
<path d="M42.3212 39H13.6788C11.6471 39 10 40.7613 10 42.934V52.066C10 54.2387 11.6471 56 13.6788 56H42.3212C44.3529 56 46 54.2387 46 52.066V42.934C46 40.7613 44.3529 39 42.3212 39Z" fill="#00C650"/>
<path d="M24.1104 51L25.7842 44H23.973L23.0629 49.0702L21.8337 44H19.9714L18.7423 49.0702L17.8414 44H16L17.6738 51H19.7689L20.8979 46.3163L22.0153 51H24.1104Z" fill="white"/>
<path fill-rule="evenodd" clip-rule="evenodd" d="M31.0126 49.722H28.3867L27.9514 51H26.1706L28.7313 44.0489H30.682L33.2427 51H31.4409L31.0126 49.722ZM30.575 48.4346L29.7043 45.8623L28.8244 48.4346H30.575Z" fill="white"/>
<path d="M36.923 49.268L35.2097 44H33.3986L35.8243 51H38.0125L40.4475 44H38.6364L36.923 49.268Z" fill="white"/>
</svg>
