<svg width="46" height="56" viewBox="0 0 46 56" fill="none" xmlns="http://www.w3.org/2000/svg">
<path d="M32.2779 11C31.0145 10.9988 29.5 10.5 28.9097 9.99921C28.0163 9.1045 27.0012 7.76535 27 6.50004V-3.86238e-05L6.22126 4.30137e-07C5.40438 -0.000303572 4.59543 0.160536 3.84065 0.473387C3.08587 0.786238 2.40005 1.24496 1.82232 1.82331C1.24459 2.40167 0.786303 3.08834 0.473628 3.84411C0.160953 4.59988 -5.64026e-08 5.40992 0 6.22799V43.7719C-5.64026e-08 44.59 0.160953 45.4001 0.473628 46.1559C0.786303 46.9117 1.24459 47.5983 1.82232 48.1767C2.40005 48.755 3.08587 49.2137 3.84065 49.5266C4.59543 49.8394 5.40438 50.0003 6.22126 50H31.7811C32.5977 50 33.4064 49.8389 34.1609 49.5259C34.9154 49.2129 35.601 48.7542 36.1785 48.1758C36.756 47.5975 37.2141 46.9109 37.5266 46.1553C37.8391 45.3997 38 44.5898 38 43.7719V11H32.2779Z" fill="#DEF4E6"/>
<path d="M38 11H31.9982C30.673 10.9988 29.4024 10.5132 28.4654 9.64976C27.5283 8.78632 27.0013 7.61558 27 6.39449V0L38 11Z" fill="#00C650"/>
<path d="M27 16C29.2091 16 31 17.7909 31 20V31C31 33.2091 29.2091 35 27 35H12C9.79086 35 8 33.2091 8 31V20C8 17.7909 9.79086 16 12 16H27ZM9.5 31C9.5 32.3807 10.6193 33.5 12 33.5H15V29.6826H9.5V31ZM16.6826 33.5H22.2998V29.6826H16.6826V33.5ZM23.9824 33.5H27C28.3807 33.5 29.5 32.3807 29.5 31V29.6826H23.9824V33.5ZM9.5 28H15V23.6357H9.5V28ZM16.6826 23.6357V28H22.2998V23.6357H16.6826ZM23.9824 28H29.5V23.6357H23.9824V28ZM12 17.5C10.6193 17.5 9.5 18.6193 9.5 20V21.9531H15V17.5H12ZM16.6826 21.9531H22.2998V17.5H16.6826V21.9531ZM23.9824 17.5V21.9531H29.5V20C29.5 18.6193 28.3807 17.5 27 17.5H23.9824Z" fill="#00C650"/>
<path d="M42.3212 39H13.6788C11.647 39 10 40.7613 10 42.934V52.066C10 54.2387 11.647 56 13.6788 56H42.3212C44.353 56 46 54.2387 46 52.066V42.934C46 40.7613 44.353 39 42.3212 39Z" fill="#00C650"/>
<path d="M18.0966 44.4545L19.2919 46.5224H19.343L20.5511 44.4545H22.3217L20.3466 47.7273L22.3857 51H20.5703L19.343 48.9098H19.2919L18.0646 51H16.2621L18.2915 47.7273L16.3132 44.4545H18.0966ZM23.1399 51V44.4545H24.7219V49.7152H27.445V51H23.1399ZM31.8019 46.4169C31.7806 46.1825 31.6858 46.0004 31.5175 45.8704C31.3513 45.7383 31.1137 45.6722 30.8048 45.6722C30.6002 45.6722 30.4298 45.6989 30.2934 45.7521C30.157 45.8054 30.0548 45.8789 29.9866 45.9727C29.9184 46.0643 29.8833 46.1697 29.8811 46.2891C29.8769 46.3871 29.896 46.4734 29.9387 46.5479C29.9834 46.6225 30.0473 46.6886 30.1304 46.7461C30.2156 46.8015 30.3179 46.8505 30.4372 46.8931C30.5566 46.9357 30.6908 46.973 30.8399 47.005L31.4024 47.1328C31.7263 47.2031 32.0118 47.2969 32.259 47.4141C32.5083 47.5312 32.7171 47.6708 32.8854 47.8327C33.0558 47.9947 33.1847 48.1811 33.2721 48.392C33.3595 48.603 33.4042 48.8395 33.4063 49.1016C33.4042 49.5149 33.2998 49.8697 33.0931 50.1658C32.8865 50.462 32.5892 50.6889 32.2014 50.8466C31.8158 51.0043 31.3502 51.0831 30.8048 51.0831C30.2572 51.0831 29.7799 51.0011 29.373 50.837C28.966 50.6729 28.6496 50.4237 28.4237 50.0891C28.1979 49.7546 28.0818 49.3317 28.0754 48.8203H29.5903C29.6031 49.0312 29.6595 49.207 29.7597 49.3477C29.8598 49.4883 29.9972 49.5948 30.172 49.6673C30.3488 49.7397 30.5534 49.7759 30.7856 49.7759C30.9987 49.7759 31.1798 49.7472 31.3289 49.6896C31.4802 49.6321 31.5963 49.5522 31.6773 49.4499C31.7583 49.3477 31.7998 49.2305 31.8019 49.0984C31.7998 48.9748 31.7615 48.8693 31.6869 48.782C31.6123 48.6925 31.4972 48.6158 31.3417 48.5518C31.1883 48.4858 30.9923 48.4251 30.7536 48.3697L30.0697 48.2099C29.5029 48.0799 29.0566 47.87 28.7306 47.5803C28.4046 47.2884 28.2426 46.8942 28.2448 46.3977C28.2426 45.9929 28.3513 45.6381 28.5708 45.3335C28.7902 45.0288 29.0938 44.7912 29.4816 44.6207C29.8694 44.4503 30.3115 44.3651 30.808 44.3651C31.3151 44.3651 31.7551 44.4513 32.1279 44.6239C32.5029 44.7944 32.7938 45.0341 33.0004 45.343C33.2071 45.652 33.3126 46.0099 33.3169 46.4169H31.8019ZM35.8066 44.4545L37.0019 46.5224H37.053L38.2611 44.4545H40.0317L38.0566 47.7273L40.0956 51H38.2803L37.053 48.9098H37.0019L35.7746 51H33.972L36.0015 47.7273L34.0232 44.4545H35.8066Z" fill="white"/>
</svg>
