<svg width="46" height="56" viewBox="0 0 46 56" fill="none" xmlns="http://www.w3.org/2000/svg">
<path d="M32.2779 11C31.0145 10.9988 29.5 10.5 28.9097 9.99921C28.0163 9.1045 27.0012 7.76535 27 6.50004V-3.86238e-05L6.22126 4.30137e-07C5.40438 -0.000303572 4.59543 0.160536 3.84065 0.473387C3.08587 0.786238 2.40005 1.24496 1.82232 1.82331C1.24459 2.40167 0.786303 3.08834 0.473628 3.84411C0.160953 4.59988 -5.64026e-08 5.40992 0 6.22799V43.7719C-5.64026e-08 44.59 0.160953 45.4001 0.473628 46.1559C0.786303 46.9117 1.24459 47.5983 1.82232 48.1767C2.40005 48.755 3.08587 49.2137 3.84065 49.5266C4.59543 49.8394 5.40438 50.0003 6.22126 50H31.7811C32.5977 50 33.4064 49.8389 34.1609 49.5259C34.9154 49.2129 35.601 48.7542 36.1785 48.1758C36.756 47.5975 37.2141 46.9109 37.5266 46.1553C37.8391 45.3997 38 44.5898 38 43.7719V11H32.2779Z" fill="#ECE4F4"/>
<path d="M10.0514 23.7697C10.0489 23.6691 10.0801 23.5705 10.1401 23.4897C10.2109 23.3988 10.296 23.32 10.3921 23.2564C10.5375 23.1806 10.688 23.1151 10.8424 23.0604L11.2928 22.8737L13.0941 22.1154C13.3445 21.9987 13.8112 21.8043 14.4941 21.532L15.3505 21.182L15.6584 21.0724L15.7121 21.049C15.7267 21.0457 15.7419 21.0457 15.7565 21.049C15.7909 21.0336 15.8283 21.0256 15.8661 21.0257C15.9384 21.022 16.0106 21.0326 16.0787 21.0571C16.1468 21.0815 16.2094 21.1192 16.2628 21.168C16.3073 21.2111 16.3428 21.2625 16.3673 21.3194C16.3917 21.3763 16.4046 21.4375 16.4051 21.4994V22.092C16.403 22.2024 16.3681 22.3096 16.3048 22.4C16.2413 22.502 16.145 22.5793 16.0318 22.6194L12.3521 24.1244L16.0318 25.6294C16.141 25.674 16.2356 25.7484 16.3048 25.844C16.3705 25.9305 16.4058 26.0364 16.4051 26.145V26.7377C16.4037 26.8641 16.3525 26.9848 16.2628 27.0737C16.2103 27.1241 16.148 27.1632 16.0797 27.1885C16.0115 27.2138 15.9388 27.2248 15.8661 27.2207C15.8286 27.2205 15.7914 27.2134 15.7565 27.1997L15.6584 27.167L15.3505 27.0574L14.4941 26.705L13.0941 26.124L11.2928 25.3657L10.8424 25.179C10.6954 25.1207 10.5461 25.0554 10.3921 24.9807C10.2963 24.9363 10.2141 24.8669 10.1542 24.7799C10.0943 24.6929 10.0587 24.5914 10.0514 24.486V23.7697Z" fill="#A140FF"/>
<path d="M17.4202 27.8554C17.2747 27.8605 17.1326 27.8114 17.0212 27.7177C16.9716 27.6793 16.9314 27.6302 16.9035 27.574C16.8756 27.5179 16.8608 27.4561 16.8602 27.3934C16.8602 27.3047 17.1238 26.6934 17.6512 25.5267L18.4212 23.8351L18.5845 23.4827L19.8259 20.7271L20.2645 19.7727L20.3532 19.5534C20.3872 19.4724 20.4278 19.3944 20.4745 19.3201C20.5361 19.219 20.6234 19.1362 20.7276 19.08C20.8317 19.0238 20.949 18.9963 21.0672 19.0004H21.6155C21.7617 18.9954 21.9045 19.0444 22.0168 19.1381C22.066 19.1767 22.1058 19.2259 22.1333 19.2821C22.1607 19.3382 22.1752 19.3999 22.1755 19.4624C21.9888 20.0065 21.769 20.5387 21.5175 21.0561L21.3962 21.3197L20.4629 23.3614L19.2215 26.1171L18.7829 27.0737L18.6942 27.2931C18.6628 27.3807 18.6229 27.4651 18.5752 27.5451C18.5091 27.6445 18.4192 27.7258 18.3136 27.7816C18.2081 27.8375 18.0903 27.866 17.9709 27.8647L17.4202 27.8554Z" fill="#A140FF"/>
<path d="M23.1858 27.2254C23.1117 27.2301 23.0374 27.2194 22.9675 27.1941C22.8977 27.1688 22.8338 27.1294 22.7798 27.0784C22.7347 27.0348 22.6989 26.9826 22.6745 26.9249C22.65 26.8672 22.6374 26.8051 22.6375 26.7424V26.1497C22.6364 26.0421 22.6691 25.9369 22.7308 25.8487C22.8006 25.7508 22.8981 25.676 23.0108 25.6341L26.6998 24.1291L23.0108 22.6241C22.8985 22.5745 22.8029 22.4934 22.7355 22.3907C22.6735 22.3016 22.6394 22.196 22.6375 22.0874V21.4854C22.6376 21.423 22.6506 21.3613 22.676 21.3042C22.7013 21.2471 22.7382 21.196 22.7845 21.1541C22.8946 21.0561 23.0386 21.005 23.1858 21.0117C23.2207 21.0109 23.2553 21.0189 23.2862 21.0351C23.3063 21.0315 23.3268 21.0315 23.3469 21.0351L23.3958 21.0584C23.3795 21.0584 23.4798 21.0864 23.6922 21.1681L24.5602 21.5181C24.5151 21.4978 24.9817 21.6923 25.9602 22.1014C26.4937 22.3207 27.105 22.5805 27.7941 22.8807C27.8385 22.8947 27.8968 22.9181 27.9715 22.9461L28.2235 23.0464C28.3713 23.0991 28.5142 23.1647 28.6505 23.2424C28.7488 23.2867 28.8328 23.3575 28.893 23.447C28.9532 23.5365 28.9872 23.641 28.9912 23.7487V24.4721C28.9902 24.5714 28.9574 24.6679 28.8978 24.7474C28.8332 24.8384 28.7486 24.9135 28.6505 24.9667C28.5198 25.0321 28.3612 25.1021 28.1838 25.1767L27.7172 25.3634L23.6525 27.0644C23.5358 27.1227 23.4658 27.1601 23.4448 27.1741L23.4005 27.2067L23.1858 27.2254Z" fill="#A140FF"/>
<path d="M38 11H31.9982C30.673 10.9988 29.4024 10.5132 28.4654 9.64976C27.5283 8.78632 27.0013 7.61558 27 6.39449V0L38 11Z" fill="#A140FF"/>
<path d="M42.3212 39H13.6788C11.6471 39 10 40.7613 10 42.934V52.066C10 54.2387 11.6471 56 13.6788 56H42.3212C44.3529 56 46 54.2387 46 52.066V42.934C46 40.7613 44.3529 39 42.3212 39Z" fill="#A140FF"/>
<path d="M21.283 48.8163L22.7624 50.9931H24.7783L22.4147 47.5209L24.629 44H22.6924L21.4533 46.107L20.0137 44H18L20.3124 47.393L18.0677 50.9931H20.0137L21.283 48.8163Z" fill="white"/>
<path d="M33.323 44.0488V50.993H31.6243V46.6581L30.117 51H28.647L27.1303 46.6488V51H25.4316V44.0558H27.5059L29.403 48.893L31.258 44.0558L33.323 44.0488Z" fill="white"/>
<path d="M38.454 49.6977H36.1906L36.186 44H34.4873V50.9931H38.454V49.6977Z" fill="white"/>
</svg>
