<svg width="46" height="56" viewBox="0 0 46 56" fill="none" xmlns="http://www.w3.org/2000/svg">
<path d="M32.2779 11C31.0145 10.9988 29.5 10.5 28.9097 9.99921C28.0163 9.1045 27.0012 7.76535 27 6.50004V-3.86238e-05L6.22126 4.30137e-07C5.40438 -0.000303572 4.59543 0.160536 3.84065 0.473387C3.08587 0.786238 2.40005 1.24496 1.82232 1.82331C1.24459 2.40167 0.786303 3.08834 0.473628 3.84411C0.160953 4.59988 -5.64026e-08 5.40992 0 6.22799V43.7719C-5.64026e-08 44.59 0.160953 45.4001 0.473628 46.1559C0.786303 46.9117 1.24459 47.5983 1.82232 48.1767C2.40005 48.755 3.08587 49.2137 3.84065 49.5266C4.59543 49.8394 5.40438 50.0003 6.22126 50H31.7811C32.5977 50 33.4064 49.8389 34.1609 49.5259C34.9154 49.2129 35.601 48.7542 36.1785 48.1758C36.756 47.5975 37.2141 46.9109 37.5266 46.1553C37.8391 45.3997 38 44.5898 38 43.7719V11H32.2779Z" fill="#E8F1F8"/>
<path fill-rule="evenodd" clip-rule="evenodd" d="M18.9679 17.9679H21.9288V15H18.9609V17.9656H16V20.9334H18.9609V23.8966H16V26.8645H16.0025V29.8231C16.0032 30.6078 16.315 31.3602 16.8696 31.9152C17.4242 32.4703 18.1764 32.7827 18.9611 32.784C19.7462 32.7834 20.4989 32.4712 21.054 31.9161C21.6092 31.3609 21.9213 30.6082 21.922 29.8231V26.8622H18.9679V23.899H21.9288V20.9311H18.9679V17.9679ZM17.5168 28.3765V29.8231C17.5168 30.2063 17.6689 30.574 17.9397 30.8452C18.2105 31.1164 18.5778 31.2691 18.9611 31.2697C19.3446 31.2691 19.7121 31.1165 19.9833 30.8453C20.2545 30.5742 20.4071 30.2066 20.4077 29.8231V28.3765H17.5168Z" fill="#005FAD"/>
<path d="M38 11H31.9982C30.673 10.9988 29.4024 10.5132 28.4654 9.64976C27.5283 8.78632 27.0013 7.61558 27 6.39449V0L38 11Z" fill="#005FAD"/>
<path d="M42.3212 39H13.6788C11.6471 39 10 40.7613 10 42.934V52.066C10 54.2387 11.6471 56 13.6788 56H42.3212C44.3529 56 46 54.2387 46 52.066V42.934C46 40.7613 44.3529 39 42.3212 39Z" fill="#005FAD"/>
<path d="M25.9815 49.6335H22.8852L25.9628 45.2873V44H21.0397V45.3572H24.0472L21 49.7126V51H25.9815V49.6335Z" fill="white"/>
<path d="M28.7205 44V51H27.0312V44H28.7205Z" fill="white"/>
<path fill-rule="evenodd" clip-rule="evenodd" d="M31.5879 51V48.544H32.6308C33.1139 48.5579 33.5934 48.4582 34.0308 48.2531C34.3931 48.0765 34.695 47.7971 34.8987 47.4499C35.0986 47.0949 35.2 46.6931 35.1927 46.286C35.2074 45.9778 35.1566 45.6699 35.0436 45.3826C34.9306 45.0954 34.758 44.8352 34.5371 44.6192C34.1008 44.2049 33.4638 44 32.6308 44H29.8916V51H31.5879ZM32.4512 45.3548C33.1325 45.3626 33.4731 45.673 33.4731 46.286C33.4731 46.8866 33.1325 47.183 32.4512 47.1752H31.5879V45.3548H32.4512Z" fill="white"/>
</svg>
