<?xml version="1.0" encoding="utf-8"?>
<!-- Uploaded to: SVG Repo, www.svgrepo.com, Generator: SVG Repo Mixer Tools -->
<svg width="800px" height="800px" viewBox="0 0 1024 1024" class="icon"  version="1.1" xmlns="http://www.w3.org/2000/svg"><path d="M371.754459 539.805346c-63.710283-48.000624-110.109971-68.805307-139.204059-62.414048-43.639883 9.588137-102.137756 128.352156-89.884722 141.112195 12.253034 12.760039 44.191844-90.554068 89.88722-97.030244 30.457756-4.318283 74.252488 16.751141 131.366712 63.205775l7.834849-44.873678z" fill="#F06767" /><path d="M363.582439 543.044683l-4.867746 27.887766c-53.84242-42.156332-95.963785-61.307629-127.215766-56.876956-20.939551 2.967102-38.599805 20.799688-58.535337 52.316409-4.563044 7.210459-19.418537 32.498263-22.293229 36.921444-0.382127 0.589424-0.754263 1.151376-1.113912 1.685854 0.674341-2.95961 1.65838-6.373776 2.939629-10.14759 4.355746-12.81998 11.75602-28.766907 20.657327-44.356683 20.462517-35.84 44.081951-62.046907 61.002927-65.763278 25.704898-5.649483 69.282341 13.549268 129.426107 58.333034z m12.680117-9.22599c-65.378654-49.2544-113.3568-70.76839-145.320585-63.745249-22.498029 4.942673-48.317815 33.592195-70.800859 72.971239-21.204293 37.136234-32.5632 70.568585-22.877658 80.648741 4.870244 5.072546 11.204059 4.190907 16.354029-0.199804 2.934634-2.502556 5.91922-6.341307 9.618107-12.033249 3.106966-4.780332 18.024898-30.173034 22.393132-37.078791 17.652761-27.912741 32.955317-43.360156 47.973151-45.488078 27.772878-3.936156 69.974166 16.36402 125.589854 61.594849l9.915317 8.064625 10.816936-61.974478-3.661424-2.759805z" fill="#524F75" /><path d="M221.666029 467.955512c-7.282888 1.820722-9.887844 8.606595-9.897834 16.538849 0.676839 7.437737 1.438595 12.847454 2.277776 16.226654 0.986537 3.97362 2.967102 9.595629 5.9392 16.866029 4.558049 7.90478 9.191024 11.758517 16.473912 9.937795 7.282888-1.820722 10.002732-7.899785 9.897834-16.538849-0.489522-6.998166-1.156371-12.200585-2.003044-15.612253-0.979044-3.943649-3.05202-9.770459-6.216429-17.48043-3.06201-7.375298-9.188527-11.761015-16.471415-9.937795z" fill="#F06767" /><path d="M223.486751 475.223415c3.059512-0.766751 5.84679 1.001522 7.722459 5.512117 3.037034 7.402771 5.002615 12.932371 5.876761 16.441444 0.714302 2.869698 1.326205 7.620059 1.785756 14.106224 0.042459 5.94919-1.256273 8.226966-4.225873 8.971239-2.869698 0.7168-4.620488-0.364644-7.914771-5.984156-2.739824-6.730927-4.545561-11.885893-5.409717-15.357503-0.714302-2.874693-1.416117-7.842341-2.055493-14.743102 0.059941-5.609522 1.533502-8.271922 4.220878-8.946263z m-3.638946-14.535805c-10.632117 2.659902-15.557307 11.843434-15.569795 23.796761v0.347161l0.02997 0.344663c0.711805 7.784898 1.51602 13.514302 2.467591 17.350556 1.091434 4.39321 3.176898 10.319922 6.27637 17.897522l0.192313 0.469542 0.254751 0.437073c6.426224 11.146615 14.073756 16.144234 24.783297 13.464351 10.781971-2.699863 15.722146-11.55122 15.572293-23.896663l-0.017483-0.429581c-0.516995-7.39278-1.233795-12.977327-2.205346-16.898497-1.086439-4.373229-3.264312-10.497249-6.568586-18.549386-4.530576-10.894361-14.278556-17.073327-25.215375-14.333502z" fill="#524F75" /><path d="M363.994537 533.136859c-79.332527-8.331863-129.82322-2.270283-151.467083 18.194731-32.47079 30.695024-21.444059 162.626185-4.370732 167.251669 17.075824 4.625483-8.758946-100.384468 27.073561-129.466069 23.889171-19.391063 72.27442-23.881678 145.158244-13.484331l-16.39399-42.496z" fill="#F06767" /><path d="M358.659746 540.122537l10.190049 26.411707c-67.861229-8.40679-113.833834-3.126946-138.339902 16.766127-16.423961 13.326985-22.378146 37.710673-23.229815 74.991766-0.19481 8.531668 0.09241 37.858029-0.089912 43.132878-0.024976 0.699317-0.054946 1.373659-0.089912 2.018029-0.949073-2.884683-1.860683-6.321327-2.704859-10.215024-2.872195-13.232078-4.740371-30.717502-5.13998-48.659981-0.916605-41.259707 5.829307-75.890888 18.419512-87.789268 19.126322-18.082341 66.362693-24.066498 140.984819-16.658732z m6.119025-14.440898c-81.412995-8.546654-133.617015-2.275278-157.396293 20.205268-16.741151 15.824546-24.116449 53.680078-23.107434 99.013308 0.949073 42.753249 8.434263 77.262049 21.926088 80.91598 6.785873 1.838205 11.763512-2.177873 13.916409-8.596605 1.226302-3.656429 1.810732-8.484215 2.048-15.270088 0.199805-5.696937-0.09241-35.145678 0.097405-43.312702 0.756761-33.015259 5.914224-54.142127 17.690225-63.697795 21.778732-17.682732 68.408195-22.013502 139.381385-11.88839l12.645151 1.805736-22.642887-58.692683-4.558049-0.482029z" fill="#524F75" /><path d="M198.33881 548.851512c-5.30482 5.312312-4.041054 12.470322 0.034966 19.273678 4.41319 6.024117 7.849834 10.269971 10.309931 12.735064 2.892176 2.897171 7.48519 6.695961 13.779044 11.398868 7.979707 4.430673 13.93639 5.34478 19.238712 0.032468 5.30482-5.312312 4.5056-11.923356-0.032468-19.273678-4.021073-5.746888-7.275395-9.865366-9.757971-12.350439-2.872195-2.872195-7.647532-6.803356-14.331004-11.780995-6.428722-4.747863-13.93639-5.349776-19.24121-0.034966z" fill="#F06767" /><path d="M203.641132 554.143844c2.227824-2.23282 5.5296-2.155395 9.458263 0.749268 6.416234 4.780332 10.94681 8.504195 13.50681 11.064195 2.090459 2.095454 5.060059 5.851785 8.79641 11.176586 3.099473 5.077541 3.159415 7.697483 0.999024 9.865366-2.090459 2.092956-4.150946 2.06798-9.865366-1.048976-5.814322-4.363239-10.020215-7.849834-12.547746-10.382361-2.095454-2.097951-5.254868-5.989151-9.355864-11.578693-2.837229-4.845268-2.947122-7.8848-0.991531-9.845385z m-11.696078 17.832585l0.179824 0.29721 0.202302 0.279727c4.620488 6.308839 8.261932 10.804449 11.051708 13.601717 3.199376 3.201873 8.042146 7.207961 14.600741 12.105678l0.404605 0.299707 0.442068 0.249756c11.249015 6.243902 20.3776 6.586068 28.177483-1.223804 7.852332-7.867317 7.527649-17.999922 1.038986-28.504664l-0.237269-0.362146c-4.250849-6.069073-7.737444-10.489756-10.592156-13.349464-3.186888-3.186888-8.206985-7.315356-15.18517-12.517775-9.488234-7.003161-21.024468-7.275395-28.989191 0.704312-7.747434 7.757424-7.235434 18.162263-1.093931 28.419746z" fill="#524F75" /><path d="M412.659512 564.82841c-79.659707 4.180917-128.576937 18.069854-146.756683 41.669307-27.265873 35.395434 4.263337 163.977366 21.851161 165.875512 17.590322 1.893151-24.353717-97.779512 6.486166-132.110985 20.559922-22.885151 67.646439-34.893424 141.262049-36.022322l-22.842693-39.411512z" fill="#F06767" /><path d="M408.481093 572.565854l14.196136 24.49358c-68.340761 2.310244-112.919727 14.715629-134.014127 38.200195-14.1312 15.732137-16.19918 40.742712-11.214048 77.699122 1.141385 8.459239 6.014127 37.378498 6.656 42.615883 0.084917 0.699317 0.162341 1.368663 0.229775 2.005542-1.386146-2.697366-2.822244-5.946693-4.270829-9.665561-4.902712-12.617678-9.485737-29.5936-12.68761-47.256352-7.360312-40.610341-6.114029-75.865912 4.458147-89.590009 16.064312-20.849639 61.787161-34.151649 136.646556-38.5024z m3.786302-15.220137c-81.745171 4.295805-132.328273 18.65678-152.301268 44.576468-14.056273 18.24718-15.419941 56.794537-7.330342 101.408469 7.625054 42.081405 20.415063 74.989268 34.311493 76.490302 6.993171 0.751766 11.278985-3.9936 12.40039-10.66958 0.641873-3.801288 0.459551-8.664039-0.367141-15.402459-0.691824-5.659473-5.587044-34.701112-6.678478-42.798205-4.420683-32.728039-2.629932-54.396878 7.507668-65.680858 18.746693-20.86962 64.12238-32.443317 135.804878-33.542244l12.775025-0.197308-31.544196-54.421853-4.578029 0.237268z" fill="#524F75" /><path d="M251.501893 606.262946c-4.408195 6.076566-2.040507 12.949854 3.047024 19.031415 5.299824 5.262361 9.358361 8.916293 12.178107 10.969288 3.309268 2.405151 8.439259 5.439688 15.392469 9.098614 8.574127 3.129444 14.598244 3.101971 19.006439-2.977092 4.408195-6.076566 2.584976-12.480312-3.049522-19.028917-4.870244-5.045073-8.728976-8.606595-11.568703-10.672078-3.284293-2.390166-8.619083-5.522107-15.999375-9.393327-7.090576-3.683902-14.600741-3.106966-19.006439 2.972097z" fill="#F06767" /><path d="M257.568468 610.663649c1.848195-2.555005 5.122498-2.992078 9.458264-0.741776 7.083083 3.716371 12.143141 6.688468 15.070283 8.81639 2.387668 1.7408 5.914224 4.987629 10.434809 9.658069 3.853737 4.528078 4.32078 7.110556 2.525035 9.590634-1.735805 2.395161-3.771317 2.692371-9.905327 0.50201-6.426224-3.396683-11.126634-6.183961-14.016312-8.286908-2.397659-1.745795-6.126517-5.10002-11.051708-9.972761-3.556527-4.335766-4.140956-7.325346-2.515044-9.565658z m-8.766439 19.441014l0.224781 0.264742 0.244761 0.244761c5.54958 5.507122 9.847883 9.378341 13.044761 11.703571 3.658927 2.6624 9.068644 5.861776 16.31157 9.675551l0.449561 0.234771 0.474537 0.174829c12.088195 4.408195 21.159337 3.316761 27.63801-5.619512 6.523629-8.998712 4.61799-18.951493-3.434147-28.317347l-0.287219-0.31719c-5.149971-5.332293-9.288429-9.148566-12.552742-11.528741-3.643941-2.649912-9.250966-5.941698-16.953443-9.990244-10.46478-5.429698-21.906107-3.896195-28.522147 5.23239-6.438712 8.876332-4.305795 19.076371 3.361717 28.242419z" fill="#524F75" /><path d="M270.31602 360.557893c7.742439 8.616585 10.577171 14.480859 8.501697 17.587824-3.104468 4.660449-6.73842 13.346966-22.103415 10.027707-1.456078-0.314693-7.617561-6.653502-18.486946-19.016429-34.858459 9.340878-70.793366-11.736039-80.261619-47.074029l-9.732996-36.317034c-5.886751-21.966049 7.068098-43.125385 25.739864-56.487337 21.479024-15.372488 68.528078-15.04281 78.258575-3.683902 9.897834 11.788488-39.911024 29.114068-36.978887 40.06837 9.435785 6.109034 14.603239 10.849405 15.507356 14.211122 1.041483 3.896195-17.875044 16.136741-16.616273 20.837152 1.403629 5.247376 21.029463 7.060605 22.053463 10.876878 1.021502 3.818771-13.993834 13.9264-11.848429 21.928585 1.246283 4.642966 19.850615 7.073093 23.764292 11.109151 3.101971 3.201873 14.658185-1.733307 14.83801-6.228917 0.484527-12.030751-14.795551-7.252917-16.478907-13.53678-1.263766-4.72039 14.350985-11.396371 12.233054-19.303649-0.684332-2.552507-7.265405-5.457171-19.738225-8.706498-0.626888-2.332722 15.075278-15.567298 14.818029-18.272156-0.70681-7.487688-17.882537-12.168117-14.510829-17.313092 3.886205-5.931707 11.5712-6.700956 18.916527-8.671532 16.014361-4.29081 35.662673 17.095805 40.010927 33.332449l2.889678 10.78197c7.043122 26.281834-6.416234 53.160585-30.497717 63.275708l-0.277229 0.574439z" fill="#F06767" /><path d="M239.965659 326.413737c1.710829 5.604527 5.3248 7.427746 11.733541 8.776429 0.339668 0.072429 1.598439 0.32718 1.883161 0.389619 1.101424 0.232273 1.805737 0.364644 2.247805 0.474537a10.46478 10.46478 0 0 1-1.024 0.549463c-0.599415 0.274732-1.183844 0.484527-1.678361 0.609405-2.462595-1.848195-5.51961-2.822244-13.344468-5.000117l-1.019005-0.284722c-2.587473-0.724293-4.32078-1.256273-5.624508-1.7408 0.62439-1.223805 1.6384-2.709854 3.149425-4.645463-0.212293 0.269737 1.883161-2.337717 3.381697-4.265834-0.354654 1.575961-0.284722 3.246829 0.292215 5.137483z m12.710087-86.1184c6.178966-6.656 8.129561-14.04878 2.262791-20.554927-13.816507-15.03282-65.590946-11.833444-88.171396 5.547083-22.270751 17.145756-33.549737 41.914068-26.349268 65.481053l10.994264 35.957386c11.428839 37.388488 49.55161 59.222166 86.652878 50.453229 11.96082 12.597698 16.423961 16.658732 20.18279 17.333073 13.559259 2.43762 21.826185-1.838205 27.475668-10.914341 0.499512-0.804215 1.798244-3.047024 1.965581-3.316761 3.579005-5.796839 1.813229-11.973307-4.026069-19.505952 21.918595-14.588254 32.27598-42.466029 24.231337-68.785326l-3.264312-10.672078c-6.648507-21.751259-31.249483-42.778224-50.508176-36.888976-1.086439 0.324683-1.86318 0.544468-3.571512 1.016507-2.05799 0.564449-3.888702 1.101424-5.532098 1.648391 3.309268-2.547512 5.589541-4.568039 7.657522-6.798361z m-2.36519 67.264312a1.091434 1.091434 0 0 0 0.097405 0.039961c-0.574439 0.719298-1.368663 1.578459-2.440117 2.647414-0.424585 0.427083-2.035512 2.005541-1.95559 1.930615-0.856663 0.841678-1.478556 1.478556-2.065483 2.120429l-0.299708 0.329678c0.524488-1.715824 0.541971-3.451629-0.087414-5.497131-0.596917-1.953093-1.523512-3.351727-2.832234-4.455649 4.11598 1.009015 7.325346 1.980566 9.583141 2.884683z m-19.101346-6.95321a193.32121 193.32121 0 0 0-1.980566-0.53198l-1.948098-0.516996c-1.308722-0.349659-2.347707-0.636878-3.231844-0.904117 0.312195-0.334673 0.649366-0.689327 1.01401-1.058966 0.579434-0.59442 1.191337-1.211317 2.055493-2.072975 4.026068-4.021073 4.820293-4.835278 6.273873-6.548605 3.431649-4.051044 4.975141-6.950712 3.631454-11.351415-1.451083-4.740371-5.896741-9.178537-13.636683-14.333502 1.793249-1.698341 4.180917-3.579005 7.954731-6.308839-3.059512 5.042576-1.393639 9.897834 2.4576 13.52679 0.999024 0.939083 2.13042 1.803239 3.56402 2.782283 0.512 0.344663 1.048976 0.699317 1.733307 1.141385l1.655883 1.068957c1.456078 0.944078 2.472585 1.645893 3.24683 2.260292-0.844176 0.999024-1.943102 2.237815-3.721366 4.20839l-0.099903 0.107396c-2.994576 3.314263-4.108488 4.583024-5.362263 6.144-0.924098 1.153873-1.643395 2.157893-2.207844 3.121951-1.373659 2.362693-2.02802 4.385717-1.123903 7.342829 0.264741 0.859161 0.674341 1.653385 1.206322 2.347707a61.107824 61.107824 0 0 0-1.481053-0.424585z m3.92117 1.203824c2.340215 0.826693 4.190907 1.673366 5.599532 2.862205-1.163863-0.28722-2.405151-0.574439-3.716371-0.869151a7.482693 7.482693 0 0 1-4.323278-2.77479c0.899122 0.264741 1.693346 0.519493 2.43762 0.781736z m12.520274-39.698731c1.548488-0.666849 3.728859-1.35118 6.875785-2.217834a147.588371 147.588371 0 0 0 3.771317-1.071454c9.852878-3.012059 27.478166 12.053229 32.006244 26.873756l3.264312 10.674576c6.793366 22.21081-3.721366 45.830244-24.248819 55.308487a7.490185 7.490185 0 0 0-3.743844 3.846244c-0.109893 0.259746-0.109893 0.259746-0.229776 0.524488a7.492683 7.492683 0 0 0 1.466068 8.216976c3.571512 3.70638 5.9392 6.723434 7.073093 8.873834 0.114888 0.217288 0.209795 0.412098 0.284722 0.574439-0.457054 0.781737-0.969054 1.653385-1.161366 1.963083-2.412644 3.87122-4.655454 5.20242-10.784468 4.303297-0.791727-0.649366-1.923122-1.668371-3.346732-3.037034-3.079493-2.957112-7.420254-7.400273-12.989814-13.304507a7.48519 7.48519 0 0 0-7.642537-2.023024c-30.530185 9.333385-63.005971-8.216976-72.4992-39.271649l-10.989268-35.954888c-5.144976-16.81358 3.38919-35.547785 21.154341-49.224429 8.409288-6.473678 23.302244-10.86439 38.986927-11.833444 12.6976-0.784234 23.651902 0.974049 27.812839 3.581502-0.259746 0.339668-0.599415 0.739278-1.01401 1.186342-2.487571 2.68238-6.084059 5.479649-13.616702 10.806946l-1.4336 1.01401-1.438595 1.016507c-6.213932 4.410693-9.698029 7.095571-12.632664 9.955278-5.067551 4.945171-7.617561 9.745483-5.874263 15.447415 0.539473 1.773268 1.723317 3.284293 3.314263 4.238361 4.490615 2.689873 7.909776 5.050068 10.215025 7.018146 0.294712 0.252254 0.564449 0.497015 0.814205 0.72679-0.80921 0.889132-1.93561 2.020527-4.510596 4.590517-0.914107 0.914107-1.568468 1.573463-2.212839 2.23282-2.270283 2.33522-3.888702 4.170927-5.134985 5.946693-2.377678 3.386693-3.536546 6.513639-2.372683 10.314926 1.441093 4.72039 4.992624 6.928234 10.786966 8.916293 1.640898 0.559454 3.336741 1.053971 5.819317 1.713327l2.372683 0.63438-1.318712 1.648391c-5.819317 7.450224-8.351844 12.869932-6.318829 19.515941 1.183844 3.888702 3.971122 5.971668 8.142048 7.752429 2.187863 0.936585 4.535571 1.680859 8.421776 2.772293l1.048976 0.289717c3.736351 1.038985 5.02759 1.418615 6.516136 1.938107 0.824195 0.292215 1.468566 0.554459 1.915629 0.774244 8.129561 7.714966 27.308332-1.198829 27.368274-12.150634 0.049951-9.540683-4.92519-13.848976-13.411903-15.959414l0.412098-0.412098c6.54361-6.548605 9.435785-11.486283 7.28039-18.531902-1.471063-4.80281-5.861776-7.684995-14.453385-10.299942 2.687376-2.974595 3.966127-4.430673 5.207414-5.994146 3.012059-3.781307 4.118478-5.654478 3.648937-9.265951-0.484527-3.746341-2.452605-6.760898-5.452176-9.473249-1.608429-1.458576-3.294283-2.667395-5.901736-4.355747l-1.246283-0.809209z" fill="#524F75" /><path d="M341.374127 428.191844c-10.63961-16.948449-18.571863-29.09159-23.791766-36.431922-5.219902-7.337834-12.09319-16.014361-20.624859-26.032078-15.142712 0.342166-28.884293 6.810849-41.227239 19.406049-12.337951 12.587707-18.044878 27.131005-17.11079 43.619902 14.955395 6.94322 26.134478 11.860917 33.532254 14.753093s21.548956 7.879805 42.448546 14.96039l26.773854-30.275434z" fill="#F06767" /><path d="M313.716137 449.133893c-18.427005-5.559571-31.067161-9.548176-37.848039-11.928352-6.598556-2.317737-16.369015-6.183961-29.271415-11.583687-0.099902-12.520273 4.463141-23.761795 13.871454-34.054244 9.678049-10.592156 20.260215-16.533854 31.961287-18.077347 7.58759 8.40679 13.791532 15.75961 18.596839 22.043474 4.847766 6.333815 12.07321 16.546341 21.646361 30.592624l-18.956487 23.007532z m34.516292-26.776352c-11.303961-16.676215-19.720741-28.634537-25.300292-35.929912-5.619512-7.342829-12.927376-15.939434-21.941074-25.799805a7.49518 7.49518 0 0 0-5.95918-2.422634c-17.165737 0.984039-32.463298 8.851356-45.625444 23.252293-13.289522 14.545795-19.213737 31.34439-17.5104 49.931239a7.492683 7.492683 0 0 0 4.545561 6.218927c15.322537 6.468683 26.786341 11.044215 34.456351 13.739083 7.637541 2.68238 22.030985 7.197971 43.277737 13.576741a7.487688 7.487688 0 0 0 7.934751-2.412644l25.699902-31.187044a7.492683 7.492683 0 0 0 0.424586-8.966244z" fill="#524F75" /><path d="M389.489639 470.41561c-7.867317-15.587278-14.515824-26.54158-19.943024-32.855415-5.432195-6.318829-15.78958-15.14521-31.074654-26.481639-13.361951 6.448702-22.340683 12.238049-26.9312 17.378029-4.58802 5.137483-10.56718 16.094283-17.937483 32.867903 13.641678 13.461854 23.906654 22.158361 30.799922 26.089522 6.895766 3.936156 19.635824 8.366829 38.225171 13.30201l26.861268-30.297913z" fill="#F06767" /><path d="M358.79961 492.753795c-15.424937-4.83278-26.02958-9.051161-31.569171-12.472819-5.469659-3.3792-13.819005-10.814439-24.785795-22.173347 6.558595-13.194615 11.818459-21.841171 15.459902-25.642458 3.4816-3.638946 10.53721-8.022166 20.999493-12.887415 12.517776 10.152585 21.019473 18.052371 25.390205 23.507044 4.250849 5.309815 9.520702 14.485854 15.674693 27.398244l-21.171825 22.270751z m36.933931-23.956605c-7.552624-16.361522-14.068761-27.995161-19.740721-35.078244-5.644488-7.04562-16.021854-16.538849-31.306927-28.724448a7.492683 7.492683 0 0 0-7.687493-0.999025c-14.410927 6.343805-24.306263 12.248039-29.913288 18.10482-5.477151 5.71442-12.133151 16.965932-20.412566 34.154146a7.492683 7.492683 0 0 0 1.306225 8.399298c13.579239 14.370966 23.919141 23.76679 31.376858 28.37479 7.452722 4.605502 20.514966 9.670556 39.501425 15.424936a7.492683 7.492683 0 0 0 7.602575-2.008039l27.900254-29.346341a7.497678 7.497678 0 0 0 1.373658-8.301893z" fill="#524F75" /><path d="M616.832624 506.445424c63.81518-47.413698 110.292293-67.961132 139.433835-61.647297 43.712312 9.470751 102.305093 126.778693 90.032078 139.378888-12.273015 12.602693-44.266771-89.442654-90.032078-95.838908-30.512702-4.265834-74.372371 16.543844-131.584 62.429034l-7.849835-44.321717z" fill="#F06767" /><path d="M625.022127 509.712234l4.852761 27.425717c53.949815-41.664312 96.146107-60.593327 127.428058-56.220097 20.947044 2.927141 38.644761 20.549932 58.610264 51.677034 4.570537 7.128039 19.451005 32.101151 22.328195 36.471883 0.394615 0.599415 0.779239 1.171356 1.151375 1.715824a102.050341 102.050341 0 0 0-2.922146-9.925307c-4.358244-12.652644-11.768507-28.397268-20.677307-43.787239-20.497483-35.400429-44.14439-61.275161-61.11282-64.949073-25.779824-5.587044-69.422205 13.369444-129.65838 57.591258z m-12.657639-9.283434c65.471063-48.64 113.514146-69.881756 145.487922-62.95602 22.513015 4.877737 48.385249 33.18759 70.908253 72.084605 21.281717 36.749112 32.673093 69.819317 22.90763 79.847025-4.862751 4.990127-11.146615 4.128468-16.291591-0.19481-2.942127-2.475083-5.936702-6.273873-9.640585-11.903376-3.114459-4.725385-18.057366-29.805893-22.428097-36.624234-17.682732-27.568078-33.005268-42.820683-48.075552-44.926127-27.857795-3.893698-70.139005 16.166712-125.85959 60.853074l-9.862868 7.907278-10.861893-61.325113 3.716371-2.762302z" fill="#524F75" /><path d="M767.165815 435.477229c7.295376 1.800741 9.905327 8.501698 9.915317 16.336547-0.679337 7.345327-1.438595 12.690107-2.282771 16.026848-0.986537 3.923668-2.9696 9.478244-5.94919 16.658732-4.568039 7.809873-9.208507 11.616156-16.498888 9.815415-7.292878-1.800741-10.020215-7.80238-9.915317-16.336547 0.489522-6.910751 1.158868-12.050732 2.008039-15.419941 0.981541-3.893698 3.054517-9.650576 6.223922-17.265639 3.067005-7.285385 9.20601-11.616156 16.498888-9.815415z" fill="#F06767" /><path d="M765.372566 442.752624c-3.109463-0.769249-5.91922 0.986537-7.787395 5.41721-3.039532 7.302868-5.005112 12.760039-5.879259 16.216664-0.709307 2.822244-1.32121 7.502673-1.780761 13.896429-0.044956 5.81682 1.233795 8.019668 4.220878 8.756449 2.922146 0.721795 4.687922-0.354654 7.97721-5.891747 2.742322-6.63602 4.545561-11.721054 5.409717-15.137717 0.711805-2.829737 1.41362-7.722459 2.050498-14.523317-0.057444-5.484644-1.511024-8.06962-4.210888-8.733971z m3.591493-14.55079c10.63961 2.624937 15.594771 11.743532 15.609756 23.599454v0.349658l-0.032469 0.349659c-0.714302 7.69998-1.518517 13.366946-2.472585 17.168234-1.098927 4.348254-3.191883 10.207532-6.298849 17.700215l-0.19481 0.469541-0.257248 0.439571c-6.44121 11.016741-14.086244 15.941932-24.763317 13.307005-10.789463-2.6624-15.764605-11.451317-15.609757-23.701854l0.014986-0.437073c0.516995-7.312859 1.23879-12.837463 2.215336-16.723668 1.093932-4.328273 3.2768-10.384859 6.588566-18.344586 4.545561-10.776976 14.291044-16.868527 25.200391-14.176156z" fill="#524F75" /><path d="M627.11758 513.54599c79.115239-7.77241 129.540995-1.448585 151.267279 18.971473 32.590673 30.630088 22.395629 161.359922 5.384741 165.845542-17.00839 4.478127 8.124566-99.467863-27.807844-128.52199-23.959102-19.371083-72.27442-24.126439-144.945951-14.261074l16.101775-42.033951z" fill="#F06767" /><path d="M632.454868 520.564137l-9.965268 26.007102c67.701385-7.927259 113.624039-2.417639 138.182556 17.440468 16.443941 13.297015 22.53799 37.518361 23.619434 74.482264 0.249756 8.461737 0.142361 37.535844 0.354654 42.760741 0.029971 0.721795 0.064937 1.408624 0.099902 2.062986 0.919102-2.824741 1.798244-6.193951 2.609952-10.010225 2.782283-13.089717 4.538068-30.40281 4.825287-48.185444 0.669346-40.897561-6.276371-75.251512-18.926517-87.147395-19.221229-18.062361-66.395161-24.291278-140.8-17.410497z m-6.069073-14.473366c81.170732-7.97721 133.292332-1.438595 157.131551 20.967024 16.78361 15.777093 24.376195 53.365385 23.651903 98.306498-0.686829 42.461034-7.957229 76.675122-21.491512 80.239141-6.73842 1.778263-11.678595-2.197854-13.863961-8.556644-1.24878-3.636449-1.858185-8.434263-2.135415-15.170185-0.234771-5.654478-0.124878-34.848468-0.364644-42.945561-0.959063-32.738029-6.231415-53.700059-18.067356-63.268215-21.873639-17.682732-68.445659-22.263259-139.221541-12.660136l-12.527766 1.698341 22.278244-58.158205 4.608-0.452058z" fill="#524F75" /><path d="M792.526049 530.139785c5.329795 5.302322 4.113483 12.3904 0.087414 19.111337-4.365737 5.946693-7.769912 10.135102-10.210029 12.562732-2.869698 2.854712-7.427746 6.593561-13.679141 11.214048-7.937249 4.340761-13.876449 5.21241-19.201249-0.084917-5.322302-5.299824-4.565541-11.848429-0.08242-19.106341 3.978615-5.674459 7.200468-9.735493 9.665561-12.188098 2.842224-2.829737 7.585093-6.695961 14.226108-11.588683 6.378771-4.665444 13.871454-5.214907 19.193756 0.079922z" fill="#F06767" /><path d="M786.357073 545.112663c2.772293-4.732878 2.85721-7.697483 0.886634-9.658068-2.27278-2.26279-5.584546-2.202849-9.465756 0.634381-6.36878 4.695415-10.86439 8.356839-13.394419 10.871883-2.05799 2.055493-4.995122 5.746888-8.681522 10.989268-3.034537 4.970146-3.072 7.517659-0.89163 9.683044 2.13042 2.122927 4.203395 2.110439 9.875357-0.939083 5.769366-4.278322 9.935298-7.704976 12.432858-10.195044 2.06798-2.052995 5.187434-5.886751 9.238478-11.386381z m11.456312-20.280195c7.767415 7.732449 7.320351 18.102322 1.223805 28.272391l-0.179824 0.299707-0.207298 0.282224c-4.575532 6.231415-8.187005 10.674576-10.964292 13.436878-3.179395 3.161912-7.992195 7.110556-14.513327 11.928352l-0.4096 0.304702-0.449561 0.242263c-11.196566 6.126517-20.28519 6.411239-28.080078-1.348683-7.877307-7.837346-7.617561-17.932488-1.173854-28.354809l0.239766-0.367142c4.210888-5.999141 7.672507-10.364878 10.512234-13.189619 3.166907-3.149424 8.157034-7.217951 15.095259-12.335454 9.448273-6.893268 20.942049-7.093073 28.90677 0.82919z" fill="#524F75" /><path d="M615.53639 525.501815c70.588566 36.569288 109.433132 69.33479 116.5312 98.296507 10.647102 43.435083-69.097522 147.525932-85.806205 142.01881-16.706185-5.507122 60.985444-78.995356 46.67442-122.932449-9.545678-29.293893-47.478634-59.591805-113.796371-90.898732l36.396956-26.484136z" fill="#F06767" /><path d="M616.188254 534.293229l-22.520508 16.384c61.097834 30.225483 96.610654 59.854049 106.391103 89.88722 6.551102 20.110361-1.52601 43.739785-20.754732 75.333931-4.400702 7.230439-20.322654 31.554185-22.990049 36.054791-0.364644 0.619395-0.711805 1.213815-1.036488 1.785756a101.740644 101.740644 0 0 0 7.64004-6.97319c9.460761-9.465756 20.365112-23.027512 30.290419-37.7856 22.827707-33.936859 35.715122-66.532527 31.581659-83.398557-6.278868-25.617483-42.451044-56.537288-108.601444-91.288351z m2.792273-15.444917c72.419278 37.523356 112.575063 71.390283 120.362458 103.164254 5.484644 22.370654-8.616585 58.038322-33.704585 95.331902-23.704351 35.23559-48.432702 59.973932-61.724722 55.588215-6.618537-2.180371-8.599102-8.204488-6.968195-14.72562 0.934088-3.728859 3.037034-8.084605 6.47118-13.886439 2.882185-4.870244 18.874068-29.29639 23.082459-36.214634 17.033366-27.982673 24.024039-48.4352 19.308644-62.90357-8.711493-26.743883-45.28078-55.952859-109.867707-86.443083l-11.428839-5.39723 50.360819-36.644214 4.108488 2.130419z" fill="#524F75" /><path d="M745.222244 629.510244c1.580956 7.342829-3.29678 12.627668-10.337405 16.071805-6.900761 2.607454-12.033249 4.265834-15.404956 4.972644-3.961132 0.836683-9.82041 1.483551-17.582829 1.958087-9.02119-0.679337-14.473366-3.18439-16.054322-10.527219-1.578459-7.347824 2.622439-12.427863 10.337405-16.071805 6.426224-2.592468 11.338927-4.243356 14.740604-4.957658 3.931161-0.824195 10.012722-1.481054 18.249679-1.973074 7.892293-0.434576 14.470868 3.181893 16.051824 10.524722z" fill="#F06767" /><path d="M737.896898 631.083707c-0.674341-3.134439-3.4816-4.887727-8.281913-4.620487-7.897288 0.464546-13.664156 1.091434-17.150751 1.823219-2.849717 0.599415-7.325346 2.097951-13.274536 4.488117-5.244878 2.512546-6.66599 4.62798-6.019122 7.632546 0.63438 2.942127 2.37518 4.058537 8.793912 4.593015 7.168-0.449561 12.527766-1.048976 15.976897-1.775766 2.852215-0.599415 7.560117-2.112937 13.956371-4.523083 4.897717-2.460098 6.583571-4.89522 5.999142-7.617561z m14.65319-3.146927c2.300254 10.712039-3.721366 19.163785-14.370966 24.376196l-0.312195 0.154848-0.332176 0.122381c-7.232937 2.737327-12.680117 4.49561-16.513873 5.299824-4.390712 0.924098-10.574673 1.610927-18.669268 2.100449l-0.512 0.029971-0.507005-0.037464c-12.722576-0.959063-20.504976-5.671961-22.812722-16.421463-2.340215-10.866888 3.3792-19.191259 14.455883-24.426146l0.39961-0.172332c6.800859-2.739824 12.078205-4.518088 16.001873-5.339785 4.370732-0.919102 10.769483-1.608429 19.376078-2.122927 11.68359-0.641873 21.431571 5.449678 23.796761 16.433951z" fill="#524F75" /><path d="M477.51118 419.590244c7.807376 0 31.634107 1.620917 71.480196 4.862751 64.12238 5.217405 129.663376 55.832976 128.936585 123.274615s-59.726673 111.888234-113.072078 123.334556c-53.345405 11.443824-82.132293 7.150517-133.115005 0-50.982712-7.153015-97.787005-58.667707-97.787005-117.992273-12.075707-3.221854-40.660293-15.429932-39.189229-23.114927C304.607532 478.472741 345.984624 437.440312 399.464898 429.430634 443.267122 422.869541 469.281717 419.590244 477.51118 419.590244z" fill="#F06767" /><path d="M303.438673 530.664273c2.020527 1.725815 5.247376 3.766322 9.303415 5.879259 7.397776 3.858732 17.055844 7.665015 23.144897 9.290927l5.562069 1.483551v5.756878c0 53.939824 42.458537 103.713717 91.335805 110.572019 34.801015 4.880234 46.08 6.206439 61.847102 6.805854 21.783727 0.82919 42.500995-1.101424 68.655454-6.713444 58.807571-12.617678 106.538459-59.157229 107.150361-116.086634 0.639376-59.182205-56.649678-110.404683-122.05081-115.726985C508.813112 428.701346 485.018849 427.082927 477.51118 427.082927c-7.675005 0-33.652137 3.2768-76.937365 9.757971-49.199454 7.367805-88.218849 44.733815-98.129171 92.894282 0.254751 0.267239 0.586927 0.579434 0.994029 0.929093z m2.377678 19.166283c-13.069737-6.813346-20.037932-12.767532-18.412019-21.281717 10.5472-55.171122 54.878907-98.129171 110.951648-106.525971C442.6752 415.381854 468.732254 412.097561 477.51118 412.097561c8.107083 0 31.966283 1.623415 72.0896 4.890224 72.666537 5.914224 136.551649 63.035941 135.819864 130.822244-0.69682 64.734283-53.907356 116.61362-118.996293 130.577483-27.343298 5.866771-49.301854 7.912273-72.366829 7.035629-16.46642-0.62439-28.020137-1.985561-63.360624-6.940721-54.621659-7.662517-101.313561-60.688234-104.103337-119.827981-6.531122-2.200351-14.34599-5.469659-20.77721-8.823883z" fill="#524F75" /><path d="M292.401951 538.701424c7.97721 16.044332 56.469854 30.450263 116.765971 36.814049 48.245385 5.092527 93.518673 0.891629 132.370732-19.540917a7.492683 7.492683 0 1 0-6.975688-13.264546c-35.667668 18.761678-78.256078 22.71282-123.821581 17.902517-54.369405-5.736898-100.356995-19.401054-104.922536-28.584586a7.492683 7.492683 0 1 0-13.416898 6.673483z" fill="#524F75" /><path d="M548.516737 544.15655a7.727454 7.697483 51.999 1 0 12.131233-9.478299 7.727454 7.697483 51.999 1 0-12.131233 9.478299Z" fill="#524F75" /><path d="M371.442263 498.355824c0.984039 0.047454 1.860683 0.179824 2.555005 0.332176a18.998946 18.998946 0 0 1-0.442068 0.42958 6.241405 6.241405 0 1 0 8.539161 9.111103c5.736898-5.377249 7.415259-11.741034 3.201873-16.898498-2.85721-3.494088-7.76242-5.194927-13.272039-5.452175-5.10002-0.237268-10.195044 0.82919-13.751571 3.251824-5.472156 3.726361-6.690966 10.180059-2.719844 16.221659a6.241405 6.241405 0 0 0 10.727025-6.366283c1.258771-0.444566 3.1744-0.721795 5.162458-0.629386zM422.954459 504.322498c2.944624 0.124878 5.384741 0.904117 6.321326 1.665873-0.21479 0.589424-0.8192 1.531005-1.95559 2.757307a6.243902 6.243902 0 0 0 9.156059 8.48921c6.03161-6.503649 7.217951-13.691629 2.472585-19.193756-3.36921-3.903688-9.136078-5.926712-15.464898-6.193952-6.126517-0.259746-12.070712 1.168859-15.926946 4.378225-5.65198 4.702907-5.796839 11.965815-0.621893 18.669268a6.243902 6.243902 0 1 0 9.885347-7.630049 7.9872 7.9872 0 0 1-1.016508-1.628409c1.266263-0.831688 4.07602-1.446088 7.150518-1.313717z" fill="#524F75" /><path d="M629.477776 328.758946c-1.4336 12.787512-0.18482 19.888078 3.746341 21.296703 5.901737 2.115434 14.922927 7.482693 26.816312-5.594537 1.123902-1.23879 2.609951-10.954302 4.458147-29.146536 38.037854-14.600741 57.11922-57.066771 42.61838-94.847376l-14.907941-38.827083c-9.013698-23.487063-34.748566-33.849444-60.603317-33.492293-29.745951 0.4096-72.609093 31.674068-74.067669 48.217913-1.336195 17.033366 55.633171-0.277229 60.131278 11.433834-4.635473 11.666107-6.258888 19.298654-4.877736 22.892644 1.598439 4.165932 26.946185 2.644917 28.871805 7.667512 2.157893 5.61202-14.620722 20.140332-13.052254 24.223844 1.565971 4.083512 21.941073 3.226849 25.220371 11.778497 1.910634 4.970146-13.534283 19.383571-14.465873 25.557542-0.741776 4.902712-14.56078 8.104585-17.672742 4.205892-8.331863-10.419824 8.791415-16.214166 6.211434-22.927609-1.938107-5.052566-20.614868-0.734283-23.8592-9.188527-1.048976-2.727337 3.072-9.650576 12.362927-20.764722-0.956566-2.492566-24.006556-3.976117-25.550049-6.558595-4.260839-7.14802 8.3968-22.632898 1.938108-25.010576-7.447727-2.737327-14.990361 1.633405-23.005035 4.712898-17.477932 6.708449-21.444059 38.729678-14.780565 56.090224l4.425678 11.523746c10.784468 28.097561 40.730224 43.240273 69.417209 36.42443l0.624391 0.332175z" fill="#F06767" /><path d="M595.368585 212.647337c5.709424 2.102946 7.45522 7.15801 6.561093 12.667629-0.239766 1.458576-0.639376 2.952117-1.236293 4.752858-0.21479 0.649366-0.447063 1.313717-0.749268 2.167883-0.104898 0.279727-0.609405 1.683356-0.749268 2.072976-0.804215 2.257795-1.268761 3.746341-1.531005 4.980137 1.578459 0.337171 3.521561 0.679337 7.013151 1.256273l0.162342 0.024975c4.927688 0.816702 6.785873 1.148878 8.948761 1.6384 1.578459 0.354654 2.872195 0.721795 3.986107 1.153873 2.6624 1.03399 4.48562 2.24281 5.619512 5.20242a7.492683 7.492683 0 0 1-1.246283 7.490185c-4.410693 5.279844-7.542634 9.495727-9.370849 12.555239-0.197307 0.334673-0.374634 0.649366-0.534478 0.939083 1.171356 0.349659 2.77479 0.626888 5.070049 0.889132 0.674341 0.077424 3.201873 0.344663 3.076995 0.329678 1.323707 0.144859 2.302751 0.264741 3.246829 0.412098 5.731902 0.894127 9.40082 2.500059 11.25401 7.335336 2.197854 5.72441 0.339668 9.565659-4.260839 14.935415-0.249756 0.292215-1.198829 1.381151-1.413619 1.633405-1.700839 1.985561-2.322732 2.709854-2.290264 3.294283 0.781737 0.007493 1.763278-0.107395 2.772293-0.342166 1.009015-0.239766 1.928117-0.574439 2.584976-0.916605 0.849171-3.351727 2.822244-6.213932 8.424273-13.649171l0.714302-0.951571c2.175376-2.899668 3.451629-4.72039 4.318283-6.201443-1.231298-0.591922-3.514068-1.416117-6.918244-2.23282 0.489522 0.117385-6.428722-1.441093-8.152039-1.93561-4.712898-1.358673-7.525151-2.869698-9.063649-6.878283-1.578459-4.10599-0.394615-7.207961 2.397659-11.493775 0.714302-1.098927 1.553483-2.26279 2.627434-3.6864 0.407102-0.534478 0.82919-1.086439 1.396137-1.818225l1.383648-1.795746c1.31122-1.703337 2.230322-2.934634 2.979591-4.023571-0.83918-0.137366-1.790751-0.274732-2.862205-0.412097-0.93159-0.117385-1.900644-0.232273-3.279298-0.387122-6.311337-0.7168-7.575102-0.874146-10.010224-1.358673-5.569561-1.103922-8.751454-2.47758-10.452293-6.913249-1.948098-5.075044-0.934088-12.115668 2.609951-22.223298l-0.437073-0.049951c-3.494088-0.352156-7.899785-0.292215-15.654712 0.109893l-1.95559 0.1024c-0.039961 0-0.077424 0.004995-0.117386 0.007492a24.051512 24.051512 0 0 1 5.137483 1.318713z m-29.833365-1.388644c-9.710517-1.473561-16.196683-6.308839-15.474888-15.552313 1.948098-22.070946 49.826341-54.611668 81.42798-55.048741 31.299434-0.434576 58.053307 13.157151 67.706381 38.2976l14.905444 38.827083c15.429932 40.203239-3.611473 85.189307-42.618381 102.737171-1.998049 19.108839-3.209366 26.014595-5.911727 28.986692-10.107629 11.114146-19.945522 12.999805-30.854868 9.133581-0.979044-0.347161-3.67641-1.398634-4.031063-1.523512-6.938224-2.490068-9.465756-9.141073-9.30841-19.868098-29.498693 2.822244-58.038322-14.128702-68.945171-42.553444l-4.42318-11.526244c-8.883824-23.137405-1.496039-57.868488 19.086361-65.77077a157.29639 157.29639 0 0 0 3.916175-1.588449c4.887727-2.033015 8.664039-3.419161 11.975805-4.115981-8.097093 0.347161-12.834966 0.264741-17.450458-0.434575z m22.832702 0.169834l1.860683-0.099903c-2.340215-0.3072-4.647961-0.179824-7.240429 0.364644 1.64839-0.069932 3.429151-0.159844 5.379746-0.264741z m-11.596176 18.214712c-1.973073 0.8192-2.902166 1.198829-4.078517 1.653385-11.503766 4.418185-16.975922 30.145561-10.699551 46.499591l4.425678 11.523746c9.333385 24.326244 35.370459 37.838049 60.685737 31.818927a7.492683 7.492683 0 0 1 5.269853 0.684332l0.574439 0.302204a7.492683 7.492683 0 0 1 3.96363 7.472703c-0.644371 5.74439-0.684332 10.057678-0.207298 12.780019 0.074927 0.449561 0.162341 0.806712 0.244761 1.081444 1.016507 0.38962 2.315239 0.891629 2.767298 1.051473 5.224898 1.85319 8.606595 1.348683 13.896429-4.160936 0.304702-1.281249 0.621893-2.992078 0.964058-5.237386 0.724293-4.707902 1.540995-11.5712 2.452605-20.554926a7.492683 7.492683 0 0 1 4.767844-6.238908c34.189112-13.122185 51.324878-51.259941 38.310088-85.169327L685.203356 184.32c-7.088078-18.466966-27.905249-29.041639-53.507746-28.684488-12.200585 0.167337-28.706966 6.685971-43.532488 16.761132-12.530263 8.516683-21.459044 18.169756-22.962576 23.467083a16.983415 16.983415 0 0 0 2.579981 0.569444c4.158439 0.631883 9.330888 0.581932 19.785678 0.024975l1.978068-0.107395 1.983064-0.104897c8.521678-0.444566 13.436878-0.509502 17.947473-0.049952 7.630049 0.774244 12.937366 3.074498 15.17518 8.913796 0.674341 1.755785 0.661854 3.701385-0.02997 5.44718-2.172878 5.474654-3.613971 9.92281-4.325776 13.272039-0.152351 0.724293-0.267239 1.361171-0.349659 1.908137 1.501034 0.269737 3.096976 0.462049 7.992195 1.019005 1.438595 0.162341 2.472585 0.284722 3.491591 0.417092 3.579005 0.457054 6.238907 0.929093 8.516683 1.598439 4.230868 1.243785 7.227941 3.047024 8.704 6.900761 1.848195 4.815298 0.274732 8.983727-3.391688 14.495844-1.061463 1.598439-2.230322 3.181893-3.976117 5.447181l-2.392664 3.114458c1.793249 0.412098 3.459122 0.786732 3.421659 0.779239 10.067668 2.410146 15.864507 5.282341 18.511922 12.168117 1.51602 3.953639 0.516995 7.492683-1.873171 11.726049-1.286244 2.275278-2.84722 4.513093-5.542088 8.102088l-0.734283 0.974049c-2.632429 3.496585-3.531551 4.722888-4.513092 6.228917-0.559454 0.849171-0.969054 1.553483-1.233795 2.092956-1.898146 11.723551-23.97159 16.91598-31.094635 8.002185-6.663493-8.334361-4.820293-15.427434 1.820722-23.257288l-2.048-0.219785c-10.047688-1.148878-15.772098-3.356722-18.56437-10.627122-1.948098-5.087532 0.174829-10.682068 6.401248-19.171278a154.371746 154.371746 0 0 1-1.046478-0.172332c-4.575532-0.759259-6.710946-1.141385-8.866341-1.635902-5.030088-1.153873-7.192976-1.983063-9.111103-5.192429-2.048-3.431649-2.350205-7.257912-1.570965-11.528742 0.424585-2.322732 1.088937-4.503102 2.237814-7.727454l1.00402-2.822243c-2.110439 0.362146-4.940176 1.373659-9.315903 3.191882z" fill="#524F75" /><path d="M586.941815 433.921249c1.640898-22.338185 3.119454-38.507395 4.430673-48.502634 1.313717-9.992741 3.561522-22.183337 6.745912-36.564293 18.369561-8.941268 35.340488-9.790439 50.910283-2.557502 15.57479 7.232937 28.829346 18.586849 39.768663 34.059239-11.149112 14.730615-19.620839 25.475122-25.41518 32.223531-5.799337 6.753405-17.170732 19.131317-34.124176 37.128742l-42.316175-15.784586z" fill="#F06767" /><path d="M628.086634 440.844488c14.710634-16.221659 24.69838-27.500644 29.895805-33.77202 4.970146-6.004137 12.065717-15.272585 21.249249-27.772878-9.730498-12.025756-21.059434-20.86962-34.024273-26.624-12.625171-5.599532-26.201912-5.107512-41.204761 1.723317-2.505054 12.660137-4.263337 23.464585-5.277347 32.395864-1.021502 8.99122-2.100449 23.189854-3.224351 42.535961l32.583181 11.513756z m-47.870751-6.73842c1.256273-22.495532 2.4576-38.807102 3.621463-49.002146 1.163863-10.254985 3.231844-22.687844 6.208937-37.321054a7.477698 7.477698 0 0 1 3.946146-5.187434c20.127844-10.232507 39.424-11.538732 57.294049-3.611473 16.918478 7.507668 31.394341 19.470985 43.355161 35.777561a7.490185 7.490185 0 0 1 0.012488 8.846361c-10.974283 15.037815-19.331122 26.032078-25.132956 33.027746-5.769366 6.968195-16.980917 19.603356-33.692098 37.975415a7.49518 7.49518 0 0 1-8.042146 2.025522l-42.583415-15.047805a7.492683 7.492683 0 0 1-4.987629-7.482693z" fill="#524F75" /><path d="M560.605034 454.95321c0.689327-8.546654 3.8912-16.451434 8.029659-24.800781 4.140956-8.351844 7.779902-11.768507 12.862439-18.147278 16.211668 2.839727 27.503141 6.301346 33.874419 10.389854 6.363785 4.08601 15.834537 13.941385 28.394771 29.571122 0 12.552741-7.058107 21.414088-13.431883 27.670478-6.373776 6.25639-15.13522 13.32199-27.580566 17.635278" fill="#F06767" /><path d="M610.93838 428.509034c5.269854 3.251824 13.846478 11.778498 25.277815 25.332761-0.569444 7.200468-4.195902 13.374439-10.722029 20.010459-7.35282 7.4752-14.9504 12.834966-24.506068 16.334048a7.492683 7.492683 0 0 0 5.157463 14.071259c11.870907-4.350751 21.236761-10.959298 30.033171-19.898068 9.822907-9.985249 15.327532-20.210263 15.097756-33.284995a7.480195 7.480195 0 0 0-1.735805-4.665444c-13.329483-16.004371-23.394654-26.124488-30.72999-30.652566-7.492683-4.622985-19.655805-8.124566-36.821542-10.821932a7.49518 7.49518 0 0 0-7.108058 2.837229c-0.62439 0.816702-1.258771 1.61842-2.030517 2.582478-0.324683 0.4096-1.6384 2.043005-1.968078 2.4576-0.916605 1.148878-1.61842 2.048-2.300254 2.95961a64.556956 64.556956 0 0 0-7.073093 11.723551c-5.127493 10.824429-7.749932 18.909034-8.301892 27.677971a7.492683 7.492683 0 1 0 14.955395 0.939083c0.4096-6.486166 2.502556-12.942361 6.888273-22.200819a49.701463 49.701463 0 0 1 5.512117-9.143571c0.579434-0.774244 1.198829-1.565971 2.030517-2.609951 0.209795-0.259746 0.859161-1.066459 1.368663-1.708332 13.037268 2.290263 22.105912 5.055063 26.976156 8.059629z" fill="#524F75" /><path d="M389.617015 442.068293c19.311141 0 34.965854-16.391493 34.965853-36.614244s-15.65721-38.312585-34.965853-38.312586-34.965854 18.092332-34.965854 38.312586 15.654712 36.614244 34.965854 36.614244z" fill="#FFFFFF" /><path d="M389.617015 449.560976c-23.527024 0-42.458537-19.823141-42.458537-44.106927 0-24.513561 19.108839-45.805268 42.458537-45.805269s42.458537 21.291707 42.458536 45.805269c0 24.283785-18.931512 44.106927-42.458536 44.106927z m0-14.985366c15.092761 0 27.473171-12.962341 27.47317-29.121561 0-16.576312-12.782517-30.819902-27.47317-30.819903s-27.473171 14.24359-27.473171 30.819903c0 16.15922 12.377912 29.121561 27.473171 29.121561z" fill="#524F75" /><path d="M369.564098 415.696546c1.83321 2.382673 4.540566 3.893698 7.562614 3.893698 5.517112 0 9.990244-5.032585 9.990244-11.239024s-4.473132-11.239024-9.990244-11.239025c-5.449678 0-9.882849 4.910205-9.990244 11.011746l7.407766 1.211318-4.980136 6.361287z" fill="#232323" /><path d="M482.026771 447.063415c27.588059 0 49.95122-22.150868 49.951219-49.476683S507.007376 347.160976 479.419317 347.160976c-27.585561 0-47.343766 23.102439-47.343766 50.425756s22.363161 49.476683 49.95122 49.476683z" fill="#FFFFFF" /><path d="M482.026771 454.556098c-31.709034 0-57.443902-25.490107-57.443903-56.969366 0-32.043707 23.614439-57.918439 54.836449-57.918439 31.946302 0 60.051356 26.653971 60.051356 57.918439 0 31.479259-25.734868 56.969366-57.443902 56.969366z m0-14.985366c23.464585 0 42.458537-18.811629 42.458536-41.984 0-22.805229-21.224273-42.933073-45.06599-42.933073-22.625405 0-39.851083 18.874068-39.851083 42.933073 0 23.172371 18.993951 41.984 42.458537 41.984z" fill="#524F75" /><path d="M455.645034 411.038595a16.234146 16.234146 0 1 0-3.571512-9.4208l10.806946 1.513522-7.235434 7.907278z" fill="#232323" /></svg>