<svg width="22" height="19" viewBox="0 0 22 19" fill="none" xmlns="http://www.w3.org/2000/svg">
  <g filter="url(#filter0_d_889_15305)">
    <rect fill="white" height="13" rx="7" width="16" x="3" y="2.9"/>
    <path clip-rule="evenodd" d="m9.87,8.47c0.3,-0.31 0.7,-0.47 1.13,-0.47c0.43,0 0.83,0.16 1.13,0.47c0.31,0.3 0.47,0.7 0.47,1.13c0,0.43 -0.16,0.83 -0.47,1.13c-0.3,0.31 -0.7,0.47 -1.13,0.47c-0.43,0 -0.83,-0.16 -1.13,-0.47c-0.31,-0.3 -0.47,-0.7 -0.47,-1.13c0,-0.43 0.16,-0.83 0.47,-1.13zm1.13,0.4c-0.19,0 -0.38,0.08 -0.52,0.21c-0.13,0.14 -0.21,0.33 -0.21,0.52c0,0.19 0.08,0.38 0.21,0.52c0.14,0.13 0.33,0.21 0.52,0.21c0.19,0 0.38,-0.08 0.52,-0.21c0.13,-0.14 0.21,-0.33 0.21,-0.52c0,-0.19 -0.08,-0.38 -0.21,-0.52c-0.14,-0.13 -0.33,-0.21 -0.52,-0.21z" fill="black" fill-rule="evenodd"/>
    <path clip-rule="evenodd" d="m6.26,9.6c1.32,2.09 2.9,3.06 4.74,3.06c1.84,0 3.42,-0.97 4.74,-3.06c-1.32,-2.09 -2.9,-3.06 -4.74,-3.06c-1.84,0 -3.42,0.97 -4.74,3.06zm-0.89,-0.23c1.46,-2.42 3.33,-3.71 5.63,-3.71c2.3,0 4.17,1.29 5.63,3.71c0.08,0.14 0.08,0.32 0,0.46c-1.46,2.42 -3.33,3.71 -5.63,3.71c-2.3,0 -4.17,-1.29 -5.63,-3.71c-0.08,-0.14 -0.08,-0.32 0,-0.46z" fill="black" fill-rule="evenodd"/>
  </g>
  <defs>
    <filter id="filter0_d_889_15305" x="0" y="0" width="22" height="19" filterUnits="userSpaceOnUse" color-interpolation-filters="sRGB">
      <feFlood flood-opacity="0" result="BackgroundImageFix"/>
      <feColorMatrix in="SourceAlpha" type="matrix" values="0 0 0 0 0 0 0 0 0 0 0 0 0 0 0 0 0 0 127 0" result="hardAlpha"/>
      <feOffset/>
      <feGaussianBlur stdDeviation="2"/>
      <feComposite in2="hardAlpha" operator="out"/>
      <feColorMatrix type="matrix" values="0 0 0 0 0 0 0 0 0 0 0 0 0 0 0 0 0 0 0.25 0"/>
      <feBlend mode="normal" in2="BackgroundImageFix" result="effect1_dropShadow_889_15305"/>
      <feBlend mode="normal" in="SourceGraphic" in2="effect1_dropShadow_889_15305" result="shape"/>
    </filter>
  </defs>
</svg>
