<svg width="61" height="51" viewBox="0 0 61 51" fill="none" xmlns="http://www.w3.org/2000/svg">
<path fill-rule="evenodd" clip-rule="evenodd" d="M16.1683 18C14.3943 18 12.9737 19.4437 12.9737 21.2026V29.7974C12.9737 31.5563 14.3943 33 16.1683 33H44.8317C46.6057 33 48.0263 31.5563 48.0263 29.7974V21.2026C48.0263 19.4437 46.6057 18 44.8317 18H16.1683ZM12 21.2026C12 18.8717 13.8759 17 16.1683 17H44.8317C47.1241 17 49 18.8717 49 21.2026V29.7974C49 32.1283 47.1241 34 44.8317 34H16.1683C13.8759 34 12 32.1283 12 29.7974V21.2026Z" fill="#00C650"/>
<path d="M21.9112 29H20.2109L22.4194 22.4545H24.5256L26.734 29H25.0337L23.4964 24.1037H23.4453L21.9112 29ZM21.6843 26.424H25.2383V27.6257H21.6843V26.424ZM28.8546 29H27.1543L29.3627 22.4545H31.4689L33.6774 29H31.9771L30.4398 24.1037H30.3887L28.8546 29ZM28.6277 26.424H32.1816V27.6257H28.6277V26.424ZM40.0159 24.826H38.4179C38.3966 24.6619 38.3529 24.5138 38.2868 24.3817C38.2208 24.2496 38.1334 24.1367 38.0248 24.043C37.9161 23.9492 37.7872 23.8778 37.6381 23.8288C37.491 23.7777 37.328 23.7521 37.1491 23.7521C36.8316 23.7521 36.5578 23.8299 36.3277 23.9854C36.0997 24.141 35.9239 24.3658 35.8003 24.6598C35.6789 24.9538 35.6182 25.3097 35.6182 25.7273C35.6182 26.1619 35.68 26.5263 35.8035 26.8203C35.9292 27.1122 36.105 27.3327 36.3309 27.4819C36.5589 27.6289 36.8284 27.7024 37.1395 27.7024C37.3142 27.7024 37.4729 27.68 37.6157 27.6353C37.7606 27.5906 37.8873 27.5256 37.996 27.4403C38.1068 27.353 38.1974 27.2475 38.2677 27.1239C38.3401 26.9982 38.3902 26.8565 38.4179 26.6989L40.0159 26.7085C39.9882 26.9982 39.904 27.2837 39.7634 27.565C39.6249 27.8462 39.4342 28.103 39.1913 28.3352C38.9484 28.5653 38.6523 28.7486 38.3028 28.8849C37.9555 29.0213 37.5571 29.0895 37.1075 29.0895C36.5152 29.0895 35.9846 28.9595 35.5159 28.6996C35.0493 28.4375 34.6807 28.0561 34.4101 27.5554C34.1395 27.0547 34.0042 26.4453 34.0042 25.7273C34.0042 25.0071 34.1416 24.3967 34.4165 23.896C34.6913 23.3952 35.0631 23.0149 35.5319 22.755C36.0006 22.495 36.5258 22.3651 37.1075 22.3651C37.5038 22.3651 37.8703 22.4205 38.2069 22.5312C38.5436 22.6399 38.8398 22.7997 39.0954 23.0107C39.3511 23.2195 39.5589 23.4762 39.7187 23.7809C39.8785 24.0856 39.9775 24.4339 40.0159 24.826Z" fill="#00C650"/>
</svg>
