<svg width="37" height="17" viewBox="0 0 37 17" fill="none" xmlns="http://www.w3.org/2000/svg">
<path d="M9.91122 12H8.21094L10.4194 5.45455H12.5256L14.734 12H13.0337L11.4964 7.10369H11.4453L9.91122 12ZM9.6843 9.42401H13.2383V10.6257H9.6843V9.42401ZM16.8546 12H15.1543L17.3627 5.45455H19.4689L21.6774 12H19.9771L18.4398 7.10369H18.3887L16.8546 12ZM16.6277 9.42401H20.1816V10.6257H16.6277V9.42401ZM28.0159 7.82599H26.4179C26.3966 7.66193 26.3529 7.51385 26.2868 7.38175C26.2208 7.24964 26.1334 7.13672 26.0248 7.04297C25.9161 6.94922 25.7872 6.87784 25.6381 6.82884C25.491 6.7777 25.328 6.75213 25.1491 6.75213C24.8316 6.75213 24.5578 6.8299 24.3277 6.98544C24.0997 7.14098 23.9239 7.36577 23.8003 7.6598C23.6789 7.95384 23.6182 8.30966 23.6182 8.72727C23.6182 9.16193 23.68 9.52628 23.8035 9.82031C23.9292 10.1122 24.105 10.3327 24.3309 10.4819C24.5589 10.6289 24.8284 10.7024 25.1395 10.7024C25.3142 10.7024 25.4729 10.68 25.6157 10.6353C25.7606 10.5906 25.8873 10.5256 25.996 10.4403C26.1068 10.353 26.1974 10.2475 26.2677 10.1239C26.3401 9.99822 26.3902 9.85653 26.4179 9.69886L28.0159 9.70845C27.9882 9.99822 27.904 10.2837 27.7634 10.565C27.6249 10.8462 27.4342 11.103 27.1913 11.3352C26.9484 11.5653 26.6523 11.7486 26.3028 11.8849C25.9555 12.0213 25.5571 12.0895 25.1075 12.0895C24.5152 12.0895 23.9846 11.9595 23.5159 11.6996C23.0493 11.4375 22.6807 11.0561 22.4101 10.5554C22.1395 10.0547 22.0042 9.44531 22.0042 8.72727C22.0042 8.0071 22.1416 7.39666 22.4165 6.89595C22.6913 6.39524 23.0631 6.01491 23.5319 5.75497C24.0006 5.49503 24.5258 5.36506 25.1075 5.36506C25.5038 5.36506 25.8703 5.42045 26.2069 5.53125C26.5436 5.63991 26.8398 5.79972 27.0954 6.01065C27.3511 6.21946 27.5589 6.47621 27.7187 6.78089C27.8785 7.08558 27.9775 7.43395 28.0159 7.82599Z" fill="#00C650"/>
<path fill-rule="evenodd" clip-rule="evenodd" d="M4.16833 0C1.87589 0 0 1.87174 0 4.20259V12.7974C0 15.1283 1.87589 17 4.16833 17H32.8317C35.1241 17 37 15.1283 37 12.7974V4.20259C37 1.87174 35.1241 0 32.8317 0H4.16833ZM0.973684 4.20259C0.973684 2.44367 2.39431 1 4.16833 1H32.8317C34.6057 1 36.0263 2.44368 36.0263 4.20259V12.7974C36.0263 14.5563 34.6057 16 32.8317 16H4.16833C2.39431 16 0.973684 14.5563 0.973684 12.7974V4.20259Z" fill="#00C650"/>
</svg>
