<svg width="37" height="21" viewBox="0 0 37 21" fill="none" xmlns="http://www.w3.org/2000/svg">
<path fill-rule="evenodd" clip-rule="evenodd" d="M16.2169 7.42111C16.6994 7.69461 17.0981 8.09409 17.3704 8.57666C17.6558 9.08627 17.8013 9.66205 17.7922 10.2458C17.8029 10.831 17.6573 11.4086 17.3704 11.9191C17.0987 12.4039 16.699 12.8051 16.2148 13.0789C15.7218 13.3599 15.1628 13.5052 14.5951 13.4999C14.0275 13.5052 13.4685 13.3599 12.9756 13.0789C12.4913 12.8051 12.0916 12.4039 11.8199 11.9191C11.533 11.4086 11.3874 10.831 11.3981 10.2458C11.3872 9.66184 11.5328 9.08559 11.8199 8.57666C12.093 8.094 12.4925 7.69457 12.9756 7.42111C13.4685 7.14011 14.0275 6.99484 14.5951 7.00014C15.1635 6.99517 15.723 7.14041 16.2169 7.42111ZM13.391 8.91551C13.0799 9.28695 12.9216 9.76239 12.9481 10.2458C12.9215 10.7273 13.0799 11.2008 13.391 11.5697C13.5425 11.7341 13.7283 11.8634 13.9352 11.9485C14.1422 12.0336 14.3652 12.0724 14.5888 12.0622C14.8117 12.0715 15.0339 12.0322 15.24 11.9472C15.4461 11.8621 15.6312 11.7333 15.7824 11.5697C16.095 11.2014 16.2549 10.7278 16.2295 10.2458C16.2548 9.76447 16.0966 9.29143 15.7867 8.92183C15.6352 8.75734 15.4495 8.628 15.2425 8.5429C15.0355 8.4578 14.8124 8.419 14.5888 8.42928C14.3658 8.41906 14.1432 8.45726 13.9364 8.54121C13.7296 8.62515 13.5436 8.75284 13.391 8.91551Z" fill="#0072FF"/>
<path fill-rule="evenodd" clip-rule="evenodd" d="M9.15867 13.0304C9.64254 12.7752 10.0413 12.3845 10.3059 11.9064C10.5781 11.3987 10.7153 10.8298 10.7045 10.2541C10.7159 9.68037 10.5786 9.11338 10.3059 8.60813C10.0429 8.13338 9.64527 7.74674 9.16289 7.49677C8.61487 7.22344 8.00811 7.08833 7.39566 7.10319H5V13.4324H7.39566C8.00768 13.4468 8.61362 13.3086 9.15867 13.0304ZM9.04671 10.9738C8.96101 11.2036 8.82819 11.4129 8.65676 11.5886C8.27175 11.9232 7.7703 12.0934 7.26069 12.0622H6.53526V8.44605H7.26069C7.77071 8.41451 8.27254 8.5855 8.65676 8.92175C8.82824 9.0969 8.96113 9.30591 9.04684 9.53537C9.13255 9.76483 9.16921 10.0097 9.15447 10.2541C9.16912 10.4989 9.13241 10.744 9.04671 10.9738Z" fill="#0072FF"/>
<path d="M23.5535 7.67573C24.0883 8.1101 24.4521 8.71919 24.5805 9.39537H22.9567C22.8471 9.11513 22.6553 8.87448 22.4063 8.70498C22.1438 8.53442 21.8358 8.44711 21.5227 8.45451C21.3159 8.4479 21.1104 8.48889 20.922 8.5743C20.7337 8.65971 20.5676 8.78727 20.4366 8.94706C20.1431 9.32203 19.9935 9.78934 20.0148 10.2647C19.9934 10.7381 20.1431 11.2035 20.4366 11.576C20.5687 11.7342 20.7351 11.8601 20.9233 11.9444C21.1115 12.0287 21.3165 12.0689 21.5227 12.0622C21.8359 12.0705 22.1442 11.9831 22.4063 11.8117C22.6539 11.6453 22.8457 11.4084 22.9567 11.1319H24.5805C24.45 11.8061 24.0865 12.4132 23.5535 12.8473C22.9798 13.2845 22.2712 13.5078 21.5501 13.4788C20.9819 13.4907 20.421 13.3496 19.9263 13.0704C19.4633 12.8018 19.0877 12.4058 18.8444 11.9296C18.5824 11.4075 18.4513 10.8296 18.4627 10.2457C18.4514 9.66187 18.5824 9.08402 18.8444 8.56186C19.0877 8.08571 19.4633 7.68964 19.9263 7.42105C20.421 7.14182 20.9819 7.00073 21.5501 7.01268C22.2749 6.99353 22.9837 7.22811 23.5535 7.67573Z" fill="#0072FF"/>
<path d="M29.2898 13.4324L27.9528 11.4623L26.8055 13.4324H25.0468L27.0755 10.1741L24.9856 7.1032H26.8055L28.1067 9.01015L29.2265 7.1032H30.9769L28.9756 10.2899L31.1097 13.4324H29.2898Z" fill="#0072FF"/>
<path fill-rule="evenodd" clip-rule="evenodd" d="M4.16833 2C1.87589 2 0 3.87174 0 6.20259V14.7974C0 17.1283 1.87589 19 4.16833 19H32.8317C35.1241 19 37 17.1283 37 14.7974V6.20259C37 3.87174 35.1241 2 32.8317 2H4.16833ZM0.973684 6.20259C0.973684 4.44367 2.39431 3 4.16833 3H32.8317C34.6057 3 36.0263 4.44368 36.0263 6.20259V14.7974C36.0263 16.5563 34.6057 18 32.8317 18H4.16833C2.39431 18 0.973684 16.5563 0.973684 14.7974V6.20259Z" fill="#0072FF"/>
</svg>
