<svg width="37" height="22" viewBox="0 0 37 22" fill="none" xmlns="http://www.w3.org/2000/svg">
<path fill-rule="evenodd" clip-rule="evenodd" d="M4.16833 3.5C2.39431 3.5 0.973684 4.94367 0.973684 6.70259V15.2974C0.973684 17.0563 2.39431 18.5 4.16833 18.5H32.8317C34.6057 18.5 36.0263 17.0563 36.0263 15.2974V6.70259C36.0263 4.94368 34.6057 3.5 32.8317 3.5H4.16833ZM0 6.70259C0 4.37174 1.87589 2.5 4.16833 2.5H32.8317C35.1241 2.5 37 4.37174 37 6.70259V15.2974C37 17.6283 35.1241 19.5 32.8317 19.5H4.16833C1.87589 19.5 0 17.6283 0 15.2974V6.70259Z" fill="#99AABD"/>
<path d="M14.9352 8.7495V7.5L11 7.51079V14H12.4589V11.3758H14.3713V10.1824H12.4589V8.7495H14.9352Z" fill="#99AABD"/>
<path d="M18.2784 7.5V13.9892H16.8196V7.5H18.2784Z" fill="#99AABD"/>
<path d="M23.0405 12.7872H21.0859L21.0899 7.5H19.629V13.9892H23.0405V12.7872Z" fill="#99AABD"/>
<path d="M25.3001 10.1069V8.74735H27.5998V7.5H23.8432V13.9892H27.5998V12.7311H25.3001V11.2895H27.3389V10.1069H25.3001Z" fill="#99AABD"/>
</svg>
