<svg width="37" height="17" viewBox="0 0 37 17" fill="none" xmlns="http://www.w3.org/2000/svg">
<path d="M7.49538 12V5.45455H11.9634V6.73935H9.07741V8.08168H11.679V9.36967H9.07741V12H7.49538ZM12.76 12V5.45455H14.3421V10.7152H17.0651V12H12.76ZM19.3878 12H17.6875L19.896 5.45455H22.0021L24.2106 12H22.5103L20.973 7.10369H20.9219L19.3878 12ZM19.1609 9.42401H22.7148V10.6257H19.1609V9.42401ZM30.5491 7.82599H28.9511C28.9298 7.66193 28.8861 7.51385 28.82 7.38175C28.754 7.24964 28.6666 7.13672 28.558 7.04297C28.4493 6.94922 28.3204 6.87784 28.1713 6.82884C28.0242 6.7777 27.8612 6.75213 27.6823 6.75213C27.3648 6.75213 27.091 6.8299 26.8609 6.98544C26.6329 7.14098 26.4571 7.36577 26.3335 7.6598C26.2121 7.95384 26.1514 8.30966 26.1514 8.72727C26.1514 9.16193 26.2132 9.52628 26.3367 9.82031C26.4624 10.1122 26.6382 10.3327 26.8641 10.4819C27.0921 10.6289 27.3616 10.7024 27.6727 10.7024C27.8474 10.7024 28.0061 10.68 28.1489 10.6353C28.2938 10.5906 28.4205 10.5256 28.5292 10.4403C28.64 10.353 28.7306 10.2475 28.8009 10.1239C28.8733 9.99822 28.9234 9.85653 28.9511 9.69886L30.5491 9.70845C30.5214 9.99822 30.4372 10.2837 30.2966 10.565C30.1581 10.8462 29.9674 11.103 29.7245 11.3352C29.4816 11.5653 29.1855 11.7486 28.836 11.8849C28.4887 12.0213 28.0903 12.0895 27.6407 12.0895C27.0484 12.0895 26.5178 11.9595 26.0491 11.6996C25.5825 11.4375 25.2139 11.0561 24.9433 10.5554C24.6727 10.0547 24.5374 9.44531 24.5374 8.72727C24.5374 8.0071 24.6748 7.39666 24.9497 6.89595C25.2245 6.39524 25.5963 6.01491 26.0651 5.75497C26.5338 5.49503 27.059 5.36506 27.6407 5.36506C28.037 5.36506 28.4035 5.42045 28.7401 5.53125C29.0768 5.63991 29.373 5.79972 29.6286 6.01065C29.8843 6.21946 30.0921 6.47621 30.2519 6.78089C30.4117 7.08558 30.5107 7.43395 30.5491 7.82599Z" fill="#00C650"/>
<path fill-rule="evenodd" clip-rule="evenodd" d="M4.16833 0C1.87589 0 0 1.87174 0 4.20259V12.7974C0 15.1283 1.87589 17 4.16833 17H32.8317C35.1241 17 37 15.1283 37 12.7974V4.20259C37 1.87174 35.1241 0 32.8317 0H4.16833ZM0.973684 4.20259C0.973684 2.44367 2.39431 1 4.16833 1H32.8317C34.6057 1 36.0263 2.44368 36.0263 4.20259V12.7974C36.0263 14.5563 34.6057 16 32.8317 16H4.16833C2.39431 16 0.973684 14.5563 0.973684 12.7974V4.20259Z" fill="#00C650"/>
</svg>
