<svg width="61" height="51" viewBox="0 0 61 51" fill="none" xmlns="http://www.w3.org/2000/svg">
<path fill-rule="evenodd" clip-rule="evenodd" d="M16.1683 18C14.3943 18 12.9737 19.4437 12.9737 21.2026V29.7974C12.9737 31.5563 14.3943 33 16.1683 33H44.8317C46.6057 33 48.0263 31.5563 48.0263 29.7974V21.2026C48.0263 19.4437 46.6057 18 44.8317 18H16.1683ZM12 21.2026C12 18.8717 13.8759 17 16.1683 17H44.8317C47.1241 17 49 18.8717 49 21.2026V29.7974C49 32.1283 47.1241 34 44.8317 34H16.1683C13.8759 34 12 32.1283 12 29.7974V21.2026Z" fill="#00C650"/>
<path d="M18.9954 29V22.4545H23.4634V23.7393H20.5774V25.0817H23.179V26.3697H20.5774V29H18.9954ZM24.26 29V22.4545H25.8421V27.7152H28.5651V29H24.26ZM30.8878 29H29.1875L31.396 22.4545H33.5021L35.7106 29H34.0103L32.473 24.1037H32.4219L30.8878 29ZM30.6609 26.424H34.2148V27.6257H30.6609V26.424ZM42.0491 24.826H40.4511C40.4298 24.6619 40.3861 24.5138 40.32 24.3817C40.254 24.2496 40.1666 24.1367 40.058 24.043C39.9493 23.9492 39.8204 23.8778 39.6713 23.8288C39.5242 23.7777 39.3612 23.7521 39.1823 23.7521C38.8648 23.7521 38.591 23.8299 38.3609 23.9854C38.1329 24.141 37.9571 24.3658 37.8335 24.6598C37.7121 24.9538 37.6514 25.3097 37.6514 25.7273C37.6514 26.1619 37.7132 26.5263 37.8367 26.8203C37.9624 27.1122 38.1382 27.3327 38.3641 27.4819C38.5921 27.6289 38.8616 27.7024 39.1727 27.7024C39.3474 27.7024 39.5061 27.68 39.6489 27.6353C39.7938 27.5906 39.9205 27.5256 40.0292 27.4403C40.14 27.353 40.2306 27.2475 40.3009 27.1239C40.3733 26.9982 40.4234 26.8565 40.4511 26.6989L42.0491 26.7085C42.0214 26.9982 41.9372 27.2837 41.7966 27.565C41.6581 27.8462 41.4674 28.103 41.2245 28.3352C40.9816 28.5653 40.6855 28.7486 40.336 28.8849C39.9887 29.0213 39.5903 29.0895 39.1407 29.0895C38.5484 29.0895 38.0178 28.9595 37.5491 28.6996C37.0825 28.4375 36.7139 28.0561 36.4433 27.5554C36.1727 27.0547 36.0374 26.4453 36.0374 25.7273C36.0374 25.0071 36.1748 24.3967 36.4497 23.896C36.7245 23.3952 37.0963 23.0149 37.5651 22.755C38.0338 22.495 38.559 22.3651 39.1407 22.3651C39.537 22.3651 39.9035 22.4205 40.2401 22.5312C40.5768 22.6399 40.873 22.7997 41.1286 23.0107C41.3843 23.2195 41.5921 23.4762 41.7519 23.7809C41.9117 24.0856 42.0107 24.4339 42.0491 24.826Z" fill="#00C650"/>
</svg>
