<svg width="37" height="21" viewBox="0 0 37 21" fill="none" xmlns="http://www.w3.org/2000/svg">
<path fill-rule="evenodd" clip-rule="evenodd" d="M4.16833 3C2.39431 3 0.973684 4.44367 0.973684 6.20259V14.7974C0.973684 16.5563 2.39431 18 4.16833 18H32.8317C34.6057 18 36.0263 16.5563 36.0263 14.7974V6.20259C36.0263 4.44368 34.6057 3 32.8317 3H4.16833ZM0 6.20259C0 3.87174 1.87589 2 4.16833 2H32.8317C35.1241 2 37 3.87174 37 6.20259V14.7974C37 17.1283 35.1241 19 32.8317 19H4.16833C1.87589 19 0 17.1283 0 14.7974V6.20259Z" fill="#FF9908"/>
<path d="M17.2603 9.1646C17.1535 8.53112 16.8003 7.96257 16.2745 7.57791C15.6827 7.17121 14.969 6.96918 14.2465 7.00381C13.6497 6.99002 13.0599 7.13109 12.537 7.41267C12.0535 7.68071 11.6593 8.07936 11.4017 8.56086C11.1266 9.0846 10.9888 9.66694 11.0008 10.2556C10.9903 10.8407 11.128 11.4193 11.4017 11.9397C11.6598 12.4223 12.0557 12.8212 12.5414 13.0879C13.0718 13.3723 13.6699 13.5141 14.2747 13.4989C14.7724 13.5075 15.2656 13.4061 15.7177 13.2023C16.1158 13.0196 16.4691 12.7552 16.7533 12.427C17.0161 12.122 17.2162 11.7702 17.3427 11.3911V9.83826H14.0342V10.9462H16.0253C15.9287 11.2896 15.7184 11.592 15.4273 11.8063C15.1409 12.0089 14.795 12.1152 14.4415 12.1092C14.1939 12.1246 13.9457 12.0891 13.7129 12.0052C13.48 11.9213 13.2677 11.7908 13.0895 11.622C12.7732 11.2971 12.615 10.8318 12.615 10.2259C12.5887 9.74248 12.7505 9.2672 13.0678 8.89556C13.2188 8.73329 13.4043 8.60537 13.6114 8.52081C13.8184 8.43626 14.0418 8.39714 14.266 8.4062C14.5539 8.40071 14.8376 8.47409 15.085 8.61805C15.3061 8.7466 15.4827 8.93698 15.592 9.1646H17.2603Z" fill="#FF9908"/>
<path d="M19.8043 7.06317V13.4333H18.2292V7.06317H19.8043Z" fill="#FF9908"/>
<path d="M25.1404 8.28973V7.06317L20.8916 7.07376V13.4438H22.4667V10.8679H24.5316V9.69636H22.4667V8.28973H25.1404Z" fill="#FF9908"/>
</svg>
