<svg width="37" height="21" viewBox="0 0 37 21" fill="none" xmlns="http://www.w3.org/2000/svg">
<path fill-rule="evenodd" clip-rule="evenodd" d="M4.16833 3C2.39431 3 0.973684 4.44367 0.973684 6.20259V14.7974C0.973684 16.5563 2.39431 18 4.16833 18H32.8317C34.6057 18 36.0263 16.5563 36.0263 14.7974V6.20259C36.0263 4.44368 34.6057 3 32.8317 3H4.16833ZM0 6.20259C0 3.87174 1.87589 2 4.16833 2H32.8317C35.1241 2 37 3.87174 37 6.20259V14.7974C37 17.1283 35.1241 19 32.8317 19H4.16833C1.87589 19 0 17.1283 0 14.7974V6.20259Z" fill="#9747FF"/>
<path d="M29.4244 9.17247C29.3187 8.54071 28.9743 7.97372 28.4623 7.58874C27.8848 7.17828 27.1868 6.97217 26.4789 7.00302C25.8966 6.98975 25.3211 7.13054 24.8106 7.41113C24.3388 7.67898 23.9547 8.07776 23.7048 8.55927C23.4374 9.07866 23.303 9.65624 23.3136 10.2403C23.3012 10.8279 23.4357 11.4093 23.7048 11.9319C23.9552 12.4145 24.341 12.8135 24.8149 13.08C25.3329 13.3628 25.9165 13.5036 26.5065 13.4881C26.9915 13.4968 27.4722 13.3956 27.9126 13.1921C28.3021 13.0103 28.6476 12.7462 28.9254 12.4182C29.1819 12.1138 29.3772 11.7627 29.5005 11.3842V9.86391H26.2717V10.9698H28.215C28.1206 11.3131 27.9145 11.6152 27.6292 11.8283C27.3499 12.0308 27.0122 12.1369 26.6672 12.1306C26.4258 12.1458 26.184 12.1103 25.9571 12.0266C25.7303 11.9429 25.5234 11.8126 25.3498 11.6443C25.0411 11.3201 24.8868 10.8556 24.8868 10.2509C24.8606 9.76887 25.0186 9.29496 25.3287 8.92507C25.4753 8.76265 25.6559 8.6345 25.8576 8.54972C26.0593 8.46494 26.2772 8.42562 26.4959 8.43453C26.7775 8.42887 27.0551 8.50211 27.2973 8.64597C27.5123 8.76787 27.6861 8.9512 27.7963 9.17247H29.4244Z" fill="#9747FF"/>
<path d="M12.3175 7.07702V11.4202C12.3175 12.0869 12.1364 12.5993 11.7741 12.9574C11.5719 13.1439 11.3342 13.2877 11.0752 13.3803C10.8162 13.473 10.5411 13.5125 10.2665 13.4966C9.96572 13.5127 9.66473 13.4691 9.38091 13.3682C9.0971 13.2673 8.83608 13.1111 8.61297 12.9088C8.20558 12.5155 8.00121 11.9516 7.9998 11.2172H9.52009C9.52009 11.8113 9.74633 12.1074 10.1946 12.1074C10.5858 12.1074 10.7803 11.879 10.7803 11.4244V7.08125L12.3175 7.07702Z" fill="#9747FF"/>
<path fill-rule="evenodd" clip-rule="evenodd" d="M14.8676 13.4353V11.2045H15.8212C16.2592 11.2173 16.694 11.126 17.0899 10.9381C17.4185 10.7791 17.6924 10.5259 17.8765 10.2107C18.0555 9.88742 18.1466 9.5229 18.1408 9.15345C18.1544 8.87312 18.1085 8.59308 18.0061 8.33177C17.9037 8.07046 17.7471 7.83379 17.5466 7.63736C17.1505 7.2638 16.5754 7.07702 15.8212 7.07702H13.3304V13.4353H14.8676ZM15.6499 8.30766C16.2674 8.30766 16.5761 8.58959 16.5761 9.15345C16.5761 9.69898 16.2674 9.96892 15.6499 9.96328H14.8676V8.30766H15.6499Z" fill="#9747FF"/>
<path d="M20.2003 8.29919V9.62921H22.3486V10.79H20.2003V12.2025H22.6192V13.4353H18.661V7.07702H22.6192V8.29919H20.2003Z" fill="#9747FF"/>
</svg>
