<svg width="37" height="22" viewBox="0 0 37 22" fill="none" xmlns="http://www.w3.org/2000/svg">
<path fill-rule="evenodd" clip-rule="evenodd" d="M16.2278 12.8154V11.5138L19.155 7.5H20.821V11.4605H21.5923V12.8091H20.821V13.9872H19.253V12.8091L16.2278 12.8154ZM19.3808 9.30022L17.8043 11.4669H19.3808V9.30022Z" fill="#9747FF"/>
<path d="M15.203 13.9936V7.63424L13.3282 7.64064L11.6239 12.0698L9.89399 7.64064H8V14H9.54883V10.014L10.9358 14H12.2758L13.6542 10.0225V13.9936H15.203Z" fill="#9747FF"/>
<path fill-rule="evenodd" clip-rule="evenodd" d="M27.0504 12.824H24.6473L24.2489 13.9936H22.6191L24.9626 7.63211H26.7479L29.0914 13.9936H27.4424L27.0504 12.824ZM26.6499 11.6459L25.8531 9.29173L25.0478 11.6459H26.6499Z" fill="#9747FF"/>
<path fill-rule="evenodd" clip-rule="evenodd" d="M4.16833 2.5C1.87589 2.5 0 4.37174 0 6.70259V15.2974C0 17.6283 1.87589 19.5 4.16833 19.5H32.8317C35.1241 19.5 37 17.6283 37 15.2974V6.70259C37 4.37174 35.1241 2.5 32.8317 2.5H4.16833ZM0.973684 6.70259C0.973684 4.94367 2.39431 3.5 4.16833 3.5H32.8317C34.6057 3.5 36.0263 4.94368 36.0263 6.70259V15.2974C36.0263 17.0563 34.6057 18.5 32.8317 18.5H4.16833C2.39431 18.5 0.973684 17.0563 0.973684 15.2974V6.70259Z" fill="#9747FF"/>
</svg>
