<svg width="37" height="21" viewBox="0 0 37 21" fill="none" xmlns="http://www.w3.org/2000/svg">
<path fill-rule="evenodd" clip-rule="evenodd" d="M4.16833 3C2.39431 3 0.973684 4.44367 0.973684 6.20259V14.7974C0.973684 16.5563 2.39431 18 4.16833 18H32.8317C34.6057 18 36.0263 16.5563 36.0263 14.7974V6.20259C36.0263 4.44368 34.6057 3 32.8317 3H4.16833ZM0 6.20259C0 3.87174 1.87589 2 4.16833 2H32.8317C35.1241 2 37 3.87174 37 6.20259V14.7974C37 17.1283 35.1241 19 32.8317 19H4.16833C1.87589 19 0 17.1283 0 14.7974V6.20259Z" fill="#00C650"/>
<path d="M14.6733 10.7273C14.6733 11.4474 14.5348 12.0579 14.2578 12.5586C13.9808 13.0593 13.6058 13.4396 13.1328 13.6996C12.6619 13.9595 12.1335 14.0895 11.5476 14.0895C10.9595 14.0895 10.43 13.9585 9.95916 13.6964C9.48828 13.4343 9.11435 13.054 8.83736 12.5554C8.5625 12.0547 8.42507 11.4453 8.42507 10.7273C8.42507 10.0071 8.5625 9.39666 8.83736 8.89595C9.11435 8.39524 9.48828 8.01491 9.95916 7.75497C10.43 7.49503 10.9595 7.36506 11.5476 7.36506C12.1335 7.36506 12.6619 7.49503 13.1328 7.75497C13.6058 8.01491 13.9808 8.39524 14.2578 8.89595C14.5348 9.39666 14.6733 10.0071 14.6733 10.7273ZM13.0561 10.7273C13.0561 10.3011 12.9954 9.94105 12.8739 9.64702C12.7546 9.35298 12.582 9.13033 12.3562 8.97905C12.1325 8.82777 11.8629 8.75213 11.5476 8.75213C11.2344 8.75213 10.9648 8.82777 10.739 8.97905C10.5131 9.13033 10.3395 9.35298 10.218 9.64702C10.0987 9.94105 10.0391 10.3011 10.0391 10.7273C10.0391 11.1534 10.0987 11.5135 10.218 11.8075C10.3395 12.1016 10.5131 12.3242 10.739 12.4755C10.9648 12.6268 11.2344 12.7024 11.5476 12.7024C11.8629 12.7024 12.1325 12.6268 12.3562 12.4755C12.582 12.3242 12.7546 12.1016 12.8739 11.8075C12.9954 11.5135 13.0561 11.1534 13.0561 10.7273ZM19.8924 9.59268C19.8562 9.45845 19.8029 9.3402 19.7326 9.23793C19.6623 9.13352 19.576 9.0451 19.4737 8.97266C19.3714 8.90021 19.2543 8.84588 19.1222 8.80966C18.9901 8.77131 18.8452 8.75213 18.6875 8.75213C18.37 8.75213 18.0952 8.82883 17.8629 8.98224C17.6328 9.13565 17.4549 9.35937 17.3292 9.65341C17.2035 9.94531 17.1406 10.3001 17.1406 10.7177C17.1406 11.1374 17.2013 11.4954 17.3228 11.7915C17.4442 12.0877 17.62 12.3136 17.8501 12.4691C18.0803 12.6246 18.3594 12.7024 18.6875 12.7024C18.9773 12.7024 19.2223 12.6555 19.4226 12.5618C19.625 12.4659 19.7784 12.3306 19.8828 12.1559C19.9872 11.9812 20.0394 11.7756 20.0394 11.5391L20.3335 11.5742H18.7418V10.4205H21.5639V11.2866C21.5639 11.8725 21.4393 12.3743 21.19 12.7919C20.9428 13.2095 20.6019 13.5302 20.1673 13.7539C19.7347 13.9776 19.2372 14.0895 18.6747 14.0895C18.0504 14.0895 17.5018 13.9542 17.0288 13.6836C16.5558 13.413 16.1871 13.0273 15.9229 12.5266C15.6587 12.0238 15.5266 11.4272 15.5266 10.7369C15.5266 10.1999 15.6065 9.72372 15.7663 9.30824C15.9261 8.89062 16.1488 8.53693 16.4343 8.24716C16.7219 7.95739 17.0543 7.73793 17.4315 7.58878C17.8107 7.43963 18.2188 7.36506 18.6555 7.36506C19.0348 7.36506 19.3874 7.41939 19.7134 7.52805C20.0415 7.63672 20.3313 7.79013 20.5827 7.98828C20.8363 8.18643 21.0419 8.42188 21.1996 8.6946C21.3572 8.96733 21.4553 9.26669 21.4936 9.59268H19.8924ZM26.7918 9.59268C26.7556 9.45845 26.7023 9.3402 26.632 9.23793C26.5617 9.13352 26.4754 9.0451 26.3731 8.97266C26.2709 8.90021 26.1537 8.84588 26.0216 8.80966C25.8895 8.77131 25.7446 8.75213 25.5869 8.75213C25.2694 8.75213 24.9946 8.82883 24.7623 8.98224C24.5322 9.13565 24.3543 9.35937 24.2286 9.65341C24.1029 9.94531 24.04 10.3001 24.04 10.7177C24.04 11.1374 24.1008 11.4954 24.2222 11.7915C24.3437 12.0877 24.5194 12.3136 24.7496 12.4691C24.9797 12.6246 25.2588 12.7024 25.5869 12.7024C25.8767 12.7024 26.1217 12.6555 26.322 12.5618C26.5244 12.4659 26.6778 12.3306 26.7822 12.1559C26.8866 11.9812 26.9388 11.7756 26.9388 11.5391L27.2329 11.5742H25.6412V10.4205H28.4633V11.2866C28.4633 11.8725 28.3387 12.3743 28.0894 12.7919C27.8422 13.2095 27.5013 13.5302 27.0667 13.7539C26.6341 13.9776 26.1366 14.0895 25.5741 14.0895C24.9498 14.0895 24.4012 13.9542 23.9282 13.6836C23.4552 13.413 23.0866 13.0273 22.8224 12.5266C22.5581 12.0238 22.426 11.4272 22.426 10.7369C22.426 10.1999 22.5059 9.72372 22.6657 9.30824C22.8256 8.89062 23.0482 8.53693 23.3337 8.24716C23.6214 7.95739 23.9537 7.73793 24.3309 7.58878C24.7101 7.43963 25.1182 7.36506 25.555 7.36506C25.9342 7.36506 26.2868 7.41939 26.6128 7.52805C26.941 7.63672 27.2307 7.79013 27.4822 7.98828C27.7357 8.18643 27.9413 8.42188 28.099 8.6946C28.2567 8.96733 28.3547 9.26669 28.393 9.59268H26.7918Z" fill="#00C650"/>
</svg>
