<svg width="37" height="21" viewBox="0 0 37 21" fill="none" xmlns="http://www.w3.org/2000/svg">
<path fill-rule="evenodd" clip-rule="evenodd" d="M4.16833 3C2.39431 3 0.973684 4.44367 0.973684 6.20259V14.7974C0.973684 16.5563 2.39431 18 4.16833 18H32.8317C34.6057 18 36.0263 16.5563 36.0263 14.7974V6.20259C36.0263 4.44368 34.6057 3 32.8317 3H4.16833ZM0 6.20259C0 3.87174 1.87589 2 4.16833 2H32.8317C35.1241 2 37 3.87174 37 6.20259V14.7974C37 17.1283 35.1241 19 32.8317 19H4.16833C1.87589 19 0 17.1283 0 14.7974V6.20259Z" fill="#005FAD"/>
<path fill-rule="evenodd" clip-rule="evenodd" d="M11.9346 11.0448L13.345 13.4999H15.0783L13.5292 10.9432C13.975 10.8535 14.3765 10.614 14.6666 10.2646C14.9329 9.92056 15.0715 9.49516 15.0588 9.06074C15.0656 8.68904 14.9737 8.32216 14.7923 7.99741C14.6039 7.67976 14.3248 7.42543 13.9907 7.26694C13.5836 7.07986 13.1388 6.98887 12.6907 7.00109H9.99982V13.4999H11.5749V11.0448H11.9346ZM12.5521 9.97061H11.5749L11.5793 8.31945H12.5564C12.8049 8.29868 13.0516 8.37631 13.2432 8.53558C13.3188 8.61678 13.377 8.71252 13.4143 8.81694C13.4516 8.92136 13.4671 9.03226 13.4599 9.14287C13.4686 9.25426 13.4538 9.36624 13.4165 9.47159C13.3792 9.57693 13.3202 9.67329 13.2432 9.75448C13.049 9.91199 12.8017 9.98932 12.5521 9.97061Z" fill="#005FAD"/>
<path fill-rule="evenodd" clip-rule="evenodd" d="M19.8968 12.3135H17.4551L17.0478 13.5H15.3903L17.7736 7.04659H19.587L21.9702 13.5H20.2933L19.8968 12.3135ZM19.4917 11.1183L18.6792 8.728L17.8602 11.1183H19.4917Z" fill="#005FAD"/>
<path fill-rule="evenodd" clip-rule="evenodd" d="M24.5224 11.0448L25.9329 13.4999H27.6661L26.117 10.9432C26.5629 10.8535 26.9644 10.614 27.2545 10.2646C27.5208 9.92056 27.6593 9.49516 27.6467 9.06074C27.6535 8.68904 27.5616 8.32216 27.3802 7.99741C27.1918 7.67976 26.9127 7.42543 26.5785 7.26694C26.1714 7.07986 25.7266 6.98887 25.2786 7.00109H22.5877V13.4999H24.1628V11.0448H24.5224ZM25.1399 9.97061H24.1628L24.1671 8.31945H25.1442C25.3928 8.29868 25.6395 8.37631 25.8311 8.53558C25.9067 8.61678 25.9649 8.71252 26.0022 8.81694C26.0394 8.92136 26.0549 9.03226 26.0477 9.14287C26.0564 9.25426 26.0417 9.36624 26.0043 9.47159C25.967 9.57693 25.908 9.67329 25.8311 9.75448C25.6366 9.91159 25.3895 9.98888 25.1399 9.97061Z" fill="#005FAD"/>
</svg>
