<svg width="37" height="22" viewBox="0 0 37 22" fill="none" xmlns="http://www.w3.org/2000/svg">
<path d="M14.5311 14L16.0853 7.5H14.4036L13.5584 12.208L12.417 7.5H10.6877L9.5464 12.208L8.70985 7.5H7L8.55422 14H10.4997L11.5481 9.65081L12.5857 14H14.5311Z" fill="#00C650"/>
<path fill-rule="evenodd" clip-rule="evenodd" d="M20.9403 12.8133H18.502L18.0978 14H16.4441L18.8219 7.54539H20.6333L23.0111 14H21.338L20.9403 12.8133ZM20.5339 11.6179L19.7255 9.22929L18.9084 11.6179H20.5339Z" fill="#00C650"/>
<path d="M24.8376 7.5L26.4286 12.3918L28.0196 7.5H29.7013L27.4402 14H25.4083L23.1559 7.5H24.8376Z" fill="#00C650"/>
<path fill-rule="evenodd" clip-rule="evenodd" d="M4.16833 2.5C1.87589 2.5 0 4.37174 0 6.70259V15.2974C0 17.6283 1.87589 19.5 4.16833 19.5H32.8317C35.1241 19.5 37 17.6283 37 15.2974V6.70259C37 4.37174 35.1241 2.5 32.8317 2.5H4.16833ZM0.973684 6.70259C0.973684 4.94367 2.39431 3.5 4.16833 3.5H32.8317C34.6057 3.5 36.0263 4.94368 36.0263 6.70259V15.2974C36.0263 17.0563 34.6057 18.5 32.8317 18.5H4.16833C2.39431 18.5 0.973684 17.0563 0.973684 15.2974V6.70259Z" fill="#00C650"/>
</svg>
