<svg width="37" height="22" viewBox="0 0 37 22" fill="none" xmlns="http://www.w3.org/2000/svg">
<path fill-rule="evenodd" clip-rule="evenodd" d="M4.16833 3.5C2.39431 3.5 0.973684 4.94367 0.973684 6.70259V15.2974C0.973684 17.0563 2.39431 18.5 4.16833 18.5H32.8317C34.6057 18.5 36.0263 17.0563 36.0263 15.2974V6.70259C36.0263 4.94368 34.6057 3.5 32.8317 3.5H4.16833ZM0 6.70259C0 4.37174 1.87589 2.5 4.16833 2.5H32.8317C35.1241 2.5 37 4.37174 37 6.70259V15.2974C37 17.6283 35.1241 19.5 32.8317 19.5H4.16833C1.87589 19.5 0 17.6283 0 15.2974V6.70259Z" fill="#00C650"/>
<path d="M13.5487 13.9936L15.1065 7.5H13.4208L12.5737 12.2034L11.4297 7.5H9.69633L8.55233 12.2034L7.71383 7.5H6L7.55783 13.9936H9.50783L10.5587 9.64868L11.5987 13.9936H13.5487Z" fill="#00C650"/>
<path d="M23.2619 7.5453V13.9935H21.6802V9.96824L20.2784 14H18.9156L17.5051 9.9596V14H15.9277V7.55178H17.8539L19.6154 12.0435L21.3379 7.55178L23.2619 7.5453Z" fill="#00C650"/>
<path fill-rule="evenodd" clip-rule="evenodd" d="M25.9439 12.808H28.3966L28.7844 13.9935H30.4614L28.0781 7.5453H26.2624L23.8791 13.9935H25.5366L25.9439 12.808ZM27.1789 9.22754L27.9914 11.6138H26.3599L27.1789 9.22754Z" fill="#00C650"/>
</svg>
