<svg width="37" height="21" viewBox="0 0 37 21" fill="none" xmlns="http://www.w3.org/2000/svg">
<path fill-rule="evenodd" clip-rule="evenodd" d="M4.16833 3C2.39431 3 0.973684 4.44367 0.973684 6.20259V14.7974C0.973684 16.5563 2.39431 18 4.16833 18H32.8317C34.6057 18 36.0263 16.5563 36.0263 14.7974V6.20259C36.0263 4.44368 34.6057 3 32.8317 3H4.16833ZM0 6.20259C0 3.87174 1.87589 2 4.16833 2H32.8317C35.1241 2 37 3.87174 37 6.20259V14.7974C37 17.1283 35.1241 19 32.8317 19H4.16833C1.87589 19 0 17.1283 0 14.7974V6.20259Z" fill="#00C650"/>
<path d="M8.09659 7.45455L9.2919 9.52237H9.34304L10.5511 7.45455H12.3217L10.3466 10.7273L12.3857 14H10.5703L9.34304 11.9098H9.2919L8.06463 14H6.26207L8.29155 10.7273L6.31321 7.45455H8.09659ZM13.1399 14V7.45455H14.7219V12.7152H17.445V14H13.1399ZM21.8019 9.4169C21.7806 9.18253 21.6858 9.00035 21.5175 8.87038C21.3513 8.73828 21.1137 8.67223 20.8048 8.67223C20.6002 8.67223 20.4298 8.69886 20.2934 8.75213C20.157 8.8054 20.0548 8.87891 19.9866 8.97266C19.9184 9.06428 19.8833 9.16974 19.8811 9.28906C19.8769 9.38707 19.896 9.47337 19.9387 9.54794C19.9834 9.62251 20.0473 9.68857 20.1304 9.74609C20.2156 9.80149 20.3179 9.8505 20.4372 9.89311C20.5566 9.93572 20.6908 9.97301 20.8399 10.005L21.4024 10.1328C21.7263 10.2031 22.0118 10.2969 22.259 10.4141C22.5083 10.5312 22.7171 10.6708 22.8854 10.8327C23.0558 10.9947 23.1847 11.1811 23.2721 11.392C23.3595 11.603 23.4042 11.8395 23.4063 12.1016C23.4042 12.5149 23.2998 12.8697 23.0931 13.1658C22.8865 13.462 22.5892 13.6889 22.2014 13.8466C21.8158 14.0043 21.3502 14.0831 20.8048 14.0831C20.2572 14.0831 19.7799 14.0011 19.373 13.837C18.966 13.6729 18.6496 13.4237 18.4237 13.0891C18.1979 12.7546 18.0818 12.3317 18.0754 11.8203H19.5903C19.6031 12.0312 19.6595 12.207 19.7597 12.3477C19.8598 12.4883 19.9972 12.5948 20.172 12.6673C20.3488 12.7397 20.5534 12.7759 20.7856 12.7759C20.9987 12.7759 21.1798 12.7472 21.3289 12.6896C21.4802 12.6321 21.5963 12.5522 21.6773 12.4499C21.7583 12.3477 21.7998 12.2305 21.8019 12.0984C21.7998 11.9748 21.7615 11.8693 21.6869 11.782C21.6123 11.6925 21.4972 11.6158 21.3417 11.5518C21.1883 11.4858 20.9923 11.4251 20.7536 11.3697L20.0697 11.2099C19.5029 11.0799 19.0566 10.87 18.7306 10.5803C18.4046 10.2884 18.2426 9.89418 18.2448 9.39773C18.2426 8.9929 18.3513 8.63814 18.5708 8.33345C18.7902 8.02876 19.0938 7.79119 19.4816 7.62074C19.8694 7.45028 20.3115 7.36506 20.808 7.36506C21.3151 7.36506 21.7551 7.45135 22.1279 7.62393C22.5029 7.79439 22.7938 8.03409 23.0004 8.34304C23.2071 8.65199 23.3126 9.00994 23.3169 9.4169H21.8019ZM25.8066 7.45455L27.0019 9.52237H27.053L28.2611 7.45455H30.0317L28.0566 10.7273L30.0956 14H28.2803L27.053 11.9098H27.0019L25.7746 14H23.972L26.0015 10.7273L24.0232 7.45455H25.8066Z" fill="#00C650"/>
</svg>
