<?xml version="1.0" encoding="utf-8"?>
<!-- Generator: Adobe Illustrator 27.3.1, SVG Export Plug-In . SVG Version: 6.00 Build 0)  -->
<svg width="35" height="35" version="1.1" id="svg_null" xmlns="http://www.w3.org/2000/svg" xmlns:xlink="http://www.w3.org/1999/xlink" x="0px" y="0px"
	 viewBox="0 0 30 36.4" style="enable-background:new 0 0 30 36.4;" xml:space="preserve">
<style type="text/css">
	.st0{fill-rule:evenodd;clip-rule:evenodd;fill:#B91B5F;}
	.st1{fill-rule:evenodd;clip-rule:evenodd;fill:#833F91;}
	.st2{fill-rule:evenodd;clip-rule:evenodd;fill:#B91B5F;fill-opacity:0.7;}
	.st3{fill-rule:evenodd;clip-rule:evenodd;fill:#833F91;fill-opacity:0.7;}
</style>
<polygon id="shape.accent" class="st0" points="0.1,10.2 0,16.2 14.9,5.9 15,0 "/>
<polygon id="shape.accent_00000058578984455717482740000015101694037092719795_" class="st0" points="0.1,20.2 0,26.2 14.9,15.9 
	15,10 "/>
<polygon id="shape.accent_00000139262130389259181420000006150764052966818951_" class="st1" points="15.1,30.5 15,36.4 29.9,26.2 
	30,20.2 "/>
<polygon id="shape.accent_00000073695251714854917550000004159081223196434616_" class="st1" points="15.1,20.5 15,26.4 29.9,16.2 
	30,10.2 "/>
<polygon id="shape.accent_00000138535245964607515310000008821431943310832052_" class="st2" points="0,16.2 15,26.4 15.1,20.5 
	0.1,10.2 "/>
<polygon id="shape.accent_00000023250367431736682870000011202246663436641207_" class="st3" points="14.9,5.9 29.9,16.2 30,10.2 
	15,0 "/>
<polygon id="shape.accent_00000039835503199161906630000017184438060199979933_" class="st3" points="14.9,15.9 29.9,26.2 30,20.2 
	15,10 "/>
<polygon id="shape.accent_00000005944962738607481630000018012638429138346163_" class="st2" points="0,26.2 15,36.4 15.1,30.5 
	0.1,20.2 "/>
</svg>
