<svg width="16" height="16" viewBox="0 0 16 16" fill="none" xmlns="http://www.w3.org/2000/svg">
<path d="M15.36 0H0.64C0.286 0 0 0.286 0 0.64V15.36C0 15.714 0.286 16 0.64 16H15.36C15.714 16 16 15.714 16 15.36V0.64C16 0.286 15.714 0 15.36 0ZM11.67 5.074L7.458 10.914C7.39913 10.9962 7.32152 11.0631 7.23161 11.1093C7.1417 11.1555 7.04208 11.1796 6.941 11.1796C6.83992 11.1796 6.7403 11.1555 6.65039 11.1093C6.56048 11.0631 6.48287 10.9962 6.424 10.914L3.93 7.458C3.854 7.352 3.93 7.204 4.06 7.204H4.998C5.202 7.204 5.396 7.302 5.516 7.47L6.94 9.446L10.084 5.086C10.204 4.92 10.396 4.82 10.602 4.82H11.54C11.67 4.82 11.746 4.968 11.67 5.074Z" fill="#3F7BEF"/>
</svg>
