<?xml version="1.0" encoding="utf-8"?>
<!-- Generator: Adobe Illustrator 27.3.1, SVG Export Plug-In . SVG Version: 6.00 Build 0)  -->
<svg version="1.1" id="svg_null" xmlns="http://www.w3.org/2000/svg" xmlns:xlink="http://www.w3.org/1999/xlink" x="0px" y="0px"
	 viewBox="0 0 457.2 109.2" style="enable-background:new 0 0 457.2 109.2;" xml:space="preserve">
<style type="text/css">
	.st0{fill-rule:evenodd;clip-rule:evenodd;fill:#B91B5F;}
	.st1{fill-rule:evenodd;clip-rule:evenodd;fill:#833F91;}
	.st2{opacity:0.7;fill-rule:evenodd;clip-rule:evenodd;fill:#B91B5F;}
	.st3{opacity:0.7;fill-rule:evenodd;clip-rule:evenodd;fill:#833F91;}
	.st4{opacity:0.68;}
	.st5{fill:#833F91;}
</style>
<g id="shape.accent">
	<path class="st0" d="M15.2,26.9c1.1,4.4,0.8,17-0.1,23.6c0.8-3.6,45.6-34.1,45.1-29.7c0.9-0.8,0.1-17.5,1.2-17.5
		C61.5,3.4,16.2,29.5,15.2,26.9z"/>
</g>
<g id="shape.accent_00000058578984455717482740000015101694037092719795_">
	<path class="st0" d="M15.9,65.2c0.3-6.1-1.1,14.7,0.1,14.8C15.4,79.3,61.1,48.9,61,43.3c-1.4,4.1-0.9-16.7,0.4-15.6
		C60.3,28.7,16.3,58.8,15.9,65.2z"/>
</g>
<g id="shape.accent_00000139262130389259181420000006150764052966818951_">
	<path class="st1" d="M60.5,95.3c-0.2-3.5,0.2,14,0.9,10.1c-0.4,4.9,44.4-31.7,43.6-29.5c0.6,3.3,0.7-18.5,0.1-19.6
		C105.8,63.9,60.2,91.3,60.5,95.3z"/>
</g>
<g id="shape.accent_00000073695251714854917550000004159081223196434616_">
	<path class="st1" d="M61,63.7c0.7,2.2-0.2,13.3,0.2,12.5c-1,5.6,44.2-26.5,44.5-27.2c-0.5-2.3-0.4-22.9-0.9-18.1
		C105.7,32.3,61.5,60.5,61,63.7z"/>
</g>
<g id="shape.accent_00000138535245964607515310000008821431943310832052_">
	<path class="st2" d="M16.1,47.4c0,2.2,45.2,27.3,44.8,29.4C60.4,79.9,61,60,61.1,59.9c0,5.5-45-32.8-45.3-26.6
		C15.5,33.8,15.5,45.5,16.1,47.4z"/>
</g>
<g id="shape.accent_00000023250367431736682870000011202246663436641207_">
	<path class="st3" d="M59.7,18.3c1.5,2.1,45.6,31.4,46.5,34.3c-0.2-4.2-1-21.7-0.5-20.1c-0.6-3.3-44.8-34.5-45-36.3
		C61,4.8,60.9,20.9,59.7,18.3z"/>
</g>
<g id="shape.accent_00000039835503199161906630000017184438060199979933_">
	<path class="st3" d="M60.1,48.3C61,44,105.6,74.6,105,76.7c0.8-3,0.6-13.1,0.7-18c-0.5,3.5-45-31.5-44.5-26.4
		C60.4,26.4,60.4,47.7,60.1,48.3z"/>
</g>
<g id="shape.accent_00000005944962738607481630000018012638429138346163_">
	<path class="st2" d="M15.4,76.1c0.7,6.9,45,31.4,45.1,30.9c0.2,3.7,0.7-10.8,0.6-17.8C60.9,95.5,15.7,64.5,15.8,60
		C15.1,65,15.8,74.8,15.4,76.1z"/>
</g>
<g class="st4">
	<g>
		<path class="st5" d="M137.9,34.5c0.1,2.8,0,3.5-0.1-0.2c-1.6,4.8-2.5,7.3-2.7,7.2c-0.9,3.2-1.5-1.2-1.4,1.7
			c-0.3-0.8-0.1,27.5-0.3,27.1c0.7,1.6,0.7,3,0.1-0.3c0,3.9,0.2-2.6,0.3,1.5c0.7,5,0.4,0.6,1.4-1.9c0.1-0.4,0.5,1.7,1.1,5.7
			c0.5-0.8,0.7-1.1,2-3c-0.6,5-0.4,2.6-0.6,7.6c-4.3-3.6-8.7-1.6-11.7-3.4c-3.1-3.4-5.1-3-7.2-10.7c-1.4-0.6-2.4-5.9-2.2-11.3
			c0.1-2.3,0.5-0.2,1.9-9.1c0.4,1.9,2.5-1.2,4.4-1.5c1.6-6.3,3.8-9.1,6.2-10c3.1,3.3,5.7-0.6,7.9-0.3
			C137.2,35.3,137.8,33.7,137.9,34.5z M140.8,38.4c0.1,1.1,0-3.7,0-5.2c1.1,2,2.1,2.9,3.2,2.7c0.6,1.1,1.7-0.7,3.7,0.4
			c1,0,2,1.5,2.3,1.3c1.2,0.6,1.7,0.4,1.7-1.4c0,1.4,0.5-2.1,0.4-0.7c0.6,1.2,0.7-0.9,2-2c0.5-0.3,0.9,0.6,1.4,2.4
			c0.4-0.1,0.3,0.3,0.7,0.1c-0.4,2-0.3,12.2-0.4,14.2c0.3-0.6-0.2,1.2-0.3,1.6c-0.5-0.3-0.8,1-1.7-0.8c-0.5,1-1.1,0.1-1.3-0.7
			c-0.3,0-0.6,1.4-0.6-1.8c-0.9,0.2-1-1.4-1.4-1.7c-1.2-3.6-2.5-5.6-4.1-6.7c-0.6,0.9-1.5-1-2.5-1.3
			C142.9,39.1,141.8,38.2,140.8,38.4z M140.9,77.9c0.1,0.8,0-3.8,0-4.9c1.8,1.3,3.8,1.2,6.2-0.1c0.9,0.1,1.7-2.4,2.7-3
			c0.6-1.2,1.4-1.3,1.7-2.6c0.7-0.2,1-0.6,1-1.9c0.3,0.8,0.8-1.5,1.2-0.4c0.9,1.3,1,0.1,1.8-0.4c0.2,0.1,0.4,1.1,0.5,2.8
			c0,0.6-0.6,1.6-1.1,2.3c-1.2,2.8-2.2,2.2-3.6,4.8c-1.3,0.3-3.2,2.2-4.6,2.9C145,77.6,142.9,77.6,140.9,77.9z"/>
		<path class="st5" d="M182.8,40.7c0.3,2.7,18.2,30.9,18.1,27.4c0.1,5.2,1,7.5,2.7,7c0.2,2.5,0.1-2.7,0.6-1.2
			c-0.4-0.5,0.1,2.9-0.2,2.9c1.4,2.1,1.2,2.6-0.4-0.2c-0.4,3.6-1.2-2.9-2.8,0.5c1,4.3-17.2-0.3-15.9-3.1c-1.9-0.8-2.8,0.9-2.9,4.4
			c-0.8-1.3-1.9-2.2-0.8-4.7c-1.1,4.6-0.8-1.5-1,3.1c1-3.6,0.5-1,1.9-1c0.7-2.1,1.7,0.2,0.5-4.6c0.2,2-0.4-0.2-0.5-2
			c0.2,0.7-17.7-24.6-17-30.6c-1.6,3.9-0.6,2.7-0.8,4c-0.9-4.5-1.6-5.9-2.8-5.8c0.3,4.1,0,0.7-0.6,0.7c0.4,1.2,0.3-2.7-0.1-2
			c0.7,5.3,0.3-0.5,0.8-1.1c0.7,3,1.9,5.6,3.1-0.4c-0.1,5.3,16.5,5.1,16.6,1.3c0.6,4.3,2.2,0.7,2.4,1.5c1.4-3.3,1.2-3.1,0.7-0.7
			c0.8-2,0,5.1-0.7,1.3c-0.9,3.2-0.5-0.2-0.2,4.3c-1-5-0.3,1-1.5-0.9C183.3,42.7,182.5,39.5,182.8,40.7z M173.9,62.2
			c0.1,1,2,3.4,2,2.1c-0.1,1.6-2.3,5.3-1.9,5c-1,1.9-1.6,0.9-1.5,2c-0.2,0.7,0.6,2.5,1.7,2.8c1.2,0.8,1.7,1.1,1.6,0.2
			c0.3,1.4,0.4-0.6,0.3,1c0.4,2.1-0.4,0.9-0.5,0.3c-0.4-0.2-0.7,0.6-0.8,1.9c-0.2-0.3-1-0.4-1.4-1.1c-0.4,1.7-9.6-0.4-9.7,1.3
			c-0.5-1.2-1.4-0.3-1.5-0.5c-0.5-0.8-0.5-0.2-0.9-2.3c0.1,0.5,0.1-0.5,0.5-1.1c0.3,0,0.8,1.5,1.7-0.9c1.4,1,3.2-0.3,4.2-1
			C167.5,70.5,173.9,61.9,173.9,62.2z M191,49.3c0.1,0.9-2-3.4-2.1-4.6c-0.1,1.5,2-0.8,2.3-1.1c0.3,0.1,0.3-2.3,0.4-2.4
			c-0.2-0.7-0.3-0.1-0.7-0.7c0.2,0.1-0.3-0.2-1.2-1.4c0,1.1-1.2-1.6-1.3-0.5c0.1,1.3-0.5-0.4-0.3-1.6c-0.4-0.6-0.5-0.2-0.4,0.7
			c0-0.8,0-1.3,0.8-2.2c0,1.3,0.6-0.8,1.2,0.8c0.3-1.1,10.5-0.2,10.8-0.1c0.6-0.5,1.4,0.5,1.4-0.7c0.5,1,0.6,0.8,0.7,0.8
			c0.1,0.7-0.2,2.7-0.4,1.1c-0.6,1.6-0.7,1.6-1.5,2.5c-1.9-0.6-3.4,0.2-4.8,1.8C196.3,43.1,190.9,49.1,191,49.3z"/>
		<path class="st5" d="M229.8,35.3c0.1,2.7,0,41.3,0,37.8c-0.2,4.5-16.1,6.3-15.7,5.4c-0.2,2.2-1.4-3.2-1.3-2
			c-1.2-0.8-1.7,2.2-2.3,1.5c0.2,1.3-0.1,0.9-0.6-2.7c0,2.5,0.5-4.8,1.4-1.6c1.3,4,1.2-0.7,1.9-3.5c-0.1-0.9,0,0.8,0.3,4.3
			c0.3-1.3,0.1-2.2,0.6-4.7c-0.5,4.8-0.4-31.5-0.6-26.7c0.4-4.1-0.1-1.7,0-1.8c-0.2-1.7-0.1,0.9-0.7-3.6c0,2.3-0.7,0.5-1.3-0.9
			c-0.9,0.5-1.4,4.6-1.1-2.2c-0.6,3.9,0.2,2.7,0.8,4c0.2-4.5,0.8-5.7,1.3-5.4c0.3,4.3,1.3,1.1,1.1,1.4
			C213.8,36.1,229.7,34.5,229.8,35.3z M241,55.4c2.3,3,3.8,0.5,5-2.6c1,4.8,2.2,7.1,3.6,6.7c1.4,3.1,2.4-1.2,3.3,1.5
			c0.5,0.6,1.2,5.3,1,6.7c0.7,5-0.8,7.8-4.4,6.6c-1.5,4.3-3.2-1.6-5.3,2.2c-1.4,4.7-4.5,0.3-6.9-2.5c-0.3-0.8-4.6,1-4.5,4.6
			c0-1-0.3-4.5,0.2-6.4c0.4,4.8,1.3-1.2,1.7,3.4c1-3.6,1.1-1,1.9-1.2c0.7-2.3,1.4-0.7,0.9-6.7c0.1,2.4-0.1-6.2,0.1-7.4
			c0.1-0.3-0.1,3.6,0-2.9c-0.8,3.8-0.6,2.5-1.1,3.6c-0.7-4.6-1.2-5.9-2.1-5.8c-0.1,4.1-0.8,0.9-1.9,1c0.3,1.5,0.3-5.3,0.1-4.1
			c1.2,5.9,1.6,0.4,2.1-0.2c0.6,3.1,1.2,5.6,1.5-0.7c0.3,5,0.5,4.4,0.9,0.1c0,3.8,0.5-0.3,0.3-0.3c0.4-3.6,0.2-5.4-0.1-3.6
			c0.4-2.6,0.2-1.3,0.2-5.5c-0.2,2.4-0.1-1.8,0,2c-0.6-5.7-0.5-0.4-1.5-3c0.2,1.4-0.7-0.3-0.9,2c-0.7-3.8-1.9-3.7-2.6-2.4
			c-0.3-2.8,0.1-6.5,0-8.1c0.2,7.2,4.1,0.6,4.4,2.2c5.5,1.9,9.7-2,12.5,1.7c1.1,3.5,2.3,2.7,3,3.9c0.7,5.9,1.1,0.9,0.9,7.6
			c-0.1,1.8,0-0.3-1,3.7c-0.4,3.1-1.7-1.5-2.8-1.4c-1.4,5.5-2.3,4.8-3.4,4.6C244.9,53.3,243.2,54.1,241,55.4z"/>
		<path class="st5" d="M280.5,37.8c-1.1,3.1-2.1,0.7-2.7-2.3c-0.7,5.3-0.8,8.1-0.3,8.4c-0.2,2.3-0.5,23.8-0.3,25.1
			c-0.3,1,0.2,5.4,0.6,5.8c1.1,2.2,2,2.7,2.6-0.3c0,3.5,0.1-0.2-0.1,3.4c-4.9,4.1-9.9-2.4-12.9-8.3c-5-4.8-7.3-8.4-7.2-11.6
			c0-4.5,0.3-8.1,2.1-12.9c0.7,2.2,2.7-6.3,4.9-3.4c2.3-5.1,3.9-3.2,6.4-3.8c2.1-2.4,4.7,0,6.8-4.7C280.4,35.7,280.4,37,280.5,37.8z
			 M283.4,37.8c0.1,2.8,0-3.5-0.1-7.1c2.4,4.7,4.9,7.1,7.6,7c1.9,3.1,3.7-1.4,5.7,1.4c4.6,3.2,7.2,12,7.1,18.8
			c0.7,8.7-1.7,14.2-6.9,14.9c-3.6,6.5-8,1.2-13.6,5.1c0.5,4.4-0.1-3.7,0.5-6.6c0.4-1,0.8,0.7,1.3,4.3c0.4-1.2,0.4-1.9,1.2-4.2
			c0.1,4.2,0.6-3.2,0.4,0.1c0.4-3.6,0-27.7,0.4-27.5c-0.1-2.7,0-0.7-1-5.9c-0.2,2-0.7,0-1-1.5C284.8,37.2,284.1,37.2,283.4,37.8z"/>
		<path class="st5" d="M329.9,40.7c0.3,2.7,18.2,30.9,18.1,27.4c0.1,5.2,1,7.5,2.7,7c0.2,2.5,0.1-2.7,0.6-1.2
			c-0.4-0.5,0.1,2.9-0.2,2.9c1.4,2.1,1.2,2.6-0.4-0.2c-0.4,3.6-1.2-2.9-2.8,0.5c1,4.3-17.2-0.3-15.9-3.1c-1.9-0.8-2.8,0.9-2.9,4.4
			c-0.8-1.3-1.9-2.2-0.8-4.7c-1.1,4.6-0.8-1.5-1,3.1c1-3.6,0.5-1,1.9-1c0.7-2.1,1.7,0.2,0.5-4.6c0.2,2-0.4-0.2-0.5-2
			c0.2,0.7-17.7-24.6-17-30.6c-1.6,3.9-0.6,2.7-0.8,4c-0.9-4.5-1.6-5.9-2.8-5.8c0.3,4.1,0,0.7-0.6,0.7c0.4,1.2,0.3-2.7-0.1-2
			c0.7,5.3,0.3-0.5,0.8-1.1c0.7,3,1.9,5.6,3.1-0.4c-0.1,5.3,16.5,5.1,16.6,1.3c0.6,4.3,2.2,0.7,2.4,1.5c1.4-3.3,1.2-3.1,0.7-0.7
			c0.8-2,0,5.1-0.7,1.3c-0.9,3.2-0.5-0.2-0.2,4.3c-1-5-0.3,1-1.5-0.9C330.4,42.7,329.5,39.5,329.9,40.7z M321,62.2
			c0.1,1,2,3.4,2,2.1c-0.1,1.6-2.3,5.3-1.9,5c-1,1.9-1.6,0.9-1.5,2c-0.2,0.7,0.6,2.5,1.8,2.8c1.2,0.8,1.7,1.1,1.6,0.2
			c0.3,1.4,0.4-0.6,0.3,1c0.4,2.1-0.4,0.9-0.5,0.3c-0.4-0.2-0.7,0.6-0.8,1.9c-0.2-0.3-1-0.4-1.4-1.1c-0.4,1.7-9.6-0.4-9.7,1.3
			c-0.5-1.2-1.4-0.3-1.5-0.5c-0.5-0.8-0.5-0.2-0.9-2.3c0.1,0.5,0.1-0.5,0.5-1.1c0.3,0,0.8,1.5,1.7-0.9c1.4,1,3.2-0.3,4.2-1
			C314.6,70.5,321,61.9,321,62.2z M338.1,49.3c0.1,0.9-2-3.4-2.1-4.6c-0.1,1.5,2-0.8,2.3-1.1c0.3,0.1,0.3-2.3,0.4-2.4
			c-0.2-0.7-0.3-0.1-0.7-0.7c0.2,0.1-0.3-0.2-1.2-1.4c0,1.1-1.2-1.6-1.3-0.5c0.1,1.3-0.5-0.4-0.3-1.6c-0.4-0.6-0.5-0.2-0.4,0.7
			c0-0.8,0-1.3,0.8-2.2c0,1.3,0.6-0.8,1.2,0.8c0.3-1.1,10.5-0.2,10.8-0.1c0.6-0.5,1.4,0.5,1.4-0.7c0.5,1,0.6,0.8,0.7,0.8
			c0.1,0.7-0.2,2.7-0.4,1.1c-0.6,1.6-0.7,1.6-1.5,2.5c-1.9-0.6-3.4,0.2-4.8,1.8C343.4,43.1,338,49.1,338.1,49.3z"/>
	</g>
</g>
</svg>
